0
SECTION
2
HEADER
9
$INSUNITS
70
4
9
$ACADVER
1
AC1014
9
$HANDSEED
5
FFFF
0
ENDSEC
0
SECTION
2
TABLES
0
TABLE
2
VPORT
5
8
100
AcDbSymbolTable
0
ENDTAB
0
TABLE
2
LTYPE
5
5
100
AcDbSymbolTable
0
LTYPE
5
14
100
AcDbSymbolTableRecord
100
AcDbLinetypeTableRecord
2
BYBLOCK
70
0
0
LTYPE
5
15
100
AcDbSymbolTableRecord
100
AcDbLinetypeTableRecord
2
BYLAYER
70
0
0
LTYPE
5
16
100
AcDbSymbolTableRecord
100
AcDbLinetypeTableRecord
2
DASHED
70
0
3
Dashed __ __ __ __ __ __ __ __ __ __ __ __ __ _
72
65
73
2
40
0.75
49
0.5
74
0
49
-0.25
74
0
0
ENDTAB
0
TABLE
2
LAYER
5
2
100
AcDbSymbolTable
70
2
0
LAYER
5
50
100
AcDbSymbolTableRecord
100
AcDbLayerTableRecord
2
0
70
0
62
7
6
CONTINUOUS
0
ENDTAB
0
TABLE
2
STYLE
5
3
100
AcDbSymbolTable
70
1
0
STYLE
5
11
100
AcDbSymbolTableRecord
100
AcDbTextStyleTableRecord
2
STANDARD
70
0
0
ENDTAB
0
TABLE
2
VIEW
5
6
100
AcDbSymbolTable
70
0
0
ENDTAB
0
TABLE
2
UCS
5
7
100
AcDbSymbolTable
70
0
0
ENDTAB
0
TABLE
2
APPID
5
9
100
AcDbSymbolTable
70
2
0
APPID
5
12
100
AcDbSymbolTableRecord
100
AcDbRegAppTableRecord
2
ACAD
70
0
0
ENDTAB
0
TABLE
2
DIMSTYLE
5
A
100
AcDbSymbolTable
70
1
0
ENDTAB
0
TABLE
2
BLOCK_RECORD
5
1
100
AcDbSymbolTable
70
1
0
BLOCK_RECORD
5
1F
100
AcDbSymbolTableRecord
100
AcDbBlockTableRecord
2
*MODEL_SPACE
0
BLOCK_RECORD
5
1B
100
AcDbSymbolTableRecord
100
AcDbBlockTableRecord
2
*PAPER_SPACE
0
ENDTAB
0
ENDSEC
0
SECTION
2
BLOCKS
0
BLOCK
5
20
100
AcDbEntity
100
AcDbBlockBegin
2
*MODEL_SPACE
0
ENDBLK
5
21
100
AcDbEntity
100
AcDbBlockEnd
0
BLOCK
5
1C
100
AcDbEntity
100
AcDbBlockBegin
2
*PAPER_SPACE
0
ENDBLK
5
1D
100
AcDbEntity
100
AcDbBlockEnd
0
ENDSEC
0
SECTION
2
ENTITIES
0
CIRCLE
5
100
100
AcDbEntity
8
0
100
AcDbCircle
10
-47.774132828906168
20
68.187448646952532
30
0
40
1.5000000000000004
210
0
220
0
230
1
0
LWPOLYLINE
5
101
100
AcDbEntity
8
0
100
AcDbPolyline
90
6
70
1
43
0.0
10
-52.480803690903969
20
-38.437293851174381
10
-52.480803690903947
20
72.562706148825683
42
-0.4142135623730957
10
-48.48080369090394
20
76.562706148825683
10
40.51919630909606
20
76.562706148825669
42
-0.41421356237309631
10
44.519196309096067
20
72.562706148825654
10
44.519196309096067
20
-38.437293851174402
0
CIRCLE
5
102
100
AcDbEntity
8
0
100
AcDbCircle
10
39.72586717109386
20
68.187448646952504
30
0
40
1.5000000000000004
210
0
220
0
230
1
0
CIRCLE
5
103
100
AcDbEntity
8
0
100
AcDbCircle
10
39.725867171093839
20
-14.812551353047514
30
0
40
1.5000000000000004
210
0
220
0
230
1
0
CIRCLE
5
104
100
AcDbEntity
8
0
100
AcDbCircle
10
-47.77413282890619
20
-14.812551353047496
30
0
40
1.5000000000000004
210
0
220
0
230
1
0
LWPOLYLINE
5
105
100
AcDbEntity
8
0
100
AcDbPolyline
90
4
70
1
43
0.0
10
-43.284816273056279
20
-23.10158477826733
10
-42.884816273056288
20
-23.10158477826733
10
-42.884816273056288
20
-23.501584778267318
10
-43.284816273056279
20
-23.501584778267318
0
LWPOLYLINE
5
106
100
AcDbEntity
8
0
100
AcDbPolyline
90
4
70
1
43
0.0
10
-38.984816273056346
20
-23.101584778267338
10
-38.584816273056347
20
-23.101584778267338
10
-38.584816273056347
20
-23.501584778267329
10
-38.984816273056346
20
-23.501584778267329
0
LWPOLYLINE
5
107
100
AcDbEntity
8
0
100
AcDbPolyline
90
4
70
1
43
0.0
10
-35.684816273056391
20
-23.101584778267338
10
-35.284816273056393
20
-23.101584778267338
10
-35.284816273056393
20
-23.501584778267329
10
-35.684816273056391
20
-23.501584778267329
0
LWPOLYLINE
5
108
100
AcDbEntity
8
0
100
AcDbPolyline
90
4
70
1
43
0.0
10
-32.384816273056437
20
-23.101584778267341
10
-31.984816273056435
20
-23.101584778267341
10
-31.984816273056435
20
-23.501584778267329
10
-32.384816273056437
20
-23.501584778267329
0
LWPOLYLINE
5
109
100
AcDbEntity
8
0
100
AcDbPolyline
90
4
70
1
43
0.0
10
-29.084816273056482
20
-23.101584778267341
10
-28.684816273056484
20
-23.101584778267341
10
-28.684816273056484
20
-23.501584778267329
10
-29.084816273056482
20
-23.501584778267329
0
LWPOLYLINE
5
110
100
AcDbEntity
8
0
100
AcDbPolyline
90
4
70
1
43
0.0
10
-25.784816273056528
20
-23.101584778267345
10
-25.384816273056529
20
-23.101584778267345
10
-25.384816273056529
20
-23.501584778267333
10
-25.784816273056528
20
-23.501584778267333
0
LWPOLYLINE
5
111
100
AcDbEntity
8
0
100
AcDbPolyline
90
4
70
1
43
0.0
10
-22.484816273056577
20
-23.101584778267345
10
-22.084816273056575
20
-23.101584778267345
10
-22.084816273056575
20
-23.501584778267333
10
-22.484816273056577
20
-23.501584778267333
0
LWPOLYLINE
5
112
100
AcDbEntity
8
0
100
AcDbPolyline
90
4
70
1
43
0.0
10
-18.334816273056628
20
-23.101584778267352
10
-17.934816273056637
20
-23.101584778267352
10
-17.934816273056637
20
-23.501584778267336
10
-18.334816273056624
20
-23.501584778267336
0
LWPOLYLINE
5
113
100
AcDbEntity
8
0
100
AcDbPolyline
90
4
70
1
43
0.0
10
9.7151837269429908
20
-23.101584778267362
10
10.115183726942982
20
-23.101584778267362
10
10.115183726942982
20
-23.50158477826735
10
9.7151837269429926
20
-23.50158477826735
0
LWPOLYLINE
5
114
100
AcDbEntity
8
0
100
AcDbPolyline
90
4
70
1
43
0.0
10
14.015183726942926
20
-23.101584778267366
10
14.415183726942924
20
-23.101584778267366
10
14.415183726942921
20
-23.501584778267357
10
14.015183726942924
20
-23.501584778267357
0
LWPOLYLINE
5
115
100
AcDbEntity
8
0
100
AcDbPolyline
90
4
70
1
43
0.0
10
17.315183726942877
20
-23.101584778267366
10
17.715183726942875
20
-23.101584778267366
10
17.715183726942879
20
-23.501584778267357
10
17.315183726942877
20
-23.501584778267357
0
LWPOLYLINE
5
116
100
AcDbEntity
8
0
100
AcDbPolyline
90
4
70
1
43
0.0
10
20.615183726942835
20
-23.101584778267373
10
21.015183726942833
20
-23.101584778267373
10
21.015183726942833
20
-23.501584778267357
10
20.615183726942835
20
-23.501584778267357
0
LWPOLYLINE
5
117
100
AcDbEntity
8
0
100
AcDbPolyline
90
4
70
1
43
0.0
10
23.915183726942786
20
-23.101584778267373
10
24.315183726942784
20
-23.101584778267373
10
24.315183726942784
20
-23.501584778267357
10
23.915183726942786
20
-23.501584778267357
0
LWPOLYLINE
5
118
100
AcDbEntity
8
0
100
AcDbPolyline
90
4
70
1
43
0.0
10
27.21518372694274
20
-23.101584778267377
10
27.615183726942742
20
-23.101584778267377
10
27.615183726942742
20
-23.501584778267365
10
27.21518372694274
20
-23.501584778267365
0
LWPOLYLINE
5
119
100
AcDbEntity
8
0
100
AcDbPolyline
90
4
70
1
43
0.0
10
30.515183726942695
20
-23.101584778267377
10
30.915183726942693
20
-23.101584778267377
10
30.915183726942693
20
-23.501584778267365
10
30.515183726942695
20
-23.501584778267365
0
LWPOLYLINE
5
120
100
AcDbEntity
8
0
100
AcDbPolyline
90
4
70
1
43
0.0
10
34.665183726942644
20
-23.10158477826738
10
35.065183726942635
20
-23.10158477826738
10
35.065183726942635
20
-23.501584778267368
10
34.665183726942644
20
-23.501584778267368
0
LWPOLYLINE
5
121
100
AcDbEntity
8
0
100
AcDbPolyline
90
4
70
1
43
0.0
10
42.440183726942529
20
-31.901584778267399
10
41.240183726942547
20
-31.901584778267399
10
41.240183726942554
20
-28.901584778267392
10
42.440183726942536
20
-28.901584778267392
0
LWPOLYLINE
5
122
100
AcDbEntity
8
0
100
AcDbPolyline
90
4
70
1
43
0.0
10
3.5401837269430736
20
-31.901584778267377
10
2.3401837269430863
20
-31.901584778267377
10
2.3401837269430863
20
-28.90158477826737
10
3.5401837269430732
20
-28.90158477826737
0
LWPOLYLINE
5
123
100
AcDbEntity
8
0
100
AcDbPolyline
90
4
70
1
43
0.0
10
-10.559816273056736
20
-31.901584778267367
10
-11.759816273056718
20
-31.901584778267367
10
-11.759816273056716
20
-28.90158477826736
10
-10.559816273056734
20
-28.90158477826736
0
LWPOLYLINE
5
124
100
AcDbEntity
8
0
100
AcDbPolyline
90
4
70
1
43
0.0
10
-49.459816273056198
20
-31.901584778267345
10
-50.65981627305618
20
-31.901584778267345
10
-50.65981627305618
20
-28.901584778267338
10
-49.459816273056198
20
-28.901584778267338
0
ENDSEC
0
SECTION
2
OBJECTS
0
DICTIONARY
5
C
100
AcDbDictionary
3
ACAD_GROUP
350
D
3
ACAD_MLINESTYLE
350
17
0
DICTIONARY
5
D
100
AcDbDictionary
0
DICTIONARY
5
1A
330
C
100
AcDbDictionary
0
DICTIONARY
5
17
100
AcDbDictionary
0
ENDSEC
0
EOF
