G04 #@! TF.GenerationSoftware,KiCad,Pcbnew,9.0.4*
G04 #@! TF.CreationDate,2025-12-07T20:06:33+10:00*
G04 #@! TF.ProjectId,trove8,74726f76-6538-42e6-9b69-6361645f7063,rev?*
G04 #@! TF.SameCoordinates,Original*
G04 #@! TF.FileFunction,Paste,Bot*
G04 #@! TF.FilePolarity,Positive*
%FSLAX46Y46*%
G04 Gerber Fmt 4.6, Leading zero omitted, Abs format (unit mm)*
G04 Created by KiCad (PCBNEW 9.0.4) date 2025-12-07 20:06:33*
%MOMM*%
%LPD*%
G01*
G04 APERTURE LIST*
G04 APERTURE END LIST*
G04 #@! TO.C,M6*
G36*
G01*
X157557502Y-81783529D02*
X157557502Y-81533529D01*
G75*
G02*
X157682502Y-81408529I125000J0D01*
G01*
X157682502Y-81408529D01*
G75*
G02*
X157807502Y-81533529I0J-125000D01*
G01*
X157807502Y-81783529D01*
G75*
G02*
X157682502Y-81908529I-125000J0D01*
G01*
X157682502Y-81908529D01*
G75*
G02*
X157557502Y-81783529I0J125000D01*
G01*
G37*
G36*
G01*
X156707498Y-81533529D02*
X156707498Y-81783529D01*
G75*
G02*
X156582498Y-81908529I-125000J0D01*
G01*
X156582498Y-81908529D01*
G75*
G02*
X156457498Y-81783529I0J125000D01*
G01*
X156457498Y-81533529D01*
G75*
G02*
X156582498Y-81408529I125000J0D01*
G01*
X156582498Y-81408529D01*
G75*
G02*
X156707498Y-81533529I0J-125000D01*
G01*
G37*
G36*
G01*
X155607497Y-81533529D02*
X155607497Y-81783529D01*
G75*
G02*
X155482497Y-81908529I-125000J0D01*
G01*
X155482497Y-81908529D01*
G75*
G02*
X155357497Y-81783529I0J125000D01*
G01*
X155357497Y-81533529D01*
G75*
G02*
X155482497Y-81408529I125000J0D01*
G01*
X155482497Y-81408529D01*
G75*
G02*
X155607497Y-81533529I0J-125000D01*
G01*
G37*
G36*
G01*
X154507500Y-81533529D02*
X154507500Y-81783529D01*
G75*
G02*
X154382500Y-81908529I-125000J0D01*
G01*
X154382500Y-81908529D01*
G75*
G02*
X154257500Y-81783529I0J125000D01*
G01*
X154257500Y-81533529D01*
G75*
G02*
X154382500Y-81408529I125000J0D01*
G01*
X154382500Y-81408529D01*
G75*
G02*
X154507500Y-81533529I0J-125000D01*
G01*
G37*
G36*
G01*
X153407502Y-81533529D02*
X153407502Y-81783529D01*
G75*
G02*
X153282502Y-81908529I-125000J0D01*
G01*
X153282502Y-81908529D01*
G75*
G02*
X153157502Y-81783529I0J125000D01*
G01*
X153157502Y-81533529D01*
G75*
G02*
X153282502Y-81408529I125000J0D01*
G01*
X153282502Y-81408529D01*
G75*
G02*
X153407502Y-81533529I0J-125000D01*
G01*
G37*
G36*
G01*
X152307504Y-81533529D02*
X152307504Y-81783529D01*
G75*
G02*
X152182504Y-81908529I-125000J0D01*
G01*
X152182504Y-81908529D01*
G75*
G02*
X152057504Y-81783529I0J125000D01*
G01*
X152057504Y-81533529D01*
G75*
G02*
X152182504Y-81408529I125000J0D01*
G01*
X152182504Y-81408529D01*
G75*
G02*
X152307504Y-81533529I0J-125000D01*
G01*
G37*
G36*
G01*
X151207506Y-81533529D02*
X151207506Y-81783529D01*
G75*
G02*
X151082506Y-81908529I-125000J0D01*
G01*
X151082506Y-81908529D01*
G75*
G02*
X150957506Y-81783529I0J125000D01*
G01*
X150957506Y-81533529D01*
G75*
G02*
X151082506Y-81408529I125000J0D01*
G01*
X151082506Y-81408529D01*
G75*
G02*
X151207506Y-81533529I0J-125000D01*
G01*
G37*
G36*
G01*
X150107508Y-81533529D02*
X150107508Y-81783529D01*
G75*
G02*
X149982508Y-81908529I-125000J0D01*
G01*
X149982508Y-81908529D01*
G75*
G02*
X149857508Y-81783529I0J125000D01*
G01*
X149857508Y-81533529D01*
G75*
G02*
X149982508Y-81408529I125000J0D01*
G01*
X149982508Y-81408529D01*
G75*
G02*
X150107508Y-81533529I0J-125000D01*
G01*
G37*
G36*
G01*
X149007511Y-81533529D02*
X149007511Y-81783529D01*
G75*
G02*
X148882511Y-81908529I-125000J0D01*
G01*
X148882511Y-81908529D01*
G75*
G02*
X148757511Y-81783529I0J125000D01*
G01*
X148757511Y-81533529D01*
G75*
G02*
X148882511Y-81408529I125000J0D01*
G01*
X148882511Y-81408529D01*
G75*
G02*
X149007511Y-81533529I0J-125000D01*
G01*
G37*
G36*
G01*
X147907513Y-81533529D02*
X147907513Y-81783529D01*
G75*
G02*
X147782513Y-81908529I-125000J0D01*
G01*
X147782513Y-81908529D01*
G75*
G02*
X147657513Y-81783529I0J125000D01*
G01*
X147657513Y-81533529D01*
G75*
G02*
X147782513Y-81408529I125000J0D01*
G01*
X147782513Y-81408529D01*
G75*
G02*
X147907513Y-81533529I0J-125000D01*
G01*
G37*
G36*
G01*
X146807515Y-81533529D02*
X146807515Y-81783529D01*
G75*
G02*
X146682515Y-81908529I-125000J0D01*
G01*
X146682515Y-81908529D01*
G75*
G02*
X146557515Y-81783529I0J125000D01*
G01*
X146557515Y-81533529D01*
G75*
G02*
X146682515Y-81408529I125000J0D01*
G01*
X146682515Y-81408529D01*
G75*
G02*
X146807515Y-81533529I0J-125000D01*
G01*
G37*
G36*
G01*
X145707517Y-81533529D02*
X145707517Y-81783529D01*
G75*
G02*
X145582517Y-81908529I-125000J0D01*
G01*
X145582517Y-81908529D01*
G75*
G02*
X145457517Y-81783529I0J125000D01*
G01*
X145457517Y-81533529D01*
G75*
G02*
X145582517Y-81408529I125000J0D01*
G01*
X145582517Y-81408529D01*
G75*
G02*
X145707517Y-81533529I0J-125000D01*
G01*
G37*
G36*
G01*
X144607519Y-81533529D02*
X144607519Y-81783529D01*
G75*
G02*
X144482519Y-81908529I-125000J0D01*
G01*
X144482519Y-81908529D01*
G75*
G02*
X144357519Y-81783529I0J125000D01*
G01*
X144357519Y-81533529D01*
G75*
G02*
X144482519Y-81408529I125000J0D01*
G01*
X144482519Y-81408529D01*
G75*
G02*
X144607519Y-81533529I0J-125000D01*
G01*
G37*
G36*
G01*
X143507522Y-81533529D02*
X143507522Y-81783529D01*
G75*
G02*
X143382522Y-81908529I-125000J0D01*
G01*
X143382522Y-81908529D01*
G75*
G02*
X143257522Y-81783529I0J125000D01*
G01*
X143257522Y-81533529D01*
G75*
G02*
X143382522Y-81408529I125000J0D01*
G01*
X143382522Y-81408529D01*
G75*
G02*
X143507522Y-81533529I0J-125000D01*
G01*
G37*
G36*
G01*
X142407524Y-81533529D02*
X142407524Y-81783529D01*
G75*
G02*
X142282524Y-81908529I-125000J0D01*
G01*
X142282524Y-81908529D01*
G75*
G02*
X142157524Y-81783529I0J125000D01*
G01*
X142157524Y-81533529D01*
G75*
G02*
X142282524Y-81408529I125000J0D01*
G01*
X142282524Y-81408529D01*
G75*
G02*
X142407524Y-81533529I0J-125000D01*
G01*
G37*
G36*
G01*
X141307526Y-81533529D02*
X141307526Y-81783529D01*
G75*
G02*
X141182526Y-81908529I-125000J0D01*
G01*
X141182526Y-81908529D01*
G75*
G02*
X141057526Y-81783529I0J125000D01*
G01*
X141057526Y-81533529D01*
G75*
G02*
X141182526Y-81408529I125000J0D01*
G01*
X141182526Y-81408529D01*
G75*
G02*
X141307526Y-81533529I0J-125000D01*
G01*
G37*
G36*
G01*
X140207528Y-81533529D02*
X140207528Y-81783529D01*
G75*
G02*
X140082528Y-81908529I-125000J0D01*
G01*
X140082528Y-81908529D01*
G75*
G02*
X139957528Y-81783529I0J125000D01*
G01*
X139957528Y-81533529D01*
G75*
G02*
X140082528Y-81408529I125000J0D01*
G01*
X140082528Y-81408529D01*
G75*
G02*
X140207528Y-81533529I0J-125000D01*
G01*
G37*
G36*
G01*
X139107530Y-81533529D02*
X139107530Y-81783529D01*
G75*
G02*
X138982530Y-81908529I-125000J0D01*
G01*
X138982530Y-81908529D01*
G75*
G02*
X138857530Y-81783529I0J125000D01*
G01*
X138857530Y-81533529D01*
G75*
G02*
X138982530Y-81408529I125000J0D01*
G01*
X138982530Y-81408529D01*
G75*
G02*
X139107530Y-81533529I0J-125000D01*
G01*
G37*
G36*
G01*
X138007533Y-81533529D02*
X138007533Y-81783529D01*
G75*
G02*
X137882533Y-81908529I-125000J0D01*
G01*
X137882533Y-81908529D01*
G75*
G02*
X137757533Y-81783529I0J125000D01*
G01*
X137757533Y-81533529D01*
G75*
G02*
X137882533Y-81408529I125000J0D01*
G01*
X137882533Y-81408529D01*
G75*
G02*
X138007533Y-81533529I0J-125000D01*
G01*
G37*
G36*
G01*
X136907535Y-81533529D02*
X136907535Y-81783529D01*
G75*
G02*
X136782535Y-81908529I-125000J0D01*
G01*
X136782535Y-81908529D01*
G75*
G02*
X136657535Y-81783529I0J125000D01*
G01*
X136657535Y-81533529D01*
G75*
G02*
X136782535Y-81408529I125000J0D01*
G01*
X136782535Y-81408529D01*
G75*
G02*
X136907535Y-81533529I0J-125000D01*
G01*
G37*
G36*
G01*
X135807537Y-81533529D02*
X135807537Y-81783529D01*
G75*
G02*
X135682537Y-81908529I-125000J0D01*
G01*
X135682537Y-81908529D01*
G75*
G02*
X135557537Y-81783529I0J125000D01*
G01*
X135557537Y-81533529D01*
G75*
G02*
X135682537Y-81408529I125000J0D01*
G01*
X135682537Y-81408529D01*
G75*
G02*
X135807537Y-81533529I0J-125000D01*
G01*
G37*
G36*
G01*
X134707539Y-81533529D02*
X134707539Y-81783529D01*
G75*
G02*
X134582539Y-81908529I-125000J0D01*
G01*
X134582539Y-81908529D01*
G75*
G02*
X134457539Y-81783529I0J125000D01*
G01*
X134457539Y-81533529D01*
G75*
G02*
X134582539Y-81408529I125000J0D01*
G01*
X134582539Y-81408529D01*
G75*
G02*
X134707539Y-81533529I0J-125000D01*
G01*
G37*
G36*
G01*
X133607541Y-81533529D02*
X133607541Y-81783529D01*
G75*
G02*
X133482541Y-81908529I-125000J0D01*
G01*
X133482541Y-81908529D01*
G75*
G02*
X133357541Y-81783529I0J125000D01*
G01*
X133357541Y-81533529D01*
G75*
G02*
X133482541Y-81408529I125000J0D01*
G01*
X133482541Y-81408529D01*
G75*
G02*
X133607541Y-81533529I0J-125000D01*
G01*
G37*
G36*
G01*
X132507544Y-81533529D02*
X132507544Y-81783529D01*
G75*
G02*
X132382544Y-81908529I-125000J0D01*
G01*
X132382544Y-81908529D01*
G75*
G02*
X132257544Y-81783529I0J125000D01*
G01*
X132257544Y-81533529D01*
G75*
G02*
X132382544Y-81408529I125000J0D01*
G01*
X132382544Y-81408529D01*
G75*
G02*
X132507544Y-81533529I0J-125000D01*
G01*
G37*
G36*
G01*
X131407546Y-81533529D02*
X131407546Y-81783529D01*
G75*
G02*
X131282546Y-81908529I-125000J0D01*
G01*
X131282546Y-81908529D01*
G75*
G02*
X131157546Y-81783529I0J125000D01*
G01*
X131157546Y-81533529D01*
G75*
G02*
X131282546Y-81408529I125000J0D01*
G01*
X131282546Y-81408529D01*
G75*
G02*
X131407546Y-81533529I0J-125000D01*
G01*
G37*
G36*
G01*
X130307548Y-81533529D02*
X130307548Y-81783529D01*
G75*
G02*
X130182548Y-81908529I-125000J0D01*
G01*
X130182548Y-81908529D01*
G75*
G02*
X130057548Y-81783529I0J125000D01*
G01*
X130057548Y-81533529D01*
G75*
G02*
X130182548Y-81408529I125000J0D01*
G01*
X130182548Y-81408529D01*
G75*
G02*
X130307548Y-81533529I0J-125000D01*
G01*
G37*
G04 #@! TD*
G04 #@! TO.C,Q8*
G36*
G01*
X76880000Y-70900000D02*
X74630000Y-70900000D01*
G75*
G02*
X74380000Y-70650000I0J250000D01*
G01*
X74380000Y-68100000D01*
G75*
G02*
X74630000Y-67850000I250000J0D01*
G01*
X76880000Y-67850000D01*
G75*
G02*
X77130000Y-68100000I0J-250000D01*
G01*
X77130000Y-70650000D01*
G75*
G02*
X76880000Y-70900000I-250000J0D01*
G01*
G37*
G36*
G01*
X79930000Y-70900000D02*
X77680000Y-70900000D01*
G75*
G02*
X77430000Y-70650000I0J250000D01*
G01*
X77430000Y-68100000D01*
G75*
G02*
X77680000Y-67850000I250000J0D01*
G01*
X79930000Y-67850000D01*
G75*
G02*
X80180000Y-68100000I0J-250000D01*
G01*
X80180000Y-70650000D01*
G75*
G02*
X79930000Y-70900000I-250000J0D01*
G01*
G37*
G36*
G01*
X76880000Y-67550000D02*
X74630000Y-67550000D01*
G75*
G02*
X74380000Y-67300000I0J250000D01*
G01*
X74380000Y-64750000D01*
G75*
G02*
X74630000Y-64500000I250000J0D01*
G01*
X76880000Y-64500000D01*
G75*
G02*
X77130000Y-64750000I0J-250000D01*
G01*
X77130000Y-67300000D01*
G75*
G02*
X76880000Y-67550000I-250000J0D01*
G01*
G37*
G36*
G01*
X79930000Y-67550000D02*
X77680000Y-67550000D01*
G75*
G02*
X77430000Y-67300000I0J250000D01*
G01*
X77430000Y-64750000D01*
G75*
G02*
X77680000Y-64500000I250000J0D01*
G01*
X79930000Y-64500000D01*
G75*
G02*
X80180000Y-64750000I0J-250000D01*
G01*
X80180000Y-67300000D01*
G75*
G02*
X79930000Y-67550000I-250000J0D01*
G01*
G37*
G36*
G01*
X79910000Y-75100000D02*
X79210000Y-75100000D01*
G75*
G02*
X78960000Y-74850000I0J250000D01*
G01*
X78960000Y-73150000D01*
G75*
G02*
X79210000Y-72900000I250000J0D01*
G01*
X79910000Y-72900000D01*
G75*
G02*
X80160000Y-73150000I0J-250000D01*
G01*
X80160000Y-74850000D01*
G75*
G02*
X79910000Y-75100000I-250000J0D01*
G01*
G37*
G36*
G01*
X75350000Y-75100000D02*
X74650000Y-75100000D01*
G75*
G02*
X74400000Y-74850000I0J250000D01*
G01*
X74400000Y-73150000D01*
G75*
G02*
X74650000Y-72900000I250000J0D01*
G01*
X75350000Y-72900000D01*
G75*
G02*
X75600000Y-73150000I0J-250000D01*
G01*
X75600000Y-74850000D01*
G75*
G02*
X75350000Y-75100000I-250000J0D01*
G01*
G37*
G04 #@! TD*
G04 #@! TO.C,Q4*
G36*
G01*
X83130000Y-59375000D02*
X80880000Y-59375000D01*
G75*
G02*
X80630000Y-59125000I0J250000D01*
G01*
X80630000Y-56575000D01*
G75*
G02*
X80880000Y-56325000I250000J0D01*
G01*
X83130000Y-56325000D01*
G75*
G02*
X83380000Y-56575000I0J-250000D01*
G01*
X83380000Y-59125000D01*
G75*
G02*
X83130000Y-59375000I-250000J0D01*
G01*
G37*
G36*
G01*
X86180000Y-59375000D02*
X83930000Y-59375000D01*
G75*
G02*
X83680000Y-59125000I0J250000D01*
G01*
X83680000Y-56575000D01*
G75*
G02*
X83930000Y-56325000I250000J0D01*
G01*
X86180000Y-56325000D01*
G75*
G02*
X86430000Y-56575000I0J-250000D01*
G01*
X86430000Y-59125000D01*
G75*
G02*
X86180000Y-59375000I-250000J0D01*
G01*
G37*
G36*
G01*
X83130000Y-56025000D02*
X80880000Y-56025000D01*
G75*
G02*
X80630000Y-55775000I0J250000D01*
G01*
X80630000Y-53225000D01*
G75*
G02*
X80880000Y-52975000I250000J0D01*
G01*
X83130000Y-52975000D01*
G75*
G02*
X83380000Y-53225000I0J-250000D01*
G01*
X83380000Y-55775000D01*
G75*
G02*
X83130000Y-56025000I-250000J0D01*
G01*
G37*
G36*
G01*
X86180000Y-56025000D02*
X83930000Y-56025000D01*
G75*
G02*
X83680000Y-55775000I0J250000D01*
G01*
X83680000Y-53225000D01*
G75*
G02*
X83930000Y-52975000I250000J0D01*
G01*
X86180000Y-52975000D01*
G75*
G02*
X86430000Y-53225000I0J-250000D01*
G01*
X86430000Y-55775000D01*
G75*
G02*
X86180000Y-56025000I-250000J0D01*
G01*
G37*
G36*
G01*
X86160000Y-63575000D02*
X85460000Y-63575000D01*
G75*
G02*
X85210000Y-63325000I0J250000D01*
G01*
X85210000Y-61625000D01*
G75*
G02*
X85460000Y-61375000I250000J0D01*
G01*
X86160000Y-61375000D01*
G75*
G02*
X86410000Y-61625000I0J-250000D01*
G01*
X86410000Y-63325000D01*
G75*
G02*
X86160000Y-63575000I-250000J0D01*
G01*
G37*
G36*
G01*
X81600000Y-63575000D02*
X80900000Y-63575000D01*
G75*
G02*
X80650000Y-63325000I0J250000D01*
G01*
X80650000Y-61625000D01*
G75*
G02*
X80900000Y-61375000I250000J0D01*
G01*
X81600000Y-61375000D01*
G75*
G02*
X81850000Y-61625000I0J-250000D01*
G01*
X81850000Y-63325000D01*
G75*
G02*
X81600000Y-63575000I-250000J0D01*
G01*
G37*
G04 #@! TD*
G04 #@! TO.C,Q2*
G36*
G01*
X99660000Y-59375000D02*
X97410000Y-59375000D01*
G75*
G02*
X97160000Y-59125000I0J250000D01*
G01*
X97160000Y-56575000D01*
G75*
G02*
X97410000Y-56325000I250000J0D01*
G01*
X99660000Y-56325000D01*
G75*
G02*
X99910000Y-56575000I0J-250000D01*
G01*
X99910000Y-59125000D01*
G75*
G02*
X99660000Y-59375000I-250000J0D01*
G01*
G37*
G36*
G01*
X102710000Y-59375000D02*
X100460000Y-59375000D01*
G75*
G02*
X100210000Y-59125000I0J250000D01*
G01*
X100210000Y-56575000D01*
G75*
G02*
X100460000Y-56325000I250000J0D01*
G01*
X102710000Y-56325000D01*
G75*
G02*
X102960000Y-56575000I0J-250000D01*
G01*
X102960000Y-59125000D01*
G75*
G02*
X102710000Y-59375000I-250000J0D01*
G01*
G37*
G36*
G01*
X99660000Y-56025000D02*
X97410000Y-56025000D01*
G75*
G02*
X97160000Y-55775000I0J250000D01*
G01*
X97160000Y-53225000D01*
G75*
G02*
X97410000Y-52975000I250000J0D01*
G01*
X99660000Y-52975000D01*
G75*
G02*
X99910000Y-53225000I0J-250000D01*
G01*
X99910000Y-55775000D01*
G75*
G02*
X99660000Y-56025000I-250000J0D01*
G01*
G37*
G36*
G01*
X102710000Y-56025000D02*
X100460000Y-56025000D01*
G75*
G02*
X100210000Y-55775000I0J250000D01*
G01*
X100210000Y-53225000D01*
G75*
G02*
X100460000Y-52975000I250000J0D01*
G01*
X102710000Y-52975000D01*
G75*
G02*
X102960000Y-53225000I0J-250000D01*
G01*
X102960000Y-55775000D01*
G75*
G02*
X102710000Y-56025000I-250000J0D01*
G01*
G37*
G36*
G01*
X102690000Y-63575000D02*
X101990000Y-63575000D01*
G75*
G02*
X101740000Y-63325000I0J250000D01*
G01*
X101740000Y-61625000D01*
G75*
G02*
X101990000Y-61375000I250000J0D01*
G01*
X102690000Y-61375000D01*
G75*
G02*
X102940000Y-61625000I0J-250000D01*
G01*
X102940000Y-63325000D01*
G75*
G02*
X102690000Y-63575000I-250000J0D01*
G01*
G37*
G36*
G01*
X98130000Y-63575000D02*
X97430000Y-63575000D01*
G75*
G02*
X97180000Y-63325000I0J250000D01*
G01*
X97180000Y-61625000D01*
G75*
G02*
X97430000Y-61375000I250000J0D01*
G01*
X98130000Y-61375000D01*
G75*
G02*
X98380000Y-61625000I0J-250000D01*
G01*
X98380000Y-63325000D01*
G75*
G02*
X98130000Y-63575000I-250000J0D01*
G01*
G37*
G04 #@! TD*
G04 #@! TO.C,Q5*
G36*
G01*
X101600000Y-70950000D02*
X99350000Y-70950000D01*
G75*
G02*
X99100000Y-70700000I0J250000D01*
G01*
X99100000Y-68150000D01*
G75*
G02*
X99350000Y-67900000I250000J0D01*
G01*
X101600000Y-67900000D01*
G75*
G02*
X101850000Y-68150000I0J-250000D01*
G01*
X101850000Y-70700000D01*
G75*
G02*
X101600000Y-70950000I-250000J0D01*
G01*
G37*
G36*
G01*
X104650000Y-70950000D02*
X102400000Y-70950000D01*
G75*
G02*
X102150000Y-70700000I0J250000D01*
G01*
X102150000Y-68150000D01*
G75*
G02*
X102400000Y-67900000I250000J0D01*
G01*
X104650000Y-67900000D01*
G75*
G02*
X104900000Y-68150000I0J-250000D01*
G01*
X104900000Y-70700000D01*
G75*
G02*
X104650000Y-70950000I-250000J0D01*
G01*
G37*
G36*
G01*
X101600000Y-67600000D02*
X99350000Y-67600000D01*
G75*
G02*
X99100000Y-67350000I0J250000D01*
G01*
X99100000Y-64800000D01*
G75*
G02*
X99350000Y-64550000I250000J0D01*
G01*
X101600000Y-64550000D01*
G75*
G02*
X101850000Y-64800000I0J-250000D01*
G01*
X101850000Y-67350000D01*
G75*
G02*
X101600000Y-67600000I-250000J0D01*
G01*
G37*
G36*
G01*
X104650000Y-67600000D02*
X102400000Y-67600000D01*
G75*
G02*
X102150000Y-67350000I0J250000D01*
G01*
X102150000Y-64800000D01*
G75*
G02*
X102400000Y-64550000I250000J0D01*
G01*
X104650000Y-64550000D01*
G75*
G02*
X104900000Y-64800000I0J-250000D01*
G01*
X104900000Y-67350000D01*
G75*
G02*
X104650000Y-67600000I-250000J0D01*
G01*
G37*
G36*
G01*
X104630000Y-75150000D02*
X103930000Y-75150000D01*
G75*
G02*
X103680000Y-74900000I0J250000D01*
G01*
X103680000Y-73200000D01*
G75*
G02*
X103930000Y-72950000I250000J0D01*
G01*
X104630000Y-72950000D01*
G75*
G02*
X104880000Y-73200000I0J-250000D01*
G01*
X104880000Y-74900000D01*
G75*
G02*
X104630000Y-75150000I-250000J0D01*
G01*
G37*
G36*
G01*
X100070000Y-75150000D02*
X99370000Y-75150000D01*
G75*
G02*
X99120000Y-74900000I0J250000D01*
G01*
X99120000Y-73200000D01*
G75*
G02*
X99370000Y-72950000I250000J0D01*
G01*
X100070000Y-72950000D01*
G75*
G02*
X100320000Y-73200000I0J-250000D01*
G01*
X100320000Y-74900000D01*
G75*
G02*
X100070000Y-75150000I-250000J0D01*
G01*
G37*
G04 #@! TD*
G04 #@! TO.C,Q6*
G36*
G01*
X93875000Y-70950000D02*
X91625000Y-70950000D01*
G75*
G02*
X91375000Y-70700000I0J250000D01*
G01*
X91375000Y-68150000D01*
G75*
G02*
X91625000Y-67900000I250000J0D01*
G01*
X93875000Y-67900000D01*
G75*
G02*
X94125000Y-68150000I0J-250000D01*
G01*
X94125000Y-70700000D01*
G75*
G02*
X93875000Y-70950000I-250000J0D01*
G01*
G37*
G36*
G01*
X96925000Y-70950000D02*
X94675000Y-70950000D01*
G75*
G02*
X94425000Y-70700000I0J250000D01*
G01*
X94425000Y-68150000D01*
G75*
G02*
X94675000Y-67900000I250000J0D01*
G01*
X96925000Y-67900000D01*
G75*
G02*
X97175000Y-68150000I0J-250000D01*
G01*
X97175000Y-70700000D01*
G75*
G02*
X96925000Y-70950000I-250000J0D01*
G01*
G37*
G36*
G01*
X93875000Y-67600000D02*
X91625000Y-67600000D01*
G75*
G02*
X91375000Y-67350000I0J250000D01*
G01*
X91375000Y-64800000D01*
G75*
G02*
X91625000Y-64550000I250000J0D01*
G01*
X93875000Y-64550000D01*
G75*
G02*
X94125000Y-64800000I0J-250000D01*
G01*
X94125000Y-67350000D01*
G75*
G02*
X93875000Y-67600000I-250000J0D01*
G01*
G37*
G36*
G01*
X96925000Y-67600000D02*
X94675000Y-67600000D01*
G75*
G02*
X94425000Y-67350000I0J250000D01*
G01*
X94425000Y-64800000D01*
G75*
G02*
X94675000Y-64550000I250000J0D01*
G01*
X96925000Y-64550000D01*
G75*
G02*
X97175000Y-64800000I0J-250000D01*
G01*
X97175000Y-67350000D01*
G75*
G02*
X96925000Y-67600000I-250000J0D01*
G01*
G37*
G36*
G01*
X96905000Y-75150000D02*
X96205000Y-75150000D01*
G75*
G02*
X95955000Y-74900000I0J250000D01*
G01*
X95955000Y-73200000D01*
G75*
G02*
X96205000Y-72950000I250000J0D01*
G01*
X96905000Y-72950000D01*
G75*
G02*
X97155000Y-73200000I0J-250000D01*
G01*
X97155000Y-74900000D01*
G75*
G02*
X96905000Y-75150000I-250000J0D01*
G01*
G37*
G36*
G01*
X92345000Y-75150000D02*
X91645000Y-75150000D01*
G75*
G02*
X91395000Y-74900000I0J250000D01*
G01*
X91395000Y-73200000D01*
G75*
G02*
X91645000Y-72950000I250000J0D01*
G01*
X92345000Y-72950000D01*
G75*
G02*
X92595000Y-73200000I0J-250000D01*
G01*
X92595000Y-74900000D01*
G75*
G02*
X92345000Y-75150000I-250000J0D01*
G01*
G37*
G04 #@! TD*
G04 #@! TO.C,Q1*
G36*
G01*
X107925000Y-59375000D02*
X105675000Y-59375000D01*
G75*
G02*
X105425000Y-59125000I0J250000D01*
G01*
X105425000Y-56575000D01*
G75*
G02*
X105675000Y-56325000I250000J0D01*
G01*
X107925000Y-56325000D01*
G75*
G02*
X108175000Y-56575000I0J-250000D01*
G01*
X108175000Y-59125000D01*
G75*
G02*
X107925000Y-59375000I-250000J0D01*
G01*
G37*
G36*
G01*
X110975000Y-59375000D02*
X108725000Y-59375000D01*
G75*
G02*
X108475000Y-59125000I0J250000D01*
G01*
X108475000Y-56575000D01*
G75*
G02*
X108725000Y-56325000I250000J0D01*
G01*
X110975000Y-56325000D01*
G75*
G02*
X111225000Y-56575000I0J-250000D01*
G01*
X111225000Y-59125000D01*
G75*
G02*
X110975000Y-59375000I-250000J0D01*
G01*
G37*
G36*
G01*
X107925000Y-56025000D02*
X105675000Y-56025000D01*
G75*
G02*
X105425000Y-55775000I0J250000D01*
G01*
X105425000Y-53225000D01*
G75*
G02*
X105675000Y-52975000I250000J0D01*
G01*
X107925000Y-52975000D01*
G75*
G02*
X108175000Y-53225000I0J-250000D01*
G01*
X108175000Y-55775000D01*
G75*
G02*
X107925000Y-56025000I-250000J0D01*
G01*
G37*
G36*
G01*
X110975000Y-56025000D02*
X108725000Y-56025000D01*
G75*
G02*
X108475000Y-55775000I0J250000D01*
G01*
X108475000Y-53225000D01*
G75*
G02*
X108725000Y-52975000I250000J0D01*
G01*
X110975000Y-52975000D01*
G75*
G02*
X111225000Y-53225000I0J-250000D01*
G01*
X111225000Y-55775000D01*
G75*
G02*
X110975000Y-56025000I-250000J0D01*
G01*
G37*
G36*
G01*
X110955000Y-63575000D02*
X110255000Y-63575000D01*
G75*
G02*
X110005000Y-63325000I0J250000D01*
G01*
X110005000Y-61625000D01*
G75*
G02*
X110255000Y-61375000I250000J0D01*
G01*
X110955000Y-61375000D01*
G75*
G02*
X111205000Y-61625000I0J-250000D01*
G01*
X111205000Y-63325000D01*
G75*
G02*
X110955000Y-63575000I-250000J0D01*
G01*
G37*
G36*
G01*
X106395000Y-63575000D02*
X105695000Y-63575000D01*
G75*
G02*
X105445000Y-63325000I0J250000D01*
G01*
X105445000Y-61625000D01*
G75*
G02*
X105695000Y-61375000I250000J0D01*
G01*
X106395000Y-61375000D01*
G75*
G02*
X106645000Y-61625000I0J-250000D01*
G01*
X106645000Y-63325000D01*
G75*
G02*
X106395000Y-63575000I-250000J0D01*
G01*
G37*
G04 #@! TD*
G04 #@! TO.C,Q7*
G36*
G01*
X85375000Y-70875000D02*
X83125000Y-70875000D01*
G75*
G02*
X82875000Y-70625000I0J250000D01*
G01*
X82875000Y-68075000D01*
G75*
G02*
X83125000Y-67825000I250000J0D01*
G01*
X85375000Y-67825000D01*
G75*
G02*
X85625000Y-68075000I0J-250000D01*
G01*
X85625000Y-70625000D01*
G75*
G02*
X85375000Y-70875000I-250000J0D01*
G01*
G37*
G36*
G01*
X88425000Y-70875000D02*
X86175000Y-70875000D01*
G75*
G02*
X85925000Y-70625000I0J250000D01*
G01*
X85925000Y-68075000D01*
G75*
G02*
X86175000Y-67825000I250000J0D01*
G01*
X88425000Y-67825000D01*
G75*
G02*
X88675000Y-68075000I0J-250000D01*
G01*
X88675000Y-70625000D01*
G75*
G02*
X88425000Y-70875000I-250000J0D01*
G01*
G37*
G36*
G01*
X85375000Y-67525000D02*
X83125000Y-67525000D01*
G75*
G02*
X82875000Y-67275000I0J250000D01*
G01*
X82875000Y-64725000D01*
G75*
G02*
X83125000Y-64475000I250000J0D01*
G01*
X85375000Y-64475000D01*
G75*
G02*
X85625000Y-64725000I0J-250000D01*
G01*
X85625000Y-67275000D01*
G75*
G02*
X85375000Y-67525000I-250000J0D01*
G01*
G37*
G36*
G01*
X88425000Y-67525000D02*
X86175000Y-67525000D01*
G75*
G02*
X85925000Y-67275000I0J250000D01*
G01*
X85925000Y-64725000D01*
G75*
G02*
X86175000Y-64475000I250000J0D01*
G01*
X88425000Y-64475000D01*
G75*
G02*
X88675000Y-64725000I0J-250000D01*
G01*
X88675000Y-67275000D01*
G75*
G02*
X88425000Y-67525000I-250000J0D01*
G01*
G37*
G36*
G01*
X88405000Y-75075000D02*
X87705000Y-75075000D01*
G75*
G02*
X87455000Y-74825000I0J250000D01*
G01*
X87455000Y-73125000D01*
G75*
G02*
X87705000Y-72875000I250000J0D01*
G01*
X88405000Y-72875000D01*
G75*
G02*
X88655000Y-73125000I0J-250000D01*
G01*
X88655000Y-74825000D01*
G75*
G02*
X88405000Y-75075000I-250000J0D01*
G01*
G37*
G36*
G01*
X83845000Y-75075000D02*
X83145000Y-75075000D01*
G75*
G02*
X82895000Y-74825000I0J250000D01*
G01*
X82895000Y-73125000D01*
G75*
G02*
X83145000Y-72875000I250000J0D01*
G01*
X83845000Y-72875000D01*
G75*
G02*
X84095000Y-73125000I0J-250000D01*
G01*
X84095000Y-74825000D01*
G75*
G02*
X83845000Y-75075000I-250000J0D01*
G01*
G37*
G04 #@! TD*
G04 #@! TO.C,Q3*
G36*
G01*
X91395000Y-59375000D02*
X89145000Y-59375000D01*
G75*
G02*
X88895000Y-59125000I0J250000D01*
G01*
X88895000Y-56575000D01*
G75*
G02*
X89145000Y-56325000I250000J0D01*
G01*
X91395000Y-56325000D01*
G75*
G02*
X91645000Y-56575000I0J-250000D01*
G01*
X91645000Y-59125000D01*
G75*
G02*
X91395000Y-59375000I-250000J0D01*
G01*
G37*
G36*
G01*
X94445000Y-59375000D02*
X92195000Y-59375000D01*
G75*
G02*
X91945000Y-59125000I0J250000D01*
G01*
X91945000Y-56575000D01*
G75*
G02*
X92195000Y-56325000I250000J0D01*
G01*
X94445000Y-56325000D01*
G75*
G02*
X94695000Y-56575000I0J-250000D01*
G01*
X94695000Y-59125000D01*
G75*
G02*
X94445000Y-59375000I-250000J0D01*
G01*
G37*
G36*
G01*
X91395000Y-56025000D02*
X89145000Y-56025000D01*
G75*
G02*
X88895000Y-55775000I0J250000D01*
G01*
X88895000Y-53225000D01*
G75*
G02*
X89145000Y-52975000I250000J0D01*
G01*
X91395000Y-52975000D01*
G75*
G02*
X91645000Y-53225000I0J-250000D01*
G01*
X91645000Y-55775000D01*
G75*
G02*
X91395000Y-56025000I-250000J0D01*
G01*
G37*
G36*
G01*
X94445000Y-56025000D02*
X92195000Y-56025000D01*
G75*
G02*
X91945000Y-55775000I0J250000D01*
G01*
X91945000Y-53225000D01*
G75*
G02*
X92195000Y-52975000I250000J0D01*
G01*
X94445000Y-52975000D01*
G75*
G02*
X94695000Y-53225000I0J-250000D01*
G01*
X94695000Y-55775000D01*
G75*
G02*
X94445000Y-56025000I-250000J0D01*
G01*
G37*
G36*
G01*
X94425000Y-63575000D02*
X93725000Y-63575000D01*
G75*
G02*
X93475000Y-63325000I0J250000D01*
G01*
X93475000Y-61625000D01*
G75*
G02*
X93725000Y-61375000I250000J0D01*
G01*
X94425000Y-61375000D01*
G75*
G02*
X94675000Y-61625000I0J-250000D01*
G01*
X94675000Y-63325000D01*
G75*
G02*
X94425000Y-63575000I-250000J0D01*
G01*
G37*
G36*
G01*
X89865000Y-63575000D02*
X89165000Y-63575000D01*
G75*
G02*
X88915000Y-63325000I0J250000D01*
G01*
X88915000Y-61625000D01*
G75*
G02*
X89165000Y-61375000I250000J0D01*
G01*
X89865000Y-61375000D01*
G75*
G02*
X90115000Y-61625000I0J-250000D01*
G01*
X90115000Y-63325000D01*
G75*
G02*
X89865000Y-63575000I-250000J0D01*
G01*
G37*
G04 #@! TD*
M02*
