G04 #@! TF.GenerationSoftware,KiCad,Pcbnew,9.0.4*
G04 #@! TF.CreationDate,2025-12-07T20:06:33+10:00*
G04 #@! TF.ProjectId,trove8,74726f76-6538-42e6-9b69-6361645f7063,rev?*
G04 #@! TF.SameCoordinates,Original*
G04 #@! TF.FileFunction,Profile,NP*
%FSLAX46Y46*%
G04 Gerber Fmt 4.6, Leading zero omitted, Abs format (unit mm)*
G04 Created by KiCad (PCBNEW 9.0.4) date 2025-12-07 20:06:33*
%MOMM*%
%LPD*%
G01*
G04 APERTURE LIST*
G04 #@! TA.AperFunction,Profile*
%ADD10C,0.050000*%
G04 #@! TD*
G04 APERTURE END LIST*
D10*
X70240000Y-35830000D02*
X72430000Y-35830000D01*
X74550000Y-29500000D02*
X71000000Y-29500000D01*
X163850000Y-35830000D02*
X166049940Y-35830000D01*
X166500000Y-143000000D02*
G75*
G02*
X165000000Y-144500000I-1500000J0D01*
G01*
X69500000Y-31000000D02*
G75*
G02*
X71000000Y-29500000I1500000J0D01*
G01*
X125440000Y-39320000D02*
X123240000Y-39320000D01*
X165000000Y-29500000D02*
G75*
G02*
X166500000Y-31000000I0J-1500000D01*
G01*
X166049940Y-35830000D02*
X166040000Y-40820000D01*
X163850000Y-40820000D02*
X163850000Y-35830000D01*
X76710000Y-29498158D02*
X159550000Y-29500000D01*
X110840000Y-35830000D02*
X113050000Y-35830000D01*
X125440000Y-35830000D02*
X125440000Y-39320000D01*
X72430000Y-40820000D02*
X70240000Y-40820000D01*
X159550000Y-31000000D02*
X161730000Y-31000000D01*
X159550000Y-29500000D02*
X159550000Y-31000000D01*
X165000000Y-144500000D02*
X71000000Y-144500000D01*
X166500000Y-31000000D02*
X166500000Y-143000000D01*
X70240000Y-40820000D02*
X70240000Y-35830000D01*
X71000000Y-144500000D02*
G75*
G02*
X69500000Y-143000000I0J1500000D01*
G01*
X69500000Y-143000000D02*
X69500000Y-31000000D01*
X161730000Y-29498159D02*
X165000000Y-29500000D01*
X113050000Y-39320000D02*
X110840000Y-39320000D01*
X123240000Y-39320000D02*
X123250000Y-35830000D01*
X161730000Y-31000000D02*
X161730000Y-29498159D01*
X110840000Y-39320000D02*
X110840000Y-35830000D01*
X76710000Y-31010000D02*
X76710000Y-29498158D01*
X166040000Y-40820000D02*
X163850000Y-40820000D01*
X123250000Y-35830000D02*
X125440000Y-35830000D01*
X74550000Y-29500000D02*
X74550000Y-31010000D01*
X113050000Y-35830000D02*
X113050000Y-39320000D01*
X72430000Y-35830000D02*
X72430000Y-40820000D01*
X74550000Y-31010000D02*
X76710000Y-31010000D01*
M02*
