G04 #@! TF.GenerationSoftware,KiCad,Pcbnew,9.0.4*
G04 #@! TF.CreationDate,2025-12-07T20:06:33+10:00*
G04 #@! TF.ProjectId,trove8,74726f76-6538-42e6-9b69-6361645f7063,rev?*
G04 #@! TF.SameCoordinates,Original*
G04 #@! TF.FileFunction,Paste,Top*
G04 #@! TF.FilePolarity,Positive*
%FSLAX46Y46*%
G04 Gerber Fmt 4.6, Leading zero omitted, Abs format (unit mm)*
G04 Created by KiCad (PCBNEW 9.0.4) date 2025-12-07 20:06:33*
%MOMM*%
%LPD*%
G01*
G04 APERTURE LIST*
%ADD10O,0.000001X0.000001*%
%ADD11R,0.300000X1.150000*%
%ADD12O,0.250000X0.500000*%
%ADD13O,0.500000X0.250000*%
%ADD14R,0.800000X1.500000*%
%ADD15R,0.375000X0.350000*%
%ADD16R,0.350000X0.375000*%
G04 APERTURE END LIST*
G04 #@! TO.C,D2*
G36*
G01*
X116990000Y-59900000D02*
X118010000Y-59900000D01*
G75*
G02*
X118100000Y-59990000I0J-90000D01*
G01*
X118100000Y-60710000D01*
G75*
G02*
X118010000Y-60800000I-90000J0D01*
G01*
X116990000Y-60800000D01*
G75*
G02*
X116900000Y-60710000I0J90000D01*
G01*
X116900000Y-59990000D01*
G75*
G02*
X116990000Y-59900000I90000J0D01*
G01*
G37*
G36*
G01*
X116990000Y-63200000D02*
X118010000Y-63200000D01*
G75*
G02*
X118100000Y-63290000I0J-90000D01*
G01*
X118100000Y-64010000D01*
G75*
G02*
X118010000Y-64100000I-90000J0D01*
G01*
X116990000Y-64100000D01*
G75*
G02*
X116900000Y-64010000I0J90000D01*
G01*
X116900000Y-63290000D01*
G75*
G02*
X116990000Y-63200000I90000J0D01*
G01*
G37*
G04 #@! TD*
G04 #@! TO.C,D7*
G36*
G01*
X156325000Y-122200000D02*
X156325000Y-121900000D01*
G75*
G02*
X156475000Y-121750000I150000J0D01*
G01*
X157650000Y-121750000D01*
G75*
G02*
X157800000Y-121900000I0J-150000D01*
G01*
X157800000Y-122200000D01*
G75*
G02*
X157650000Y-122350000I-150000J0D01*
G01*
X156475000Y-122350000D01*
G75*
G02*
X156325000Y-122200000I0J150000D01*
G01*
G37*
G36*
G01*
X156325000Y-124100000D02*
X156325000Y-123800000D01*
G75*
G02*
X156475000Y-123650000I150000J0D01*
G01*
X157650000Y-123650000D01*
G75*
G02*
X157800000Y-123800000I0J-150000D01*
G01*
X157800000Y-124100000D01*
G75*
G02*
X157650000Y-124250000I-150000J0D01*
G01*
X156475000Y-124250000D01*
G75*
G02*
X156325000Y-124100000I0J150000D01*
G01*
G37*
G36*
G01*
X158200000Y-123150000D02*
X158200000Y-122850000D01*
G75*
G02*
X158350000Y-122700000I150000J0D01*
G01*
X159525000Y-122700000D01*
G75*
G02*
X159675000Y-122850000I0J-150000D01*
G01*
X159675000Y-123150000D01*
G75*
G02*
X159525000Y-123300000I-150000J0D01*
G01*
X158350000Y-123300000D01*
G75*
G02*
X158200000Y-123150000I0J150000D01*
G01*
G37*
G04 #@! TD*
G04 #@! TO.C,R10*
G36*
G01*
X80685000Y-117520000D02*
X80315000Y-117520000D01*
G75*
G02*
X80180000Y-117385000I0J135000D01*
G01*
X80180000Y-117115000D01*
G75*
G02*
X80315000Y-116980000I135000J0D01*
G01*
X80685000Y-116980000D01*
G75*
G02*
X80820000Y-117115000I0J-135000D01*
G01*
X80820000Y-117385000D01*
G75*
G02*
X80685000Y-117520000I-135000J0D01*
G01*
G37*
G36*
G01*
X80685000Y-116500000D02*
X80315000Y-116500000D01*
G75*
G02*
X80180000Y-116365000I0J135000D01*
G01*
X80180000Y-116095000D01*
G75*
G02*
X80315000Y-115960000I135000J0D01*
G01*
X80685000Y-115960000D01*
G75*
G02*
X80820000Y-116095000I0J-135000D01*
G01*
X80820000Y-116365000D01*
G75*
G02*
X80685000Y-116500000I-135000J0D01*
G01*
G37*
G04 #@! TD*
G04 #@! TO.C,U10*
G36*
G01*
X114845000Y-76900000D02*
X114545000Y-76900000D01*
G75*
G02*
X114395000Y-76750000I0J150000D01*
G01*
X114395000Y-75100000D01*
G75*
G02*
X114545000Y-74950000I150000J0D01*
G01*
X114845000Y-74950000D01*
G75*
G02*
X114995000Y-75100000I0J-150000D01*
G01*
X114995000Y-76750000D01*
G75*
G02*
X114845000Y-76900000I-150000J0D01*
G01*
G37*
G36*
G01*
X116115000Y-76900000D02*
X115815000Y-76900000D01*
G75*
G02*
X115665000Y-76750000I0J150000D01*
G01*
X115665000Y-75100000D01*
G75*
G02*
X115815000Y-74950000I150000J0D01*
G01*
X116115000Y-74950000D01*
G75*
G02*
X116265000Y-75100000I0J-150000D01*
G01*
X116265000Y-76750000D01*
G75*
G02*
X116115000Y-76900000I-150000J0D01*
G01*
G37*
G36*
G01*
X117385000Y-76900000D02*
X117085000Y-76900000D01*
G75*
G02*
X116935000Y-76750000I0J150000D01*
G01*
X116935000Y-75100000D01*
G75*
G02*
X117085000Y-74950000I150000J0D01*
G01*
X117385000Y-74950000D01*
G75*
G02*
X117535000Y-75100000I0J-150000D01*
G01*
X117535000Y-76750000D01*
G75*
G02*
X117385000Y-76900000I-150000J0D01*
G01*
G37*
G36*
G01*
X118655000Y-76900000D02*
X118355000Y-76900000D01*
G75*
G02*
X118205000Y-76750000I0J150000D01*
G01*
X118205000Y-75100000D01*
G75*
G02*
X118355000Y-74950000I150000J0D01*
G01*
X118655000Y-74950000D01*
G75*
G02*
X118805000Y-75100000I0J-150000D01*
G01*
X118805000Y-76750000D01*
G75*
G02*
X118655000Y-76900000I-150000J0D01*
G01*
G37*
G36*
G01*
X118655000Y-71950000D02*
X118355000Y-71950000D01*
G75*
G02*
X118205000Y-71800000I0J150000D01*
G01*
X118205000Y-70150000D01*
G75*
G02*
X118355000Y-70000000I150000J0D01*
G01*
X118655000Y-70000000D01*
G75*
G02*
X118805000Y-70150000I0J-150000D01*
G01*
X118805000Y-71800000D01*
G75*
G02*
X118655000Y-71950000I-150000J0D01*
G01*
G37*
G36*
G01*
X117385000Y-71950000D02*
X117085000Y-71950000D01*
G75*
G02*
X116935000Y-71800000I0J150000D01*
G01*
X116935000Y-70150000D01*
G75*
G02*
X117085000Y-70000000I150000J0D01*
G01*
X117385000Y-70000000D01*
G75*
G02*
X117535000Y-70150000I0J-150000D01*
G01*
X117535000Y-71800000D01*
G75*
G02*
X117385000Y-71950000I-150000J0D01*
G01*
G37*
G36*
G01*
X116115000Y-71950000D02*
X115815000Y-71950000D01*
G75*
G02*
X115665000Y-71800000I0J150000D01*
G01*
X115665000Y-70150000D01*
G75*
G02*
X115815000Y-70000000I150000J0D01*
G01*
X116115000Y-70000000D01*
G75*
G02*
X116265000Y-70150000I0J-150000D01*
G01*
X116265000Y-71800000D01*
G75*
G02*
X116115000Y-71950000I-150000J0D01*
G01*
G37*
G36*
G01*
X114845000Y-71950000D02*
X114545000Y-71950000D01*
G75*
G02*
X114395000Y-71800000I0J150000D01*
G01*
X114395000Y-70150000D01*
G75*
G02*
X114545000Y-70000000I150000J0D01*
G01*
X114845000Y-70000000D01*
G75*
G02*
X114995000Y-70150000I0J-150000D01*
G01*
X114995000Y-71800000D01*
G75*
G02*
X114845000Y-71950000I-150000J0D01*
G01*
G37*
G04 #@! TD*
G04 #@! TO.C,C3*
G36*
G01*
X106750000Y-112475000D02*
X106250000Y-112475000D01*
G75*
G02*
X106025000Y-112250000I0J225000D01*
G01*
X106025000Y-111800000D01*
G75*
G02*
X106250000Y-111575000I225000J0D01*
G01*
X106750000Y-111575000D01*
G75*
G02*
X106975000Y-111800000I0J-225000D01*
G01*
X106975000Y-112250000D01*
G75*
G02*
X106750000Y-112475000I-225000J0D01*
G01*
G37*
G36*
G01*
X106750000Y-110925000D02*
X106250000Y-110925000D01*
G75*
G02*
X106025000Y-110700000I0J225000D01*
G01*
X106025000Y-110250000D01*
G75*
G02*
X106250000Y-110025000I225000J0D01*
G01*
X106750000Y-110025000D01*
G75*
G02*
X106975000Y-110250000I0J-225000D01*
G01*
X106975000Y-110700000D01*
G75*
G02*
X106750000Y-110925000I-225000J0D01*
G01*
G37*
G04 #@! TD*
G04 #@! TO.C,R22*
G36*
G01*
X94875000Y-72487500D02*
X93625000Y-72487500D01*
G75*
G02*
X93375000Y-72237500I0J250000D01*
G01*
X93375000Y-71612500D01*
G75*
G02*
X93625000Y-71362500I250000J0D01*
G01*
X94875000Y-71362500D01*
G75*
G02*
X95125000Y-71612500I0J-250000D01*
G01*
X95125000Y-72237500D01*
G75*
G02*
X94875000Y-72487500I-250000J0D01*
G01*
G37*
G36*
G01*
X94875000Y-69562500D02*
X93625000Y-69562500D01*
G75*
G02*
X93375000Y-69312500I0J250000D01*
G01*
X93375000Y-68687500D01*
G75*
G02*
X93625000Y-68437500I250000J0D01*
G01*
X94875000Y-68437500D01*
G75*
G02*
X95125000Y-68687500I0J-250000D01*
G01*
X95125000Y-69312500D01*
G75*
G02*
X94875000Y-69562500I-250000J0D01*
G01*
G37*
G04 #@! TD*
G04 #@! TO.C,F10*
G36*
G01*
X74993750Y-112487500D02*
X75506250Y-112487500D01*
G75*
G02*
X75725000Y-112706250I0J-218750D01*
G01*
X75725000Y-113143750D01*
G75*
G02*
X75506250Y-113362500I-218750J0D01*
G01*
X74993750Y-113362500D01*
G75*
G02*
X74775000Y-113143750I0J218750D01*
G01*
X74775000Y-112706250D01*
G75*
G02*
X74993750Y-112487500I218750J0D01*
G01*
G37*
G36*
G01*
X74993750Y-114062500D02*
X75506250Y-114062500D01*
G75*
G02*
X75725000Y-114281250I0J-218750D01*
G01*
X75725000Y-114718750D01*
G75*
G02*
X75506250Y-114937500I-218750J0D01*
G01*
X74993750Y-114937500D01*
G75*
G02*
X74775000Y-114718750I0J218750D01*
G01*
X74775000Y-114281250D01*
G75*
G02*
X74993750Y-114062500I218750J0D01*
G01*
G37*
G04 #@! TD*
G04 #@! TO.C,R38*
G36*
G01*
X125000000Y-77560000D02*
X125000000Y-78340000D01*
G75*
G02*
X124930000Y-78410000I-70000J0D01*
G01*
X124370000Y-78410000D01*
G75*
G02*
X124300000Y-78340000I0J70000D01*
G01*
X124300000Y-77560000D01*
G75*
G02*
X124370000Y-77490000I70000J0D01*
G01*
X124930000Y-77490000D01*
G75*
G02*
X125000000Y-77560000I0J-70000D01*
G01*
G37*
G36*
G01*
X123400000Y-77560000D02*
X123400000Y-78340000D01*
G75*
G02*
X123330000Y-78410000I-70000J0D01*
G01*
X122770000Y-78410000D01*
G75*
G02*
X122700000Y-78340000I0J70000D01*
G01*
X122700000Y-77560000D01*
G75*
G02*
X122770000Y-77490000I70000J0D01*
G01*
X123330000Y-77490000D01*
G75*
G02*
X123400000Y-77560000I0J-70000D01*
G01*
G37*
G04 #@! TD*
G04 #@! TO.C,R29*
G36*
G01*
X85750000Y-87760000D02*
X85750000Y-88540000D01*
G75*
G02*
X85680000Y-88610000I-70000J0D01*
G01*
X85120000Y-88610000D01*
G75*
G02*
X85050000Y-88540000I0J70000D01*
G01*
X85050000Y-87760000D01*
G75*
G02*
X85120000Y-87690000I70000J0D01*
G01*
X85680000Y-87690000D01*
G75*
G02*
X85750000Y-87760000I0J-70000D01*
G01*
G37*
G36*
G01*
X84150000Y-87760000D02*
X84150000Y-88540000D01*
G75*
G02*
X84080000Y-88610000I-70000J0D01*
G01*
X83520000Y-88610000D01*
G75*
G02*
X83450000Y-88540000I0J70000D01*
G01*
X83450000Y-87760000D01*
G75*
G02*
X83520000Y-87690000I70000J0D01*
G01*
X84080000Y-87690000D01*
G75*
G02*
X84150000Y-87760000I0J-70000D01*
G01*
G37*
G04 #@! TD*
G04 #@! TO.C,R11*
G36*
G01*
X78685000Y-117520000D02*
X78315000Y-117520000D01*
G75*
G02*
X78180000Y-117385000I0J135000D01*
G01*
X78180000Y-117115000D01*
G75*
G02*
X78315000Y-116980000I135000J0D01*
G01*
X78685000Y-116980000D01*
G75*
G02*
X78820000Y-117115000I0J-135000D01*
G01*
X78820000Y-117385000D01*
G75*
G02*
X78685000Y-117520000I-135000J0D01*
G01*
G37*
G36*
G01*
X78685000Y-116500000D02*
X78315000Y-116500000D01*
G75*
G02*
X78180000Y-116365000I0J135000D01*
G01*
X78180000Y-116095000D01*
G75*
G02*
X78315000Y-115960000I135000J0D01*
G01*
X78685000Y-115960000D01*
G75*
G02*
X78820000Y-116095000I0J-135000D01*
G01*
X78820000Y-116365000D01*
G75*
G02*
X78685000Y-116500000I-135000J0D01*
G01*
G37*
G04 #@! TD*
G04 #@! TO.C,C10*
G36*
G01*
X83920000Y-125530000D02*
X83580000Y-125530000D01*
G75*
G02*
X83440000Y-125390000I0J140000D01*
G01*
X83440000Y-125110000D01*
G75*
G02*
X83580000Y-124970000I140000J0D01*
G01*
X83920000Y-124970000D01*
G75*
G02*
X84060000Y-125110000I0J-140000D01*
G01*
X84060000Y-125390000D01*
G75*
G02*
X83920000Y-125530000I-140000J0D01*
G01*
G37*
G36*
G01*
X83920000Y-124570000D02*
X83580000Y-124570000D01*
G75*
G02*
X83440000Y-124430000I0J140000D01*
G01*
X83440000Y-124150000D01*
G75*
G02*
X83580000Y-124010000I140000J0D01*
G01*
X83920000Y-124010000D01*
G75*
G02*
X84060000Y-124150000I0J-140000D01*
G01*
X84060000Y-124430000D01*
G75*
G02*
X83920000Y-124570000I-140000J0D01*
G01*
G37*
G04 #@! TD*
G04 #@! TO.C,R15*
G36*
G01*
X92375000Y-61562500D02*
X91125000Y-61562500D01*
G75*
G02*
X90875000Y-61312500I0J250000D01*
G01*
X90875000Y-60687500D01*
G75*
G02*
X91125000Y-60437500I250000J0D01*
G01*
X92375000Y-60437500D01*
G75*
G02*
X92625000Y-60687500I0J-250000D01*
G01*
X92625000Y-61312500D01*
G75*
G02*
X92375000Y-61562500I-250000J0D01*
G01*
G37*
G36*
G01*
X92375000Y-58637500D02*
X91125000Y-58637500D01*
G75*
G02*
X90875000Y-58387500I0J250000D01*
G01*
X90875000Y-57762500D01*
G75*
G02*
X91125000Y-57512500I250000J0D01*
G01*
X92375000Y-57512500D01*
G75*
G02*
X92625000Y-57762500I0J-250000D01*
G01*
X92625000Y-58387500D01*
G75*
G02*
X92375000Y-58637500I-250000J0D01*
G01*
G37*
G04 #@! TD*
G04 #@! TO.C,R39*
G36*
G01*
X113950000Y-78340000D02*
X113950000Y-77560000D01*
G75*
G02*
X114020000Y-77490000I70000J0D01*
G01*
X114580000Y-77490000D01*
G75*
G02*
X114650000Y-77560000I0J-70000D01*
G01*
X114650000Y-78340000D01*
G75*
G02*
X114580000Y-78410000I-70000J0D01*
G01*
X114020000Y-78410000D01*
G75*
G02*
X113950000Y-78340000I0J70000D01*
G01*
G37*
G36*
G01*
X115550000Y-78340000D02*
X115550000Y-77560000D01*
G75*
G02*
X115620000Y-77490000I70000J0D01*
G01*
X116180000Y-77490000D01*
G75*
G02*
X116250000Y-77560000I0J-70000D01*
G01*
X116250000Y-78340000D01*
G75*
G02*
X116180000Y-78410000I-70000J0D01*
G01*
X115620000Y-78410000D01*
G75*
G02*
X115550000Y-78340000I0J70000D01*
G01*
G37*
G04 #@! TD*
G04 #@! TO.C,R8*
G36*
G01*
X75685000Y-117520000D02*
X75315000Y-117520000D01*
G75*
G02*
X75180000Y-117385000I0J135000D01*
G01*
X75180000Y-117115000D01*
G75*
G02*
X75315000Y-116980000I135000J0D01*
G01*
X75685000Y-116980000D01*
G75*
G02*
X75820000Y-117115000I0J-135000D01*
G01*
X75820000Y-117385000D01*
G75*
G02*
X75685000Y-117520000I-135000J0D01*
G01*
G37*
G36*
G01*
X75685000Y-116500000D02*
X75315000Y-116500000D01*
G75*
G02*
X75180000Y-116365000I0J135000D01*
G01*
X75180000Y-116095000D01*
G75*
G02*
X75315000Y-115960000I135000J0D01*
G01*
X75685000Y-115960000D01*
G75*
G02*
X75820000Y-116095000I0J-135000D01*
G01*
X75820000Y-116365000D01*
G75*
G02*
X75685000Y-116500000I-135000J0D01*
G01*
G37*
G04 #@! TD*
D10*
G04 #@! TO.C,M5*
X137637503Y-137856813D03*
X122762501Y-141262524D03*
X98942505Y-137312509D03*
X98942500Y-139212510D03*
X135937486Y-135854836D03*
G04 #@! TD*
G04 #@! TO.C,F7*
G36*
G01*
X81243750Y-112487500D02*
X81756250Y-112487500D01*
G75*
G02*
X81975000Y-112706250I0J-218750D01*
G01*
X81975000Y-113143750D01*
G75*
G02*
X81756250Y-113362500I-218750J0D01*
G01*
X81243750Y-113362500D01*
G75*
G02*
X81025000Y-113143750I0J218750D01*
G01*
X81025000Y-112706250D01*
G75*
G02*
X81243750Y-112487500I218750J0D01*
G01*
G37*
G36*
G01*
X81243750Y-114062500D02*
X81756250Y-114062500D01*
G75*
G02*
X81975000Y-114281250I0J-218750D01*
G01*
X81975000Y-114718750D01*
G75*
G02*
X81756250Y-114937500I-218750J0D01*
G01*
X81243750Y-114937500D01*
G75*
G02*
X81025000Y-114718750I0J218750D01*
G01*
X81025000Y-114281250D01*
G75*
G02*
X81243750Y-114062500I218750J0D01*
G01*
G37*
G04 #@! TD*
G04 #@! TO.C,U11*
G36*
G01*
X120845000Y-76900000D02*
X120545000Y-76900000D01*
G75*
G02*
X120395000Y-76750000I0J150000D01*
G01*
X120395000Y-75100000D01*
G75*
G02*
X120545000Y-74950000I150000J0D01*
G01*
X120845000Y-74950000D01*
G75*
G02*
X120995000Y-75100000I0J-150000D01*
G01*
X120995000Y-76750000D01*
G75*
G02*
X120845000Y-76900000I-150000J0D01*
G01*
G37*
G36*
G01*
X122115000Y-76900000D02*
X121815000Y-76900000D01*
G75*
G02*
X121665000Y-76750000I0J150000D01*
G01*
X121665000Y-75100000D01*
G75*
G02*
X121815000Y-74950000I150000J0D01*
G01*
X122115000Y-74950000D01*
G75*
G02*
X122265000Y-75100000I0J-150000D01*
G01*
X122265000Y-76750000D01*
G75*
G02*
X122115000Y-76900000I-150000J0D01*
G01*
G37*
G36*
G01*
X123385000Y-76900000D02*
X123085000Y-76900000D01*
G75*
G02*
X122935000Y-76750000I0J150000D01*
G01*
X122935000Y-75100000D01*
G75*
G02*
X123085000Y-74950000I150000J0D01*
G01*
X123385000Y-74950000D01*
G75*
G02*
X123535000Y-75100000I0J-150000D01*
G01*
X123535000Y-76750000D01*
G75*
G02*
X123385000Y-76900000I-150000J0D01*
G01*
G37*
G36*
G01*
X124655000Y-76900000D02*
X124355000Y-76900000D01*
G75*
G02*
X124205000Y-76750000I0J150000D01*
G01*
X124205000Y-75100000D01*
G75*
G02*
X124355000Y-74950000I150000J0D01*
G01*
X124655000Y-74950000D01*
G75*
G02*
X124805000Y-75100000I0J-150000D01*
G01*
X124805000Y-76750000D01*
G75*
G02*
X124655000Y-76900000I-150000J0D01*
G01*
G37*
G36*
G01*
X124655000Y-71950000D02*
X124355000Y-71950000D01*
G75*
G02*
X124205000Y-71800000I0J150000D01*
G01*
X124205000Y-70150000D01*
G75*
G02*
X124355000Y-70000000I150000J0D01*
G01*
X124655000Y-70000000D01*
G75*
G02*
X124805000Y-70150000I0J-150000D01*
G01*
X124805000Y-71800000D01*
G75*
G02*
X124655000Y-71950000I-150000J0D01*
G01*
G37*
G36*
G01*
X123385000Y-71950000D02*
X123085000Y-71950000D01*
G75*
G02*
X122935000Y-71800000I0J150000D01*
G01*
X122935000Y-70150000D01*
G75*
G02*
X123085000Y-70000000I150000J0D01*
G01*
X123385000Y-70000000D01*
G75*
G02*
X123535000Y-70150000I0J-150000D01*
G01*
X123535000Y-71800000D01*
G75*
G02*
X123385000Y-71950000I-150000J0D01*
G01*
G37*
G36*
G01*
X122115000Y-71950000D02*
X121815000Y-71950000D01*
G75*
G02*
X121665000Y-71800000I0J150000D01*
G01*
X121665000Y-70150000D01*
G75*
G02*
X121815000Y-70000000I150000J0D01*
G01*
X122115000Y-70000000D01*
G75*
G02*
X122265000Y-70150000I0J-150000D01*
G01*
X122265000Y-71800000D01*
G75*
G02*
X122115000Y-71950000I-150000J0D01*
G01*
G37*
G36*
G01*
X120845000Y-71950000D02*
X120545000Y-71950000D01*
G75*
G02*
X120395000Y-71800000I0J150000D01*
G01*
X120395000Y-70150000D01*
G75*
G02*
X120545000Y-70000000I150000J0D01*
G01*
X120845000Y-70000000D01*
G75*
G02*
X120995000Y-70150000I0J-150000D01*
G01*
X120995000Y-71800000D01*
G75*
G02*
X120845000Y-71950000I-150000J0D01*
G01*
G37*
G04 #@! TD*
G04 #@! TO.C,M2*
X141000000Y-136750000D03*
X141085201Y-131247435D03*
X150325005Y-129825000D03*
G36*
G01*
X149824996Y-126825003D02*
X149824996Y-126825003D01*
X149824996Y-126825003D01*
X149824996Y-126825003D01*
X149824996Y-126825003D01*
G37*
G04 #@! TD*
G04 #@! TO.C,D3*
G36*
G01*
X123760000Y-58850000D02*
X122740000Y-58850000D01*
G75*
G02*
X122650000Y-58760000I0J90000D01*
G01*
X122650000Y-58040000D01*
G75*
G02*
X122740000Y-57950000I90000J0D01*
G01*
X123760000Y-57950000D01*
G75*
G02*
X123850000Y-58040000I0J-90000D01*
G01*
X123850000Y-58760000D01*
G75*
G02*
X123760000Y-58850000I-90000J0D01*
G01*
G37*
G36*
G01*
X123760000Y-55550000D02*
X122740000Y-55550000D01*
G75*
G02*
X122650000Y-55460000I0J90000D01*
G01*
X122650000Y-54740000D01*
G75*
G02*
X122740000Y-54650000I90000J0D01*
G01*
X123760000Y-54650000D01*
G75*
G02*
X123850000Y-54740000I0J-90000D01*
G01*
X123850000Y-55460000D01*
G75*
G02*
X123760000Y-55550000I-90000J0D01*
G01*
G37*
G04 #@! TD*
G04 #@! TO.C,R19*
G36*
G01*
X93950000Y-62110000D02*
X93950000Y-62890000D01*
G75*
G02*
X93880000Y-62960000I-70000J0D01*
G01*
X93320000Y-62960000D01*
G75*
G02*
X93250000Y-62890000I0J70000D01*
G01*
X93250000Y-62110000D01*
G75*
G02*
X93320000Y-62040000I70000J0D01*
G01*
X93880000Y-62040000D01*
G75*
G02*
X93950000Y-62110000I0J-70000D01*
G01*
G37*
G36*
G01*
X92350000Y-62110000D02*
X92350000Y-62890000D01*
G75*
G02*
X92280000Y-62960000I-70000J0D01*
G01*
X91720000Y-62960000D01*
G75*
G02*
X91650000Y-62890000I0J70000D01*
G01*
X91650000Y-62110000D01*
G75*
G02*
X91720000Y-62040000I70000J0D01*
G01*
X92280000Y-62040000D01*
G75*
G02*
X92350000Y-62110000I0J-70000D01*
G01*
G37*
G04 #@! TD*
G04 #@! TO.C,C9*
G36*
G01*
X147920000Y-124010000D02*
X147580000Y-124010000D01*
G75*
G02*
X147440000Y-123870000I0J140000D01*
G01*
X147440000Y-123590000D01*
G75*
G02*
X147580000Y-123450000I140000J0D01*
G01*
X147920000Y-123450000D01*
G75*
G02*
X148060000Y-123590000I0J-140000D01*
G01*
X148060000Y-123870000D01*
G75*
G02*
X147920000Y-124010000I-140000J0D01*
G01*
G37*
G36*
G01*
X147920000Y-123050000D02*
X147580000Y-123050000D01*
G75*
G02*
X147440000Y-122910000I0J140000D01*
G01*
X147440000Y-122630000D01*
G75*
G02*
X147580000Y-122490000I140000J0D01*
G01*
X147920000Y-122490000D01*
G75*
G02*
X148060000Y-122630000I0J-140000D01*
G01*
X148060000Y-122910000D01*
G75*
G02*
X147920000Y-123050000I-140000J0D01*
G01*
G37*
G04 #@! TD*
G04 #@! TO.C,R21*
G36*
G01*
X102625000Y-72562500D02*
X101375000Y-72562500D01*
G75*
G02*
X101125000Y-72312500I0J250000D01*
G01*
X101125000Y-71687500D01*
G75*
G02*
X101375000Y-71437500I250000J0D01*
G01*
X102625000Y-71437500D01*
G75*
G02*
X102875000Y-71687500I0J-250000D01*
G01*
X102875000Y-72312500D01*
G75*
G02*
X102625000Y-72562500I-250000J0D01*
G01*
G37*
G36*
G01*
X102625000Y-69637500D02*
X101375000Y-69637500D01*
G75*
G02*
X101125000Y-69387500I0J250000D01*
G01*
X101125000Y-68762500D01*
G75*
G02*
X101375000Y-68512500I250000J0D01*
G01*
X102625000Y-68512500D01*
G75*
G02*
X102875000Y-68762500I0J-250000D01*
G01*
X102875000Y-69387500D01*
G75*
G02*
X102625000Y-69637500I-250000J0D01*
G01*
G37*
G04 #@! TD*
G04 #@! TO.C,R37*
G36*
G01*
X119250000Y-77560000D02*
X119250000Y-78340000D01*
G75*
G02*
X119180000Y-78410000I-70000J0D01*
G01*
X118620000Y-78410000D01*
G75*
G02*
X118550000Y-78340000I0J70000D01*
G01*
X118550000Y-77560000D01*
G75*
G02*
X118620000Y-77490000I70000J0D01*
G01*
X119180000Y-77490000D01*
G75*
G02*
X119250000Y-77560000I0J-70000D01*
G01*
G37*
G36*
G01*
X117650000Y-77560000D02*
X117650000Y-78340000D01*
G75*
G02*
X117580000Y-78410000I-70000J0D01*
G01*
X117020000Y-78410000D01*
G75*
G02*
X116950000Y-78340000I0J70000D01*
G01*
X116950000Y-77560000D01*
G75*
G02*
X117020000Y-77490000I70000J0D01*
G01*
X117580000Y-77490000D01*
G75*
G02*
X117650000Y-77560000I0J-70000D01*
G01*
G37*
G04 #@! TD*
G04 #@! TO.C,F8*
G36*
G01*
X78993750Y-112487500D02*
X79506250Y-112487500D01*
G75*
G02*
X79725000Y-112706250I0J-218750D01*
G01*
X79725000Y-113143750D01*
G75*
G02*
X79506250Y-113362500I-218750J0D01*
G01*
X78993750Y-113362500D01*
G75*
G02*
X78775000Y-113143750I0J218750D01*
G01*
X78775000Y-112706250D01*
G75*
G02*
X78993750Y-112487500I218750J0D01*
G01*
G37*
G36*
G01*
X78993750Y-114062500D02*
X79506250Y-114062500D01*
G75*
G02*
X79725000Y-114281250I0J-218750D01*
G01*
X79725000Y-114718750D01*
G75*
G02*
X79506250Y-114937500I-218750J0D01*
G01*
X78993750Y-114937500D01*
G75*
G02*
X78775000Y-114718750I0J218750D01*
G01*
X78775000Y-114281250D01*
G75*
G02*
X78993750Y-114062500I218750J0D01*
G01*
G37*
G04 #@! TD*
G04 #@! TO.C,U7*
G36*
G01*
X87395000Y-87100000D02*
X87095000Y-87100000D01*
G75*
G02*
X86945000Y-86950000I0J150000D01*
G01*
X86945000Y-85300000D01*
G75*
G02*
X87095000Y-85150000I150000J0D01*
G01*
X87395000Y-85150000D01*
G75*
G02*
X87545000Y-85300000I0J-150000D01*
G01*
X87545000Y-86950000D01*
G75*
G02*
X87395000Y-87100000I-150000J0D01*
G01*
G37*
G36*
G01*
X88665000Y-87100000D02*
X88365000Y-87100000D01*
G75*
G02*
X88215000Y-86950000I0J150000D01*
G01*
X88215000Y-85300000D01*
G75*
G02*
X88365000Y-85150000I150000J0D01*
G01*
X88665000Y-85150000D01*
G75*
G02*
X88815000Y-85300000I0J-150000D01*
G01*
X88815000Y-86950000D01*
G75*
G02*
X88665000Y-87100000I-150000J0D01*
G01*
G37*
G36*
G01*
X89935000Y-87100000D02*
X89635000Y-87100000D01*
G75*
G02*
X89485000Y-86950000I0J150000D01*
G01*
X89485000Y-85300000D01*
G75*
G02*
X89635000Y-85150000I150000J0D01*
G01*
X89935000Y-85150000D01*
G75*
G02*
X90085000Y-85300000I0J-150000D01*
G01*
X90085000Y-86950000D01*
G75*
G02*
X89935000Y-87100000I-150000J0D01*
G01*
G37*
G36*
G01*
X91205000Y-87100000D02*
X90905000Y-87100000D01*
G75*
G02*
X90755000Y-86950000I0J150000D01*
G01*
X90755000Y-85300000D01*
G75*
G02*
X90905000Y-85150000I150000J0D01*
G01*
X91205000Y-85150000D01*
G75*
G02*
X91355000Y-85300000I0J-150000D01*
G01*
X91355000Y-86950000D01*
G75*
G02*
X91205000Y-87100000I-150000J0D01*
G01*
G37*
G36*
G01*
X91205000Y-82150000D02*
X90905000Y-82150000D01*
G75*
G02*
X90755000Y-82000000I0J150000D01*
G01*
X90755000Y-80350000D01*
G75*
G02*
X90905000Y-80200000I150000J0D01*
G01*
X91205000Y-80200000D01*
G75*
G02*
X91355000Y-80350000I0J-150000D01*
G01*
X91355000Y-82000000D01*
G75*
G02*
X91205000Y-82150000I-150000J0D01*
G01*
G37*
G36*
G01*
X89935000Y-82150000D02*
X89635000Y-82150000D01*
G75*
G02*
X89485000Y-82000000I0J150000D01*
G01*
X89485000Y-80350000D01*
G75*
G02*
X89635000Y-80200000I150000J0D01*
G01*
X89935000Y-80200000D01*
G75*
G02*
X90085000Y-80350000I0J-150000D01*
G01*
X90085000Y-82000000D01*
G75*
G02*
X89935000Y-82150000I-150000J0D01*
G01*
G37*
G36*
G01*
X88665000Y-82150000D02*
X88365000Y-82150000D01*
G75*
G02*
X88215000Y-82000000I0J150000D01*
G01*
X88215000Y-80350000D01*
G75*
G02*
X88365000Y-80200000I150000J0D01*
G01*
X88665000Y-80200000D01*
G75*
G02*
X88815000Y-80350000I0J-150000D01*
G01*
X88815000Y-82000000D01*
G75*
G02*
X88665000Y-82150000I-150000J0D01*
G01*
G37*
G36*
G01*
X87395000Y-82150000D02*
X87095000Y-82150000D01*
G75*
G02*
X86945000Y-82000000I0J150000D01*
G01*
X86945000Y-80350000D01*
G75*
G02*
X87095000Y-80200000I150000J0D01*
G01*
X87395000Y-80200000D01*
G75*
G02*
X87545000Y-80350000I0J-150000D01*
G01*
X87545000Y-82000000D01*
G75*
G02*
X87395000Y-82150000I-150000J0D01*
G01*
G37*
G04 #@! TD*
G04 #@! TO.C,R27*
G36*
G01*
X87700000Y-73610000D02*
X87700000Y-74390000D01*
G75*
G02*
X87630000Y-74460000I-70000J0D01*
G01*
X87070000Y-74460000D01*
G75*
G02*
X87000000Y-74390000I0J70000D01*
G01*
X87000000Y-73610000D01*
G75*
G02*
X87070000Y-73540000I70000J0D01*
G01*
X87630000Y-73540000D01*
G75*
G02*
X87700000Y-73610000I0J-70000D01*
G01*
G37*
G36*
G01*
X86100000Y-73610000D02*
X86100000Y-74390000D01*
G75*
G02*
X86030000Y-74460000I-70000J0D01*
G01*
X85470000Y-74460000D01*
G75*
G02*
X85400000Y-74390000I0J70000D01*
G01*
X85400000Y-73610000D01*
G75*
G02*
X85470000Y-73540000I70000J0D01*
G01*
X86030000Y-73540000D01*
G75*
G02*
X86100000Y-73610000I0J-70000D01*
G01*
G37*
G04 #@! TD*
G04 #@! TO.C,R1*
G36*
G01*
X88775000Y-115150000D02*
X88225000Y-115150000D01*
G75*
G02*
X88025000Y-114950000I0J200000D01*
G01*
X88025000Y-114550000D01*
G75*
G02*
X88225000Y-114350000I200000J0D01*
G01*
X88775000Y-114350000D01*
G75*
G02*
X88975000Y-114550000I0J-200000D01*
G01*
X88975000Y-114950000D01*
G75*
G02*
X88775000Y-115150000I-200000J0D01*
G01*
G37*
G36*
G01*
X88775000Y-113500000D02*
X88225000Y-113500000D01*
G75*
G02*
X88025000Y-113300000I0J200000D01*
G01*
X88025000Y-112900000D01*
G75*
G02*
X88225000Y-112700000I200000J0D01*
G01*
X88775000Y-112700000D01*
G75*
G02*
X88975000Y-112900000I0J-200000D01*
G01*
X88975000Y-113300000D01*
G75*
G02*
X88775000Y-113500000I-200000J0D01*
G01*
G37*
G04 #@! TD*
G04 #@! TO.C,C1*
G36*
G01*
X126340000Y-127755002D02*
X125660000Y-127755002D01*
G75*
G02*
X125575000Y-127670002I0J85000D01*
G01*
X125575000Y-126990002D01*
G75*
G02*
X125660000Y-126905002I85000J0D01*
G01*
X126340000Y-126905002D01*
G75*
G02*
X126425000Y-126990002I0J-85000D01*
G01*
X126425000Y-127670002D01*
G75*
G02*
X126340000Y-127755002I-85000J0D01*
G01*
G37*
G36*
G01*
X126340000Y-126175000D02*
X125660000Y-126175000D01*
G75*
G02*
X125575000Y-126090000I0J85000D01*
G01*
X125575000Y-125410000D01*
G75*
G02*
X125660000Y-125325000I85000J0D01*
G01*
X126340000Y-125325000D01*
G75*
G02*
X126425000Y-125410000I0J-85000D01*
G01*
X126425000Y-126090000D01*
G75*
G02*
X126340000Y-126175000I-85000J0D01*
G01*
G37*
G04 #@! TD*
G04 #@! TO.C,C2*
G36*
G01*
X88750000Y-111200000D02*
X88250000Y-111200000D01*
G75*
G02*
X88025000Y-110975000I0J225000D01*
G01*
X88025000Y-110525000D01*
G75*
G02*
X88250000Y-110300000I225000J0D01*
G01*
X88750000Y-110300000D01*
G75*
G02*
X88975000Y-110525000I0J-225000D01*
G01*
X88975000Y-110975000D01*
G75*
G02*
X88750000Y-111200000I-225000J0D01*
G01*
G37*
G36*
G01*
X88750000Y-109650000D02*
X88250000Y-109650000D01*
G75*
G02*
X88025000Y-109425000I0J225000D01*
G01*
X88025000Y-108975000D01*
G75*
G02*
X88250000Y-108750000I225000J0D01*
G01*
X88750000Y-108750000D01*
G75*
G02*
X88975000Y-108975000I0J-225000D01*
G01*
X88975000Y-109425000D01*
G75*
G02*
X88750000Y-109650000I-225000J0D01*
G01*
G37*
G04 #@! TD*
D11*
G04 #@! TO.C,J3*
X83380954Y-137055000D03*
X84180954Y-137055000D03*
X85480954Y-137055000D03*
X86480954Y-137055000D03*
X86980954Y-137055000D03*
X87980954Y-137055000D03*
X89280954Y-137055000D03*
X90080954Y-137055000D03*
X89780954Y-137055000D03*
X88980954Y-137055000D03*
X88480954Y-137055000D03*
X87480954Y-137055000D03*
X85980954Y-137055000D03*
X84980954Y-137055000D03*
X84480954Y-137055000D03*
X83680954Y-137055000D03*
G04 #@! TD*
G04 #@! TO.C,R9*
G36*
G01*
X82685000Y-117520000D02*
X82315000Y-117520000D01*
G75*
G02*
X82180000Y-117385000I0J135000D01*
G01*
X82180000Y-117115000D01*
G75*
G02*
X82315000Y-116980000I135000J0D01*
G01*
X82685000Y-116980000D01*
G75*
G02*
X82820000Y-117115000I0J-135000D01*
G01*
X82820000Y-117385000D01*
G75*
G02*
X82685000Y-117520000I-135000J0D01*
G01*
G37*
G36*
G01*
X82685000Y-116500000D02*
X82315000Y-116500000D01*
G75*
G02*
X82180000Y-116365000I0J135000D01*
G01*
X82180000Y-116095000D01*
G75*
G02*
X82315000Y-115960000I135000J0D01*
G01*
X82685000Y-115960000D01*
G75*
G02*
X82820000Y-116095000I0J-135000D01*
G01*
X82820000Y-116365000D01*
G75*
G02*
X82685000Y-116500000I-135000J0D01*
G01*
G37*
G04 #@! TD*
D12*
G04 #@! TO.C,M3*
X134128415Y-47375002D03*
X135853417Y-47375002D03*
X137578417Y-47375002D03*
X139278415Y-47375002D03*
D13*
X132653415Y-60575001D03*
D12*
X138674813Y-66330875D03*
X135053415Y-66325003D03*
G04 #@! TD*
G04 #@! TO.C,F3*
G36*
G01*
X82493750Y-109487500D02*
X83006250Y-109487500D01*
G75*
G02*
X83225000Y-109706250I0J-218750D01*
G01*
X83225000Y-110143750D01*
G75*
G02*
X83006250Y-110362500I-218750J0D01*
G01*
X82493750Y-110362500D01*
G75*
G02*
X82275000Y-110143750I0J218750D01*
G01*
X82275000Y-109706250D01*
G75*
G02*
X82493750Y-109487500I218750J0D01*
G01*
G37*
G36*
G01*
X82493750Y-111062500D02*
X83006250Y-111062500D01*
G75*
G02*
X83225000Y-111281250I0J-218750D01*
G01*
X83225000Y-111718750D01*
G75*
G02*
X83006250Y-111937500I-218750J0D01*
G01*
X82493750Y-111937500D01*
G75*
G02*
X82275000Y-111718750I0J218750D01*
G01*
X82275000Y-111281250D01*
G75*
G02*
X82493750Y-111062500I218750J0D01*
G01*
G37*
G04 #@! TD*
G04 #@! TO.C,R36*
G36*
G01*
X98450000Y-88540000D02*
X98450000Y-87760000D01*
G75*
G02*
X98520000Y-87690000I70000J0D01*
G01*
X99080000Y-87690000D01*
G75*
G02*
X99150000Y-87760000I0J-70000D01*
G01*
X99150000Y-88540000D01*
G75*
G02*
X99080000Y-88610000I-70000J0D01*
G01*
X98520000Y-88610000D01*
G75*
G02*
X98450000Y-88540000I0J70000D01*
G01*
G37*
G36*
G01*
X100050000Y-88540000D02*
X100050000Y-87760000D01*
G75*
G02*
X100120000Y-87690000I70000J0D01*
G01*
X100680000Y-87690000D01*
G75*
G02*
X100750000Y-87760000I0J-70000D01*
G01*
X100750000Y-88540000D01*
G75*
G02*
X100680000Y-88610000I-70000J0D01*
G01*
X100120000Y-88610000D01*
G75*
G02*
X100050000Y-88540000I0J70000D01*
G01*
G37*
G04 #@! TD*
G04 #@! TO.C,R33*
G36*
G01*
X80700000Y-88540000D02*
X80700000Y-87760000D01*
G75*
G02*
X80770000Y-87690000I70000J0D01*
G01*
X81330000Y-87690000D01*
G75*
G02*
X81400000Y-87760000I0J-70000D01*
G01*
X81400000Y-88540000D01*
G75*
G02*
X81330000Y-88610000I-70000J0D01*
G01*
X80770000Y-88610000D01*
G75*
G02*
X80700000Y-88540000I0J70000D01*
G01*
G37*
G36*
G01*
X82300000Y-88540000D02*
X82300000Y-87760000D01*
G75*
G02*
X82370000Y-87690000I70000J0D01*
G01*
X82930000Y-87690000D01*
G75*
G02*
X83000000Y-87760000I0J-70000D01*
G01*
X83000000Y-88540000D01*
G75*
G02*
X82930000Y-88610000I-70000J0D01*
G01*
X82370000Y-88610000D01*
G75*
G02*
X82300000Y-88540000I0J70000D01*
G01*
G37*
G04 #@! TD*
G04 #@! TO.C,R34*
G36*
G01*
X86450000Y-88540000D02*
X86450000Y-87760000D01*
G75*
G02*
X86520000Y-87690000I70000J0D01*
G01*
X87080000Y-87690000D01*
G75*
G02*
X87150000Y-87760000I0J-70000D01*
G01*
X87150000Y-88540000D01*
G75*
G02*
X87080000Y-88610000I-70000J0D01*
G01*
X86520000Y-88610000D01*
G75*
G02*
X86450000Y-88540000I0J70000D01*
G01*
G37*
G36*
G01*
X88050000Y-88540000D02*
X88050000Y-87760000D01*
G75*
G02*
X88120000Y-87690000I70000J0D01*
G01*
X88680000Y-87690000D01*
G75*
G02*
X88750000Y-87760000I0J-70000D01*
G01*
X88750000Y-88540000D01*
G75*
G02*
X88680000Y-88610000I-70000J0D01*
G01*
X88120000Y-88610000D01*
G75*
G02*
X88050000Y-88540000I0J70000D01*
G01*
G37*
G04 #@! TD*
D14*
G04 #@! TO.C,J4*
X100955000Y-113350000D03*
X99855000Y-113350000D03*
X98755000Y-113350000D03*
X97655000Y-113350000D03*
X96555000Y-113350000D03*
X95455000Y-113350000D03*
X94355000Y-113350000D03*
X93255000Y-113350000D03*
G36*
G01*
X105350000Y-115312500D02*
X105350000Y-116587500D01*
G75*
G02*
X104987500Y-116950000I-362500J0D01*
G01*
X104262500Y-116950000D01*
G75*
G02*
X103900000Y-116587500I0J362500D01*
G01*
X103900000Y-115312500D01*
G75*
G02*
X104262500Y-114950000I362500J0D01*
G01*
X104987500Y-114950000D01*
G75*
G02*
X105350000Y-115312500I0J-362500D01*
G01*
G37*
G36*
G01*
X105350000Y-107012500D02*
X105350000Y-108287500D01*
G75*
G02*
X104987500Y-108650000I-362500J0D01*
G01*
X104262500Y-108650000D01*
G75*
G02*
X103900000Y-108287500I0J362500D01*
G01*
X103900000Y-107012500D01*
G75*
G02*
X104262500Y-106650000I362500J0D01*
G01*
X104987500Y-106650000D01*
G75*
G02*
X105350000Y-107012500I0J-362500D01*
G01*
G37*
G36*
G01*
X91600000Y-115312500D02*
X91600000Y-116587500D01*
G75*
G02*
X91237500Y-116950000I-362500J0D01*
G01*
X90512500Y-116950000D01*
G75*
G02*
X90150000Y-116587500I0J362500D01*
G01*
X90150000Y-115312500D01*
G75*
G02*
X90512500Y-114950000I362500J0D01*
G01*
X91237500Y-114950000D01*
G75*
G02*
X91600000Y-115312500I0J-362500D01*
G01*
G37*
G36*
G01*
X91600000Y-107012500D02*
X91600000Y-108287500D01*
G75*
G02*
X91237500Y-108650000I-362500J0D01*
G01*
X90512500Y-108650000D01*
G75*
G02*
X90150000Y-108287500I0J362500D01*
G01*
X90150000Y-107012500D01*
G75*
G02*
X90512500Y-106650000I362500J0D01*
G01*
X91237500Y-106650000D01*
G75*
G02*
X91600000Y-107012500I0J-362500D01*
G01*
G37*
G04 #@! TD*
G04 #@! TO.C,R4*
G36*
G01*
X90450000Y-134610000D02*
X90450000Y-135390000D01*
G75*
G02*
X90380000Y-135460000I-70000J0D01*
G01*
X89820000Y-135460000D01*
G75*
G02*
X89750000Y-135390000I0J70000D01*
G01*
X89750000Y-134610000D01*
G75*
G02*
X89820000Y-134540000I70000J0D01*
G01*
X90380000Y-134540000D01*
G75*
G02*
X90450000Y-134610000I0J-70000D01*
G01*
G37*
G36*
G01*
X88850000Y-134610000D02*
X88850000Y-135390000D01*
G75*
G02*
X88780000Y-135460000I-70000J0D01*
G01*
X88220000Y-135460000D01*
G75*
G02*
X88150000Y-135390000I0J70000D01*
G01*
X88150000Y-134610000D01*
G75*
G02*
X88220000Y-134540000I70000J0D01*
G01*
X88780000Y-134540000D01*
G75*
G02*
X88850000Y-134610000I0J-70000D01*
G01*
G37*
G04 #@! TD*
G04 #@! TO.C,S2*
G36*
G01*
X117020000Y-125299999D02*
X118980000Y-125299999D01*
G75*
G02*
X119100000Y-125419999I0J-120000D01*
G01*
X119100000Y-126379999D01*
G75*
G02*
X118980000Y-126499999I-120000J0D01*
G01*
X117020000Y-126499999D01*
G75*
G02*
X116900000Y-126379999I0J120000D01*
G01*
X116900000Y-125419999D01*
G75*
G02*
X117020000Y-125299999I120000J0D01*
G01*
G37*
G36*
G01*
X117020000Y-129500000D02*
X118980000Y-129500000D01*
G75*
G02*
X119100000Y-129620000I0J-120000D01*
G01*
X119100000Y-130580000D01*
G75*
G02*
X118980000Y-130700000I-120000J0D01*
G01*
X117020000Y-130700000D01*
G75*
G02*
X116900000Y-130580000I0J120000D01*
G01*
X116900000Y-129620000D01*
G75*
G02*
X117020000Y-129500000I120000J0D01*
G01*
G37*
G04 #@! TD*
G04 #@! TO.C,U4*
G36*
G01*
X148550000Y-121245000D02*
X148550000Y-120945000D01*
G75*
G02*
X148700000Y-120795000I150000J0D01*
G01*
X150350000Y-120795000D01*
G75*
G02*
X150500000Y-120945000I0J-150000D01*
G01*
X150500000Y-121245000D01*
G75*
G02*
X150350000Y-121395000I-150000J0D01*
G01*
X148700000Y-121395000D01*
G75*
G02*
X148550000Y-121245000I0J150000D01*
G01*
G37*
G36*
G01*
X148550000Y-122515000D02*
X148550000Y-122215000D01*
G75*
G02*
X148700000Y-122065000I150000J0D01*
G01*
X150350000Y-122065000D01*
G75*
G02*
X150500000Y-122215000I0J-150000D01*
G01*
X150500000Y-122515000D01*
G75*
G02*
X150350000Y-122665000I-150000J0D01*
G01*
X148700000Y-122665000D01*
G75*
G02*
X148550000Y-122515000I0J150000D01*
G01*
G37*
G36*
G01*
X148550000Y-123785000D02*
X148550000Y-123485000D01*
G75*
G02*
X148700000Y-123335000I150000J0D01*
G01*
X150350000Y-123335000D01*
G75*
G02*
X150500000Y-123485000I0J-150000D01*
G01*
X150500000Y-123785000D01*
G75*
G02*
X150350000Y-123935000I-150000J0D01*
G01*
X148700000Y-123935000D01*
G75*
G02*
X148550000Y-123785000I0J150000D01*
G01*
G37*
G36*
G01*
X148550000Y-125055000D02*
X148550000Y-124755000D01*
G75*
G02*
X148700000Y-124605000I150000J0D01*
G01*
X150350000Y-124605000D01*
G75*
G02*
X150500000Y-124755000I0J-150000D01*
G01*
X150500000Y-125055000D01*
G75*
G02*
X150350000Y-125205000I-150000J0D01*
G01*
X148700000Y-125205000D01*
G75*
G02*
X148550000Y-125055000I0J150000D01*
G01*
G37*
G36*
G01*
X153500000Y-125055000D02*
X153500000Y-124755000D01*
G75*
G02*
X153650000Y-124605000I150000J0D01*
G01*
X155300000Y-124605000D01*
G75*
G02*
X155450000Y-124755000I0J-150000D01*
G01*
X155450000Y-125055000D01*
G75*
G02*
X155300000Y-125205000I-150000J0D01*
G01*
X153650000Y-125205000D01*
G75*
G02*
X153500000Y-125055000I0J150000D01*
G01*
G37*
G36*
G01*
X153500000Y-123785000D02*
X153500000Y-123485000D01*
G75*
G02*
X153650000Y-123335000I150000J0D01*
G01*
X155300000Y-123335000D01*
G75*
G02*
X155450000Y-123485000I0J-150000D01*
G01*
X155450000Y-123785000D01*
G75*
G02*
X155300000Y-123935000I-150000J0D01*
G01*
X153650000Y-123935000D01*
G75*
G02*
X153500000Y-123785000I0J150000D01*
G01*
G37*
G36*
G01*
X153500000Y-122515000D02*
X153500000Y-122215000D01*
G75*
G02*
X153650000Y-122065000I150000J0D01*
G01*
X155300000Y-122065000D01*
G75*
G02*
X155450000Y-122215000I0J-150000D01*
G01*
X155450000Y-122515000D01*
G75*
G02*
X155300000Y-122665000I-150000J0D01*
G01*
X153650000Y-122665000D01*
G75*
G02*
X153500000Y-122515000I0J150000D01*
G01*
G37*
G36*
G01*
X153500000Y-121245000D02*
X153500000Y-120945000D01*
G75*
G02*
X153650000Y-120795000I150000J0D01*
G01*
X155300000Y-120795000D01*
G75*
G02*
X155450000Y-120945000I0J-150000D01*
G01*
X155450000Y-121245000D01*
G75*
G02*
X155300000Y-121395000I-150000J0D01*
G01*
X153650000Y-121395000D01*
G75*
G02*
X153500000Y-121245000I0J150000D01*
G01*
G37*
G04 #@! TD*
G04 #@! TO.C,D9*
G36*
G01*
X114740000Y-59900000D02*
X115760000Y-59900000D01*
G75*
G02*
X115850000Y-59990000I0J-90000D01*
G01*
X115850000Y-60710000D01*
G75*
G02*
X115760000Y-60800000I-90000J0D01*
G01*
X114740000Y-60800000D01*
G75*
G02*
X114650000Y-60710000I0J90000D01*
G01*
X114650000Y-59990000D01*
G75*
G02*
X114740000Y-59900000I90000J0D01*
G01*
G37*
G36*
G01*
X114740000Y-63200000D02*
X115760000Y-63200000D01*
G75*
G02*
X115850000Y-63290000I0J-90000D01*
G01*
X115850000Y-64010000D01*
G75*
G02*
X115760000Y-64100000I-90000J0D01*
G01*
X114740000Y-64100000D01*
G75*
G02*
X114650000Y-64010000I0J90000D01*
G01*
X114650000Y-63290000D01*
G75*
G02*
X114740000Y-63200000I90000J0D01*
G01*
G37*
G04 #@! TD*
G04 #@! TO.C,R45*
G36*
G01*
X113285000Y-77585000D02*
X113285000Y-78365000D01*
G75*
G02*
X113215000Y-78435000I-70000J0D01*
G01*
X112655000Y-78435000D01*
G75*
G02*
X112585000Y-78365000I0J70000D01*
G01*
X112585000Y-77585000D01*
G75*
G02*
X112655000Y-77515000I70000J0D01*
G01*
X113215000Y-77515000D01*
G75*
G02*
X113285000Y-77585000I0J-70000D01*
G01*
G37*
G36*
G01*
X111685000Y-77585000D02*
X111685000Y-78365000D01*
G75*
G02*
X111615000Y-78435000I-70000J0D01*
G01*
X111055000Y-78435000D01*
G75*
G02*
X110985000Y-78365000I0J70000D01*
G01*
X110985000Y-77585000D01*
G75*
G02*
X111055000Y-77515000I70000J0D01*
G01*
X111615000Y-77515000D01*
G75*
G02*
X111685000Y-77585000I0J-70000D01*
G01*
G37*
G04 #@! TD*
G04 #@! TO.C,C11*
G36*
G01*
X83920000Y-119530000D02*
X83580000Y-119530000D01*
G75*
G02*
X83440000Y-119390000I0J140000D01*
G01*
X83440000Y-119110000D01*
G75*
G02*
X83580000Y-118970000I140000J0D01*
G01*
X83920000Y-118970000D01*
G75*
G02*
X84060000Y-119110000I0J-140000D01*
G01*
X84060000Y-119390000D01*
G75*
G02*
X83920000Y-119530000I-140000J0D01*
G01*
G37*
G36*
G01*
X83920000Y-118570000D02*
X83580000Y-118570000D01*
G75*
G02*
X83440000Y-118430000I0J140000D01*
G01*
X83440000Y-118150000D01*
G75*
G02*
X83580000Y-118010000I140000J0D01*
G01*
X83920000Y-118010000D01*
G75*
G02*
X84060000Y-118150000I0J-140000D01*
G01*
X84060000Y-118430000D01*
G75*
G02*
X83920000Y-118570000I-140000J0D01*
G01*
G37*
G04 #@! TD*
G04 #@! TO.C,R16*
G36*
G01*
X84125000Y-61562500D02*
X82875000Y-61562500D01*
G75*
G02*
X82625000Y-61312500I0J250000D01*
G01*
X82625000Y-60687500D01*
G75*
G02*
X82875000Y-60437500I250000J0D01*
G01*
X84125000Y-60437500D01*
G75*
G02*
X84375000Y-60687500I0J-250000D01*
G01*
X84375000Y-61312500D01*
G75*
G02*
X84125000Y-61562500I-250000J0D01*
G01*
G37*
G36*
G01*
X84125000Y-58637500D02*
X82875000Y-58637500D01*
G75*
G02*
X82625000Y-58387500I0J250000D01*
G01*
X82625000Y-57762500D01*
G75*
G02*
X82875000Y-57512500I250000J0D01*
G01*
X84125000Y-57512500D01*
G75*
G02*
X84375000Y-57762500I0J-250000D01*
G01*
X84375000Y-58387500D01*
G75*
G02*
X84125000Y-58637500I-250000J0D01*
G01*
G37*
G04 #@! TD*
G04 #@! TO.C,U6*
G36*
G01*
X81550000Y-87100000D02*
X81250000Y-87100000D01*
G75*
G02*
X81100000Y-86950000I0J150000D01*
G01*
X81100000Y-85300000D01*
G75*
G02*
X81250000Y-85150000I150000J0D01*
G01*
X81550000Y-85150000D01*
G75*
G02*
X81700000Y-85300000I0J-150000D01*
G01*
X81700000Y-86950000D01*
G75*
G02*
X81550000Y-87100000I-150000J0D01*
G01*
G37*
G36*
G01*
X82820000Y-87100000D02*
X82520000Y-87100000D01*
G75*
G02*
X82370000Y-86950000I0J150000D01*
G01*
X82370000Y-85300000D01*
G75*
G02*
X82520000Y-85150000I150000J0D01*
G01*
X82820000Y-85150000D01*
G75*
G02*
X82970000Y-85300000I0J-150000D01*
G01*
X82970000Y-86950000D01*
G75*
G02*
X82820000Y-87100000I-150000J0D01*
G01*
G37*
G36*
G01*
X84090000Y-87100000D02*
X83790000Y-87100000D01*
G75*
G02*
X83640000Y-86950000I0J150000D01*
G01*
X83640000Y-85300000D01*
G75*
G02*
X83790000Y-85150000I150000J0D01*
G01*
X84090000Y-85150000D01*
G75*
G02*
X84240000Y-85300000I0J-150000D01*
G01*
X84240000Y-86950000D01*
G75*
G02*
X84090000Y-87100000I-150000J0D01*
G01*
G37*
G36*
G01*
X85360000Y-87100000D02*
X85060000Y-87100000D01*
G75*
G02*
X84910000Y-86950000I0J150000D01*
G01*
X84910000Y-85300000D01*
G75*
G02*
X85060000Y-85150000I150000J0D01*
G01*
X85360000Y-85150000D01*
G75*
G02*
X85510000Y-85300000I0J-150000D01*
G01*
X85510000Y-86950000D01*
G75*
G02*
X85360000Y-87100000I-150000J0D01*
G01*
G37*
G36*
G01*
X85360000Y-82150000D02*
X85060000Y-82150000D01*
G75*
G02*
X84910000Y-82000000I0J150000D01*
G01*
X84910000Y-80350000D01*
G75*
G02*
X85060000Y-80200000I150000J0D01*
G01*
X85360000Y-80200000D01*
G75*
G02*
X85510000Y-80350000I0J-150000D01*
G01*
X85510000Y-82000000D01*
G75*
G02*
X85360000Y-82150000I-150000J0D01*
G01*
G37*
G36*
G01*
X84090000Y-82150000D02*
X83790000Y-82150000D01*
G75*
G02*
X83640000Y-82000000I0J150000D01*
G01*
X83640000Y-80350000D01*
G75*
G02*
X83790000Y-80200000I150000J0D01*
G01*
X84090000Y-80200000D01*
G75*
G02*
X84240000Y-80350000I0J-150000D01*
G01*
X84240000Y-82000000D01*
G75*
G02*
X84090000Y-82150000I-150000J0D01*
G01*
G37*
G36*
G01*
X82820000Y-82150000D02*
X82520000Y-82150000D01*
G75*
G02*
X82370000Y-82000000I0J150000D01*
G01*
X82370000Y-80350000D01*
G75*
G02*
X82520000Y-80200000I150000J0D01*
G01*
X82820000Y-80200000D01*
G75*
G02*
X82970000Y-80350000I0J-150000D01*
G01*
X82970000Y-82000000D01*
G75*
G02*
X82820000Y-82150000I-150000J0D01*
G01*
G37*
G36*
G01*
X81550000Y-82150000D02*
X81250000Y-82150000D01*
G75*
G02*
X81100000Y-82000000I0J150000D01*
G01*
X81100000Y-80350000D01*
G75*
G02*
X81250000Y-80200000I150000J0D01*
G01*
X81550000Y-80200000D01*
G75*
G02*
X81700000Y-80350000I0J-150000D01*
G01*
X81700000Y-82000000D01*
G75*
G02*
X81550000Y-82150000I-150000J0D01*
G01*
G37*
G04 #@! TD*
G04 #@! TO.C,R30*
G36*
G01*
X91750000Y-87760000D02*
X91750000Y-88540000D01*
G75*
G02*
X91680000Y-88610000I-70000J0D01*
G01*
X91120000Y-88610000D01*
G75*
G02*
X91050000Y-88540000I0J70000D01*
G01*
X91050000Y-87760000D01*
G75*
G02*
X91120000Y-87690000I70000J0D01*
G01*
X91680000Y-87690000D01*
G75*
G02*
X91750000Y-87760000I0J-70000D01*
G01*
G37*
G36*
G01*
X90150000Y-87760000D02*
X90150000Y-88540000D01*
G75*
G02*
X90080000Y-88610000I-70000J0D01*
G01*
X89520000Y-88610000D01*
G75*
G02*
X89450000Y-88540000I0J70000D01*
G01*
X89450000Y-87760000D01*
G75*
G02*
X89520000Y-87690000I70000J0D01*
G01*
X90080000Y-87690000D01*
G75*
G02*
X90150000Y-87760000I0J-70000D01*
G01*
G37*
G04 #@! TD*
G04 #@! TO.C,R26*
G36*
G01*
X96200000Y-73610000D02*
X96200000Y-74390000D01*
G75*
G02*
X96130000Y-74460000I-70000J0D01*
G01*
X95570000Y-74460000D01*
G75*
G02*
X95500000Y-74390000I0J70000D01*
G01*
X95500000Y-73610000D01*
G75*
G02*
X95570000Y-73540000I70000J0D01*
G01*
X96130000Y-73540000D01*
G75*
G02*
X96200000Y-73610000I0J-70000D01*
G01*
G37*
G36*
G01*
X94600000Y-73610000D02*
X94600000Y-74390000D01*
G75*
G02*
X94530000Y-74460000I-70000J0D01*
G01*
X93970000Y-74460000D01*
G75*
G02*
X93900000Y-74390000I0J70000D01*
G01*
X93900000Y-73610000D01*
G75*
G02*
X93970000Y-73540000I70000J0D01*
G01*
X94530000Y-73540000D01*
G75*
G02*
X94600000Y-73610000I0J-70000D01*
G01*
G37*
G04 #@! TD*
G04 #@! TO.C,D8*
G36*
G01*
X115760000Y-58850000D02*
X114740000Y-58850000D01*
G75*
G02*
X114650000Y-58760000I0J90000D01*
G01*
X114650000Y-58040000D01*
G75*
G02*
X114740000Y-57950000I90000J0D01*
G01*
X115760000Y-57950000D01*
G75*
G02*
X115850000Y-58040000I0J-90000D01*
G01*
X115850000Y-58760000D01*
G75*
G02*
X115760000Y-58850000I-90000J0D01*
G01*
G37*
G36*
G01*
X115760000Y-55550000D02*
X114740000Y-55550000D01*
G75*
G02*
X114650000Y-55460000I0J90000D01*
G01*
X114650000Y-54740000D01*
G75*
G02*
X114740000Y-54650000I90000J0D01*
G01*
X115760000Y-54650000D01*
G75*
G02*
X115850000Y-54740000I0J-90000D01*
G01*
X115850000Y-55460000D01*
G75*
G02*
X115760000Y-55550000I-90000J0D01*
G01*
G37*
G04 #@! TD*
G04 #@! TO.C,R12*
G36*
G01*
X76685000Y-117520000D02*
X76315000Y-117520000D01*
G75*
G02*
X76180000Y-117385000I0J135000D01*
G01*
X76180000Y-117115000D01*
G75*
G02*
X76315000Y-116980000I135000J0D01*
G01*
X76685000Y-116980000D01*
G75*
G02*
X76820000Y-117115000I0J-135000D01*
G01*
X76820000Y-117385000D01*
G75*
G02*
X76685000Y-117520000I-135000J0D01*
G01*
G37*
G36*
G01*
X76685000Y-116500000D02*
X76315000Y-116500000D01*
G75*
G02*
X76180000Y-116365000I0J135000D01*
G01*
X76180000Y-116095000D01*
G75*
G02*
X76315000Y-115960000I135000J0D01*
G01*
X76685000Y-115960000D01*
G75*
G02*
X76820000Y-116095000I0J-135000D01*
G01*
X76820000Y-116365000D01*
G75*
G02*
X76685000Y-116500000I-135000J0D01*
G01*
G37*
G04 #@! TD*
G04 #@! TO.C,R6*
G36*
G01*
X79685000Y-117520000D02*
X79315000Y-117520000D01*
G75*
G02*
X79180000Y-117385000I0J135000D01*
G01*
X79180000Y-117115000D01*
G75*
G02*
X79315000Y-116980000I135000J0D01*
G01*
X79685000Y-116980000D01*
G75*
G02*
X79820000Y-117115000I0J-135000D01*
G01*
X79820000Y-117385000D01*
G75*
G02*
X79685000Y-117520000I-135000J0D01*
G01*
G37*
G36*
G01*
X79685000Y-116500000D02*
X79315000Y-116500000D01*
G75*
G02*
X79180000Y-116365000I0J135000D01*
G01*
X79180000Y-116095000D01*
G75*
G02*
X79315000Y-115960000I135000J0D01*
G01*
X79685000Y-115960000D01*
G75*
G02*
X79820000Y-116095000I0J-135000D01*
G01*
X79820000Y-116365000D01*
G75*
G02*
X79685000Y-116500000I-135000J0D01*
G01*
G37*
G04 #@! TD*
G04 #@! TO.C,R32*
G36*
G01*
X103750000Y-87760000D02*
X103750000Y-88540000D01*
G75*
G02*
X103680000Y-88610000I-70000J0D01*
G01*
X103120000Y-88610000D01*
G75*
G02*
X103050000Y-88540000I0J70000D01*
G01*
X103050000Y-87760000D01*
G75*
G02*
X103120000Y-87690000I70000J0D01*
G01*
X103680000Y-87690000D01*
G75*
G02*
X103750000Y-87760000I0J-70000D01*
G01*
G37*
G36*
G01*
X102150000Y-87760000D02*
X102150000Y-88540000D01*
G75*
G02*
X102080000Y-88610000I-70000J0D01*
G01*
X101520000Y-88610000D01*
G75*
G02*
X101450000Y-88540000I0J70000D01*
G01*
X101450000Y-87760000D01*
G75*
G02*
X101520000Y-87690000I70000J0D01*
G01*
X102080000Y-87690000D01*
G75*
G02*
X102150000Y-87760000I0J-70000D01*
G01*
G37*
G04 #@! TD*
G04 #@! TO.C,U14*
G36*
G01*
X108830000Y-76875000D02*
X108530000Y-76875000D01*
G75*
G02*
X108380000Y-76725000I0J150000D01*
G01*
X108380000Y-75075000D01*
G75*
G02*
X108530000Y-74925000I150000J0D01*
G01*
X108830000Y-74925000D01*
G75*
G02*
X108980000Y-75075000I0J-150000D01*
G01*
X108980000Y-76725000D01*
G75*
G02*
X108830000Y-76875000I-150000J0D01*
G01*
G37*
G36*
G01*
X110100000Y-76875000D02*
X109800000Y-76875000D01*
G75*
G02*
X109650000Y-76725000I0J150000D01*
G01*
X109650000Y-75075000D01*
G75*
G02*
X109800000Y-74925000I150000J0D01*
G01*
X110100000Y-74925000D01*
G75*
G02*
X110250000Y-75075000I0J-150000D01*
G01*
X110250000Y-76725000D01*
G75*
G02*
X110100000Y-76875000I-150000J0D01*
G01*
G37*
G36*
G01*
X111370000Y-76875000D02*
X111070000Y-76875000D01*
G75*
G02*
X110920000Y-76725000I0J150000D01*
G01*
X110920000Y-75075000D01*
G75*
G02*
X111070000Y-74925000I150000J0D01*
G01*
X111370000Y-74925000D01*
G75*
G02*
X111520000Y-75075000I0J-150000D01*
G01*
X111520000Y-76725000D01*
G75*
G02*
X111370000Y-76875000I-150000J0D01*
G01*
G37*
G36*
G01*
X112640000Y-76875000D02*
X112340000Y-76875000D01*
G75*
G02*
X112190000Y-76725000I0J150000D01*
G01*
X112190000Y-75075000D01*
G75*
G02*
X112340000Y-74925000I150000J0D01*
G01*
X112640000Y-74925000D01*
G75*
G02*
X112790000Y-75075000I0J-150000D01*
G01*
X112790000Y-76725000D01*
G75*
G02*
X112640000Y-76875000I-150000J0D01*
G01*
G37*
G36*
G01*
X112640000Y-71925000D02*
X112340000Y-71925000D01*
G75*
G02*
X112190000Y-71775000I0J150000D01*
G01*
X112190000Y-70125000D01*
G75*
G02*
X112340000Y-69975000I150000J0D01*
G01*
X112640000Y-69975000D01*
G75*
G02*
X112790000Y-70125000I0J-150000D01*
G01*
X112790000Y-71775000D01*
G75*
G02*
X112640000Y-71925000I-150000J0D01*
G01*
G37*
G36*
G01*
X111370000Y-71925000D02*
X111070000Y-71925000D01*
G75*
G02*
X110920000Y-71775000I0J150000D01*
G01*
X110920000Y-70125000D01*
G75*
G02*
X111070000Y-69975000I150000J0D01*
G01*
X111370000Y-69975000D01*
G75*
G02*
X111520000Y-70125000I0J-150000D01*
G01*
X111520000Y-71775000D01*
G75*
G02*
X111370000Y-71925000I-150000J0D01*
G01*
G37*
G36*
G01*
X110100000Y-71925000D02*
X109800000Y-71925000D01*
G75*
G02*
X109650000Y-71775000I0J150000D01*
G01*
X109650000Y-70125000D01*
G75*
G02*
X109800000Y-69975000I150000J0D01*
G01*
X110100000Y-69975000D01*
G75*
G02*
X110250000Y-70125000I0J-150000D01*
G01*
X110250000Y-71775000D01*
G75*
G02*
X110100000Y-71925000I-150000J0D01*
G01*
G37*
G36*
G01*
X108830000Y-71925000D02*
X108530000Y-71925000D01*
G75*
G02*
X108380000Y-71775000I0J150000D01*
G01*
X108380000Y-70125000D01*
G75*
G02*
X108530000Y-69975000I150000J0D01*
G01*
X108830000Y-69975000D01*
G75*
G02*
X108980000Y-70125000I0J-150000D01*
G01*
X108980000Y-71775000D01*
G75*
G02*
X108830000Y-71925000I-150000J0D01*
G01*
G37*
G04 #@! TD*
G04 #@! TO.C,C7*
G36*
G01*
X156240000Y-125420000D02*
X156240000Y-125080000D01*
G75*
G02*
X156380000Y-124940000I140000J0D01*
G01*
X156660000Y-124940000D01*
G75*
G02*
X156800000Y-125080000I0J-140000D01*
G01*
X156800000Y-125420000D01*
G75*
G02*
X156660000Y-125560000I-140000J0D01*
G01*
X156380000Y-125560000D01*
G75*
G02*
X156240000Y-125420000I0J140000D01*
G01*
G37*
G36*
G01*
X157200000Y-125420000D02*
X157200000Y-125080000D01*
G75*
G02*
X157340000Y-124940000I140000J0D01*
G01*
X157620000Y-124940000D01*
G75*
G02*
X157760000Y-125080000I0J-140000D01*
G01*
X157760000Y-125420000D01*
G75*
G02*
X157620000Y-125560000I-140000J0D01*
G01*
X157340000Y-125560000D01*
G75*
G02*
X157200000Y-125420000I0J140000D01*
G01*
G37*
G04 #@! TD*
G04 #@! TO.C,R28*
G36*
G01*
X79230000Y-73610000D02*
X79230000Y-74390000D01*
G75*
G02*
X79160000Y-74460000I-70000J0D01*
G01*
X78600000Y-74460000D01*
G75*
G02*
X78530000Y-74390000I0J70000D01*
G01*
X78530000Y-73610000D01*
G75*
G02*
X78600000Y-73540000I70000J0D01*
G01*
X79160000Y-73540000D01*
G75*
G02*
X79230000Y-73610000I0J-70000D01*
G01*
G37*
G36*
G01*
X77630000Y-73610000D02*
X77630000Y-74390000D01*
G75*
G02*
X77560000Y-74460000I-70000J0D01*
G01*
X77000000Y-74460000D01*
G75*
G02*
X76930000Y-74390000I0J70000D01*
G01*
X76930000Y-73610000D01*
G75*
G02*
X77000000Y-73540000I70000J0D01*
G01*
X77560000Y-73540000D01*
G75*
G02*
X77630000Y-73610000I0J-70000D01*
G01*
G37*
G04 #@! TD*
G04 #@! TO.C,F6*
G36*
G01*
X75993750Y-109487500D02*
X76506250Y-109487500D01*
G75*
G02*
X76725000Y-109706250I0J-218750D01*
G01*
X76725000Y-110143750D01*
G75*
G02*
X76506250Y-110362500I-218750J0D01*
G01*
X75993750Y-110362500D01*
G75*
G02*
X75775000Y-110143750I0J218750D01*
G01*
X75775000Y-109706250D01*
G75*
G02*
X75993750Y-109487500I218750J0D01*
G01*
G37*
G36*
G01*
X75993750Y-111062500D02*
X76506250Y-111062500D01*
G75*
G02*
X76725000Y-111281250I0J-218750D01*
G01*
X76725000Y-111718750D01*
G75*
G02*
X76506250Y-111937500I-218750J0D01*
G01*
X75993750Y-111937500D01*
G75*
G02*
X75775000Y-111718750I0J218750D01*
G01*
X75775000Y-111281250D01*
G75*
G02*
X75993750Y-111062500I218750J0D01*
G01*
G37*
G04 #@! TD*
G04 #@! TO.C,U3*
G36*
G01*
X126587500Y-122607174D02*
X126412500Y-122607174D01*
G75*
G02*
X126325000Y-122519674I0J87500D01*
G01*
X126325000Y-122269674D01*
G75*
G02*
X126412500Y-122182174I87500J0D01*
G01*
X126587500Y-122182174D01*
G75*
G02*
X126675000Y-122269674I0J-87500D01*
G01*
X126675000Y-122519674D01*
G75*
G02*
X126587500Y-122607174I-87500J0D01*
G01*
G37*
G36*
G01*
X127087500Y-122607174D02*
X126912500Y-122607174D01*
G75*
G02*
X126825000Y-122519674I0J87500D01*
G01*
X126825000Y-122269674D01*
G75*
G02*
X126912500Y-122182174I87500J0D01*
G01*
X127087500Y-122182174D01*
G75*
G02*
X127175000Y-122269674I0J-87500D01*
G01*
X127175000Y-122519674D01*
G75*
G02*
X127087500Y-122607174I-87500J0D01*
G01*
G37*
G36*
G01*
X127637500Y-122307174D02*
X127387500Y-122307174D01*
G75*
G02*
X127300000Y-122219674I0J87500D01*
G01*
X127300000Y-122044674D01*
G75*
G02*
X127387500Y-121957174I87500J0D01*
G01*
X127637500Y-121957174D01*
G75*
G02*
X127725000Y-122044674I0J-87500D01*
G01*
X127725000Y-122219674D01*
G75*
G02*
X127637500Y-122307174I-87500J0D01*
G01*
G37*
G36*
G01*
X127637500Y-121807174D02*
X127387500Y-121807174D01*
G75*
G02*
X127300000Y-121719674I0J87500D01*
G01*
X127300000Y-121544674D01*
G75*
G02*
X127387500Y-121457174I87500J0D01*
G01*
X127637500Y-121457174D01*
G75*
G02*
X127725000Y-121544674I0J-87500D01*
G01*
X127725000Y-121719674D01*
G75*
G02*
X127637500Y-121807174I-87500J0D01*
G01*
G37*
G36*
G01*
X127637500Y-121307174D02*
X127387500Y-121307174D01*
G75*
G02*
X127300000Y-121219674I0J87500D01*
G01*
X127300000Y-121044674D01*
G75*
G02*
X127387500Y-120957174I87500J0D01*
G01*
X127637500Y-120957174D01*
G75*
G02*
X127725000Y-121044674I0J-87500D01*
G01*
X127725000Y-121219674D01*
G75*
G02*
X127637500Y-121307174I-87500J0D01*
G01*
G37*
G36*
G01*
X127087500Y-121082174D02*
X126912500Y-121082174D01*
G75*
G02*
X126825000Y-120994674I0J87500D01*
G01*
X126825000Y-120744674D01*
G75*
G02*
X126912500Y-120657174I87500J0D01*
G01*
X127087500Y-120657174D01*
G75*
G02*
X127175000Y-120744674I0J-87500D01*
G01*
X127175000Y-120994674D01*
G75*
G02*
X127087500Y-121082174I-87500J0D01*
G01*
G37*
G36*
G01*
X126587500Y-121082174D02*
X126412500Y-121082174D01*
G75*
G02*
X126325000Y-120994674I0J87500D01*
G01*
X126325000Y-120744674D01*
G75*
G02*
X126412500Y-120657174I87500J0D01*
G01*
X126587500Y-120657174D01*
G75*
G02*
X126675000Y-120744674I0J-87500D01*
G01*
X126675000Y-120994674D01*
G75*
G02*
X126587500Y-121082174I-87500J0D01*
G01*
G37*
G36*
G01*
X126112500Y-121307174D02*
X125862500Y-121307174D01*
G75*
G02*
X125775000Y-121219674I0J87500D01*
G01*
X125775000Y-121044674D01*
G75*
G02*
X125862500Y-120957174I87500J0D01*
G01*
X126112500Y-120957174D01*
G75*
G02*
X126200000Y-121044674I0J-87500D01*
G01*
X126200000Y-121219674D01*
G75*
G02*
X126112500Y-121307174I-87500J0D01*
G01*
G37*
G36*
G01*
X126112500Y-121807174D02*
X125862500Y-121807174D01*
G75*
G02*
X125775000Y-121719674I0J87500D01*
G01*
X125775000Y-121544674D01*
G75*
G02*
X125862500Y-121457174I87500J0D01*
G01*
X126112500Y-121457174D01*
G75*
G02*
X126200000Y-121544674I0J-87500D01*
G01*
X126200000Y-121719674D01*
G75*
G02*
X126112500Y-121807174I-87500J0D01*
G01*
G37*
G36*
G01*
X126112500Y-122307174D02*
X125862500Y-122307174D01*
G75*
G02*
X125775000Y-122219674I0J87500D01*
G01*
X125775000Y-122044674D01*
G75*
G02*
X125862500Y-121957174I87500J0D01*
G01*
X126112500Y-121957174D01*
G75*
G02*
X126200000Y-122044674I0J-87500D01*
G01*
X126200000Y-122219674D01*
G75*
G02*
X126112500Y-122307174I-87500J0D01*
G01*
G37*
G04 #@! TD*
G04 #@! TO.C,R14*
G36*
G01*
X100875000Y-61562500D02*
X99625000Y-61562500D01*
G75*
G02*
X99375000Y-61312500I0J250000D01*
G01*
X99375000Y-60687500D01*
G75*
G02*
X99625000Y-60437500I250000J0D01*
G01*
X100875000Y-60437500D01*
G75*
G02*
X101125000Y-60687500I0J-250000D01*
G01*
X101125000Y-61312500D01*
G75*
G02*
X100875000Y-61562500I-250000J0D01*
G01*
G37*
G36*
G01*
X100875000Y-58637500D02*
X99625000Y-58637500D01*
G75*
G02*
X99375000Y-58387500I0J250000D01*
G01*
X99375000Y-57762500D01*
G75*
G02*
X99625000Y-57512500I250000J0D01*
G01*
X100875000Y-57512500D01*
G75*
G02*
X101125000Y-57762500I0J-250000D01*
G01*
X101125000Y-58387500D01*
G75*
G02*
X100875000Y-58637500I-250000J0D01*
G01*
G37*
G04 #@! TD*
G04 #@! TO.C,F5*
G36*
G01*
X77993750Y-109487500D02*
X78506250Y-109487500D01*
G75*
G02*
X78725000Y-109706250I0J-218750D01*
G01*
X78725000Y-110143750D01*
G75*
G02*
X78506250Y-110362500I-218750J0D01*
G01*
X77993750Y-110362500D01*
G75*
G02*
X77775000Y-110143750I0J218750D01*
G01*
X77775000Y-109706250D01*
G75*
G02*
X77993750Y-109487500I218750J0D01*
G01*
G37*
G36*
G01*
X77993750Y-111062500D02*
X78506250Y-111062500D01*
G75*
G02*
X78725000Y-111281250I0J-218750D01*
G01*
X78725000Y-111718750D01*
G75*
G02*
X78506250Y-111937500I-218750J0D01*
G01*
X77993750Y-111937500D01*
G75*
G02*
X77775000Y-111718750I0J218750D01*
G01*
X77775000Y-111281250D01*
G75*
G02*
X77993750Y-111062500I218750J0D01*
G01*
G37*
G04 #@! TD*
D15*
G04 #@! TO.C,U1*
X111000000Y-115500000D03*
X111000000Y-115000000D03*
X111000000Y-114500000D03*
X111000000Y-114000000D03*
D16*
X110487500Y-113987500D03*
X109987500Y-113987500D03*
D15*
X109475000Y-114000000D03*
X109475000Y-114500000D03*
X109475000Y-115000000D03*
X109475000Y-115500000D03*
D16*
X109987500Y-115512500D03*
X110487500Y-115512500D03*
G04 #@! TD*
G04 #@! TO.C,R20*
G36*
G01*
X85700000Y-62110000D02*
X85700000Y-62890000D01*
G75*
G02*
X85630000Y-62960000I-70000J0D01*
G01*
X85070000Y-62960000D01*
G75*
G02*
X85000000Y-62890000I0J70000D01*
G01*
X85000000Y-62110000D01*
G75*
G02*
X85070000Y-62040000I70000J0D01*
G01*
X85630000Y-62040000D01*
G75*
G02*
X85700000Y-62110000I0J-70000D01*
G01*
G37*
G36*
G01*
X84100000Y-62110000D02*
X84100000Y-62890000D01*
G75*
G02*
X84030000Y-62960000I-70000J0D01*
G01*
X83470000Y-62960000D01*
G75*
G02*
X83400000Y-62890000I0J70000D01*
G01*
X83400000Y-62110000D01*
G75*
G02*
X83470000Y-62040000I70000J0D01*
G01*
X84030000Y-62040000D01*
G75*
G02*
X84100000Y-62110000I0J-70000D01*
G01*
G37*
G04 #@! TD*
G04 #@! TO.C,F4*
G36*
G01*
X80243750Y-109487500D02*
X80756250Y-109487500D01*
G75*
G02*
X80975000Y-109706250I0J-218750D01*
G01*
X80975000Y-110143750D01*
G75*
G02*
X80756250Y-110362500I-218750J0D01*
G01*
X80243750Y-110362500D01*
G75*
G02*
X80025000Y-110143750I0J218750D01*
G01*
X80025000Y-109706250D01*
G75*
G02*
X80243750Y-109487500I218750J0D01*
G01*
G37*
G36*
G01*
X80243750Y-111062500D02*
X80756250Y-111062500D01*
G75*
G02*
X80975000Y-111281250I0J-218750D01*
G01*
X80975000Y-111718750D01*
G75*
G02*
X80756250Y-111937500I-218750J0D01*
G01*
X80243750Y-111937500D01*
G75*
G02*
X80025000Y-111718750I0J218750D01*
G01*
X80025000Y-111281250D01*
G75*
G02*
X80243750Y-111062500I218750J0D01*
G01*
G37*
G04 #@! TD*
G04 #@! TO.C,U9*
G36*
G01*
X99395000Y-87100000D02*
X99095000Y-87100000D01*
G75*
G02*
X98945000Y-86950000I0J150000D01*
G01*
X98945000Y-85300000D01*
G75*
G02*
X99095000Y-85150000I150000J0D01*
G01*
X99395000Y-85150000D01*
G75*
G02*
X99545000Y-85300000I0J-150000D01*
G01*
X99545000Y-86950000D01*
G75*
G02*
X99395000Y-87100000I-150000J0D01*
G01*
G37*
G36*
G01*
X100665000Y-87100000D02*
X100365000Y-87100000D01*
G75*
G02*
X100215000Y-86950000I0J150000D01*
G01*
X100215000Y-85300000D01*
G75*
G02*
X100365000Y-85150000I150000J0D01*
G01*
X100665000Y-85150000D01*
G75*
G02*
X100815000Y-85300000I0J-150000D01*
G01*
X100815000Y-86950000D01*
G75*
G02*
X100665000Y-87100000I-150000J0D01*
G01*
G37*
G36*
G01*
X101935000Y-87100000D02*
X101635000Y-87100000D01*
G75*
G02*
X101485000Y-86950000I0J150000D01*
G01*
X101485000Y-85300000D01*
G75*
G02*
X101635000Y-85150000I150000J0D01*
G01*
X101935000Y-85150000D01*
G75*
G02*
X102085000Y-85300000I0J-150000D01*
G01*
X102085000Y-86950000D01*
G75*
G02*
X101935000Y-87100000I-150000J0D01*
G01*
G37*
G36*
G01*
X103205000Y-87100000D02*
X102905000Y-87100000D01*
G75*
G02*
X102755000Y-86950000I0J150000D01*
G01*
X102755000Y-85300000D01*
G75*
G02*
X102905000Y-85150000I150000J0D01*
G01*
X103205000Y-85150000D01*
G75*
G02*
X103355000Y-85300000I0J-150000D01*
G01*
X103355000Y-86950000D01*
G75*
G02*
X103205000Y-87100000I-150000J0D01*
G01*
G37*
G36*
G01*
X103205000Y-82150000D02*
X102905000Y-82150000D01*
G75*
G02*
X102755000Y-82000000I0J150000D01*
G01*
X102755000Y-80350000D01*
G75*
G02*
X102905000Y-80200000I150000J0D01*
G01*
X103205000Y-80200000D01*
G75*
G02*
X103355000Y-80350000I0J-150000D01*
G01*
X103355000Y-82000000D01*
G75*
G02*
X103205000Y-82150000I-150000J0D01*
G01*
G37*
G36*
G01*
X101935000Y-82150000D02*
X101635000Y-82150000D01*
G75*
G02*
X101485000Y-82000000I0J150000D01*
G01*
X101485000Y-80350000D01*
G75*
G02*
X101635000Y-80200000I150000J0D01*
G01*
X101935000Y-80200000D01*
G75*
G02*
X102085000Y-80350000I0J-150000D01*
G01*
X102085000Y-82000000D01*
G75*
G02*
X101935000Y-82150000I-150000J0D01*
G01*
G37*
G36*
G01*
X100665000Y-82150000D02*
X100365000Y-82150000D01*
G75*
G02*
X100215000Y-82000000I0J150000D01*
G01*
X100215000Y-80350000D01*
G75*
G02*
X100365000Y-80200000I150000J0D01*
G01*
X100665000Y-80200000D01*
G75*
G02*
X100815000Y-80350000I0J-150000D01*
G01*
X100815000Y-82000000D01*
G75*
G02*
X100665000Y-82150000I-150000J0D01*
G01*
G37*
G36*
G01*
X99395000Y-82150000D02*
X99095000Y-82150000D01*
G75*
G02*
X98945000Y-82000000I0J150000D01*
G01*
X98945000Y-80350000D01*
G75*
G02*
X99095000Y-80200000I150000J0D01*
G01*
X99395000Y-80200000D01*
G75*
G02*
X99545000Y-80350000I0J-150000D01*
G01*
X99545000Y-82000000D01*
G75*
G02*
X99395000Y-82150000I-150000J0D01*
G01*
G37*
G04 #@! TD*
G04 #@! TO.C,C8*
G36*
G01*
X124907500Y-122392174D02*
X124567500Y-122392174D01*
G75*
G02*
X124427500Y-122252174I0J140000D01*
G01*
X124427500Y-121972174D01*
G75*
G02*
X124567500Y-121832174I140000J0D01*
G01*
X124907500Y-121832174D01*
G75*
G02*
X125047500Y-121972174I0J-140000D01*
G01*
X125047500Y-122252174D01*
G75*
G02*
X124907500Y-122392174I-140000J0D01*
G01*
G37*
G36*
G01*
X124907500Y-121432174D02*
X124567500Y-121432174D01*
G75*
G02*
X124427500Y-121292174I0J140000D01*
G01*
X124427500Y-121012174D01*
G75*
G02*
X124567500Y-120872174I140000J0D01*
G01*
X124907500Y-120872174D01*
G75*
G02*
X125047500Y-121012174I0J-140000D01*
G01*
X125047500Y-121292174D01*
G75*
G02*
X124907500Y-121432174I-140000J0D01*
G01*
G37*
G04 #@! TD*
G04 #@! TO.C,R7*
G36*
G01*
X77685000Y-117520000D02*
X77315000Y-117520000D01*
G75*
G02*
X77180000Y-117385000I0J135000D01*
G01*
X77180000Y-117115000D01*
G75*
G02*
X77315000Y-116980000I135000J0D01*
G01*
X77685000Y-116980000D01*
G75*
G02*
X77820000Y-117115000I0J-135000D01*
G01*
X77820000Y-117385000D01*
G75*
G02*
X77685000Y-117520000I-135000J0D01*
G01*
G37*
G36*
G01*
X77685000Y-116500000D02*
X77315000Y-116500000D01*
G75*
G02*
X77180000Y-116365000I0J135000D01*
G01*
X77180000Y-116095000D01*
G75*
G02*
X77315000Y-115960000I135000J0D01*
G01*
X77685000Y-115960000D01*
G75*
G02*
X77820000Y-116095000I0J-135000D01*
G01*
X77820000Y-116365000D01*
G75*
G02*
X77685000Y-116500000I-135000J0D01*
G01*
G37*
G04 #@! TD*
G04 #@! TO.C,F9*
G36*
G01*
X76993750Y-112487500D02*
X77506250Y-112487500D01*
G75*
G02*
X77725000Y-112706250I0J-218750D01*
G01*
X77725000Y-113143750D01*
G75*
G02*
X77506250Y-113362500I-218750J0D01*
G01*
X76993750Y-113362500D01*
G75*
G02*
X76775000Y-113143750I0J218750D01*
G01*
X76775000Y-112706250D01*
G75*
G02*
X76993750Y-112487500I218750J0D01*
G01*
G37*
G36*
G01*
X76993750Y-114062500D02*
X77506250Y-114062500D01*
G75*
G02*
X77725000Y-114281250I0J-218750D01*
G01*
X77725000Y-114718750D01*
G75*
G02*
X77506250Y-114937500I-218750J0D01*
G01*
X76993750Y-114937500D01*
G75*
G02*
X76775000Y-114718750I0J218750D01*
G01*
X76775000Y-114281250D01*
G75*
G02*
X76993750Y-114062500I218750J0D01*
G01*
G37*
G04 #@! TD*
G04 #@! TO.C,R46*
G36*
G01*
X107935000Y-78365000D02*
X107935000Y-77585000D01*
G75*
G02*
X108005000Y-77515000I70000J0D01*
G01*
X108565000Y-77515000D01*
G75*
G02*
X108635000Y-77585000I0J-70000D01*
G01*
X108635000Y-78365000D01*
G75*
G02*
X108565000Y-78435000I-70000J0D01*
G01*
X108005000Y-78435000D01*
G75*
G02*
X107935000Y-78365000I0J70000D01*
G01*
G37*
G36*
G01*
X109535000Y-78365000D02*
X109535000Y-77585000D01*
G75*
G02*
X109605000Y-77515000I70000J0D01*
G01*
X110165000Y-77515000D01*
G75*
G02*
X110235000Y-77585000I0J-70000D01*
G01*
X110235000Y-78365000D01*
G75*
G02*
X110165000Y-78435000I-70000J0D01*
G01*
X109605000Y-78435000D01*
G75*
G02*
X109535000Y-78365000I0J70000D01*
G01*
G37*
G04 #@! TD*
G04 #@! TO.C,R18*
G36*
G01*
X102200000Y-62110000D02*
X102200000Y-62890000D01*
G75*
G02*
X102130000Y-62960000I-70000J0D01*
G01*
X101570000Y-62960000D01*
G75*
G02*
X101500000Y-62890000I0J70000D01*
G01*
X101500000Y-62110000D01*
G75*
G02*
X101570000Y-62040000I70000J0D01*
G01*
X102130000Y-62040000D01*
G75*
G02*
X102200000Y-62110000I0J-70000D01*
G01*
G37*
G36*
G01*
X100600000Y-62110000D02*
X100600000Y-62890000D01*
G75*
G02*
X100530000Y-62960000I-70000J0D01*
G01*
X99970000Y-62960000D01*
G75*
G02*
X99900000Y-62890000I0J70000D01*
G01*
X99900000Y-62110000D01*
G75*
G02*
X99970000Y-62040000I70000J0D01*
G01*
X100530000Y-62040000D01*
G75*
G02*
X100600000Y-62110000I0J-70000D01*
G01*
G37*
G04 #@! TD*
G04 #@! TO.C,R24*
G36*
G01*
X77905000Y-72447500D02*
X76655000Y-72447500D01*
G75*
G02*
X76405000Y-72197500I0J250000D01*
G01*
X76405000Y-71572500D01*
G75*
G02*
X76655000Y-71322500I250000J0D01*
G01*
X77905000Y-71322500D01*
G75*
G02*
X78155000Y-71572500I0J-250000D01*
G01*
X78155000Y-72197500D01*
G75*
G02*
X77905000Y-72447500I-250000J0D01*
G01*
G37*
G36*
G01*
X77905000Y-69522500D02*
X76655000Y-69522500D01*
G75*
G02*
X76405000Y-69272500I0J250000D01*
G01*
X76405000Y-68647500D01*
G75*
G02*
X76655000Y-68397500I250000J0D01*
G01*
X77905000Y-68397500D01*
G75*
G02*
X78155000Y-68647500I0J-250000D01*
G01*
X78155000Y-69272500D01*
G75*
G02*
X77905000Y-69522500I-250000J0D01*
G01*
G37*
G04 #@! TD*
G04 #@! TO.C,U5*
G36*
G01*
X82475000Y-118650000D02*
X82675000Y-118650000D01*
G75*
G02*
X82775000Y-118750000I0J-100000D01*
G01*
X82775000Y-120025000D01*
G75*
G02*
X82675000Y-120125000I-100000J0D01*
G01*
X82475000Y-120125000D01*
G75*
G02*
X82375000Y-120025000I0J100000D01*
G01*
X82375000Y-118750000D01*
G75*
G02*
X82475000Y-118650000I100000J0D01*
G01*
G37*
G36*
G01*
X81825000Y-118650000D02*
X82025000Y-118650000D01*
G75*
G02*
X82125000Y-118750000I0J-100000D01*
G01*
X82125000Y-120025000D01*
G75*
G02*
X82025000Y-120125000I-100000J0D01*
G01*
X81825000Y-120125000D01*
G75*
G02*
X81725000Y-120025000I0J100000D01*
G01*
X81725000Y-118750000D01*
G75*
G02*
X81825000Y-118650000I100000J0D01*
G01*
G37*
G36*
G01*
X81175000Y-118650000D02*
X81375000Y-118650000D01*
G75*
G02*
X81475000Y-118750000I0J-100000D01*
G01*
X81475000Y-120025000D01*
G75*
G02*
X81375000Y-120125000I-100000J0D01*
G01*
X81175000Y-120125000D01*
G75*
G02*
X81075000Y-120025000I0J100000D01*
G01*
X81075000Y-118750000D01*
G75*
G02*
X81175000Y-118650000I100000J0D01*
G01*
G37*
G36*
G01*
X80525000Y-118650000D02*
X80725000Y-118650000D01*
G75*
G02*
X80825000Y-118750000I0J-100000D01*
G01*
X80825000Y-120025000D01*
G75*
G02*
X80725000Y-120125000I-100000J0D01*
G01*
X80525000Y-120125000D01*
G75*
G02*
X80425000Y-120025000I0J100000D01*
G01*
X80425000Y-118750000D01*
G75*
G02*
X80525000Y-118650000I100000J0D01*
G01*
G37*
G36*
G01*
X79875000Y-118650000D02*
X80075000Y-118650000D01*
G75*
G02*
X80175000Y-118750000I0J-100000D01*
G01*
X80175000Y-120025000D01*
G75*
G02*
X80075000Y-120125000I-100000J0D01*
G01*
X79875000Y-120125000D01*
G75*
G02*
X79775000Y-120025000I0J100000D01*
G01*
X79775000Y-118750000D01*
G75*
G02*
X79875000Y-118650000I100000J0D01*
G01*
G37*
G36*
G01*
X79225000Y-118650000D02*
X79425000Y-118650000D01*
G75*
G02*
X79525000Y-118750000I0J-100000D01*
G01*
X79525000Y-120025000D01*
G75*
G02*
X79425000Y-120125000I-100000J0D01*
G01*
X79225000Y-120125000D01*
G75*
G02*
X79125000Y-120025000I0J100000D01*
G01*
X79125000Y-118750000D01*
G75*
G02*
X79225000Y-118650000I100000J0D01*
G01*
G37*
G36*
G01*
X78575000Y-118650000D02*
X78775000Y-118650000D01*
G75*
G02*
X78875000Y-118750000I0J-100000D01*
G01*
X78875000Y-120025000D01*
G75*
G02*
X78775000Y-120125000I-100000J0D01*
G01*
X78575000Y-120125000D01*
G75*
G02*
X78475000Y-120025000I0J100000D01*
G01*
X78475000Y-118750000D01*
G75*
G02*
X78575000Y-118650000I100000J0D01*
G01*
G37*
G36*
G01*
X77925000Y-118650000D02*
X78125000Y-118650000D01*
G75*
G02*
X78225000Y-118750000I0J-100000D01*
G01*
X78225000Y-120025000D01*
G75*
G02*
X78125000Y-120125000I-100000J0D01*
G01*
X77925000Y-120125000D01*
G75*
G02*
X77825000Y-120025000I0J100000D01*
G01*
X77825000Y-118750000D01*
G75*
G02*
X77925000Y-118650000I100000J0D01*
G01*
G37*
G36*
G01*
X77275000Y-118650000D02*
X77475000Y-118650000D01*
G75*
G02*
X77575000Y-118750000I0J-100000D01*
G01*
X77575000Y-120025000D01*
G75*
G02*
X77475000Y-120125000I-100000J0D01*
G01*
X77275000Y-120125000D01*
G75*
G02*
X77175000Y-120025000I0J100000D01*
G01*
X77175000Y-118750000D01*
G75*
G02*
X77275000Y-118650000I100000J0D01*
G01*
G37*
G36*
G01*
X76625000Y-118650000D02*
X76825000Y-118650000D01*
G75*
G02*
X76925000Y-118750000I0J-100000D01*
G01*
X76925000Y-120025000D01*
G75*
G02*
X76825000Y-120125000I-100000J0D01*
G01*
X76625000Y-120125000D01*
G75*
G02*
X76525000Y-120025000I0J100000D01*
G01*
X76525000Y-118750000D01*
G75*
G02*
X76625000Y-118650000I100000J0D01*
G01*
G37*
G36*
G01*
X75975000Y-118650000D02*
X76175000Y-118650000D01*
G75*
G02*
X76275000Y-118750000I0J-100000D01*
G01*
X76275000Y-120025000D01*
G75*
G02*
X76175000Y-120125000I-100000J0D01*
G01*
X75975000Y-120125000D01*
G75*
G02*
X75875000Y-120025000I0J100000D01*
G01*
X75875000Y-118750000D01*
G75*
G02*
X75975000Y-118650000I100000J0D01*
G01*
G37*
G36*
G01*
X75325000Y-118650000D02*
X75525000Y-118650000D01*
G75*
G02*
X75625000Y-118750000I0J-100000D01*
G01*
X75625000Y-120025000D01*
G75*
G02*
X75525000Y-120125000I-100000J0D01*
G01*
X75325000Y-120125000D01*
G75*
G02*
X75225000Y-120025000I0J100000D01*
G01*
X75225000Y-118750000D01*
G75*
G02*
X75325000Y-118650000I100000J0D01*
G01*
G37*
G36*
G01*
X75325000Y-124375000D02*
X75525000Y-124375000D01*
G75*
G02*
X75625000Y-124475000I0J-100000D01*
G01*
X75625000Y-125750000D01*
G75*
G02*
X75525000Y-125850000I-100000J0D01*
G01*
X75325000Y-125850000D01*
G75*
G02*
X75225000Y-125750000I0J100000D01*
G01*
X75225000Y-124475000D01*
G75*
G02*
X75325000Y-124375000I100000J0D01*
G01*
G37*
G36*
G01*
X75975000Y-124375000D02*
X76175000Y-124375000D01*
G75*
G02*
X76275000Y-124475000I0J-100000D01*
G01*
X76275000Y-125750000D01*
G75*
G02*
X76175000Y-125850000I-100000J0D01*
G01*
X75975000Y-125850000D01*
G75*
G02*
X75875000Y-125750000I0J100000D01*
G01*
X75875000Y-124475000D01*
G75*
G02*
X75975000Y-124375000I100000J0D01*
G01*
G37*
G36*
G01*
X76625000Y-124375000D02*
X76825000Y-124375000D01*
G75*
G02*
X76925000Y-124475000I0J-100000D01*
G01*
X76925000Y-125750000D01*
G75*
G02*
X76825000Y-125850000I-100000J0D01*
G01*
X76625000Y-125850000D01*
G75*
G02*
X76525000Y-125750000I0J100000D01*
G01*
X76525000Y-124475000D01*
G75*
G02*
X76625000Y-124375000I100000J0D01*
G01*
G37*
G36*
G01*
X77275000Y-124375000D02*
X77475000Y-124375000D01*
G75*
G02*
X77575000Y-124475000I0J-100000D01*
G01*
X77575000Y-125750000D01*
G75*
G02*
X77475000Y-125850000I-100000J0D01*
G01*
X77275000Y-125850000D01*
G75*
G02*
X77175000Y-125750000I0J100000D01*
G01*
X77175000Y-124475000D01*
G75*
G02*
X77275000Y-124375000I100000J0D01*
G01*
G37*
G36*
G01*
X77925000Y-124375000D02*
X78125000Y-124375000D01*
G75*
G02*
X78225000Y-124475000I0J-100000D01*
G01*
X78225000Y-125750000D01*
G75*
G02*
X78125000Y-125850000I-100000J0D01*
G01*
X77925000Y-125850000D01*
G75*
G02*
X77825000Y-125750000I0J100000D01*
G01*
X77825000Y-124475000D01*
G75*
G02*
X77925000Y-124375000I100000J0D01*
G01*
G37*
G36*
G01*
X78575000Y-124375000D02*
X78775000Y-124375000D01*
G75*
G02*
X78875000Y-124475000I0J-100000D01*
G01*
X78875000Y-125750000D01*
G75*
G02*
X78775000Y-125850000I-100000J0D01*
G01*
X78575000Y-125850000D01*
G75*
G02*
X78475000Y-125750000I0J100000D01*
G01*
X78475000Y-124475000D01*
G75*
G02*
X78575000Y-124375000I100000J0D01*
G01*
G37*
G36*
G01*
X79225000Y-124375000D02*
X79425000Y-124375000D01*
G75*
G02*
X79525000Y-124475000I0J-100000D01*
G01*
X79525000Y-125750000D01*
G75*
G02*
X79425000Y-125850000I-100000J0D01*
G01*
X79225000Y-125850000D01*
G75*
G02*
X79125000Y-125750000I0J100000D01*
G01*
X79125000Y-124475000D01*
G75*
G02*
X79225000Y-124375000I100000J0D01*
G01*
G37*
G36*
G01*
X79875000Y-124375000D02*
X80075000Y-124375000D01*
G75*
G02*
X80175000Y-124475000I0J-100000D01*
G01*
X80175000Y-125750000D01*
G75*
G02*
X80075000Y-125850000I-100000J0D01*
G01*
X79875000Y-125850000D01*
G75*
G02*
X79775000Y-125750000I0J100000D01*
G01*
X79775000Y-124475000D01*
G75*
G02*
X79875000Y-124375000I100000J0D01*
G01*
G37*
G36*
G01*
X80525000Y-124375000D02*
X80725000Y-124375000D01*
G75*
G02*
X80825000Y-124475000I0J-100000D01*
G01*
X80825000Y-125750000D01*
G75*
G02*
X80725000Y-125850000I-100000J0D01*
G01*
X80525000Y-125850000D01*
G75*
G02*
X80425000Y-125750000I0J100000D01*
G01*
X80425000Y-124475000D01*
G75*
G02*
X80525000Y-124375000I100000J0D01*
G01*
G37*
G36*
G01*
X81175000Y-124375000D02*
X81375000Y-124375000D01*
G75*
G02*
X81475000Y-124475000I0J-100000D01*
G01*
X81475000Y-125750000D01*
G75*
G02*
X81375000Y-125850000I-100000J0D01*
G01*
X81175000Y-125850000D01*
G75*
G02*
X81075000Y-125750000I0J100000D01*
G01*
X81075000Y-124475000D01*
G75*
G02*
X81175000Y-124375000I100000J0D01*
G01*
G37*
G36*
G01*
X81825000Y-124375000D02*
X82025000Y-124375000D01*
G75*
G02*
X82125000Y-124475000I0J-100000D01*
G01*
X82125000Y-125750000D01*
G75*
G02*
X82025000Y-125850000I-100000J0D01*
G01*
X81825000Y-125850000D01*
G75*
G02*
X81725000Y-125750000I0J100000D01*
G01*
X81725000Y-124475000D01*
G75*
G02*
X81825000Y-124375000I100000J0D01*
G01*
G37*
G36*
G01*
X82475000Y-124375000D02*
X82675000Y-124375000D01*
G75*
G02*
X82775000Y-124475000I0J-100000D01*
G01*
X82775000Y-125750000D01*
G75*
G02*
X82675000Y-125850000I-100000J0D01*
G01*
X82475000Y-125850000D01*
G75*
G02*
X82375000Y-125750000I0J100000D01*
G01*
X82375000Y-124475000D01*
G75*
G02*
X82475000Y-124375000I100000J0D01*
G01*
G37*
G04 #@! TD*
G04 #@! TO.C,R13*
G36*
G01*
X108875000Y-61562500D02*
X107625000Y-61562500D01*
G75*
G02*
X107375000Y-61312500I0J250000D01*
G01*
X107375000Y-60687500D01*
G75*
G02*
X107625000Y-60437500I250000J0D01*
G01*
X108875000Y-60437500D01*
G75*
G02*
X109125000Y-60687500I0J-250000D01*
G01*
X109125000Y-61312500D01*
G75*
G02*
X108875000Y-61562500I-250000J0D01*
G01*
G37*
G36*
G01*
X108875000Y-58637500D02*
X107625000Y-58637500D01*
G75*
G02*
X107375000Y-58387500I0J250000D01*
G01*
X107375000Y-57762500D01*
G75*
G02*
X107625000Y-57512500I250000J0D01*
G01*
X108875000Y-57512500D01*
G75*
G02*
X109125000Y-57762500I0J-250000D01*
G01*
X109125000Y-58387500D01*
G75*
G02*
X108875000Y-58637500I-250000J0D01*
G01*
G37*
G04 #@! TD*
G04 #@! TO.C,U8*
G36*
G01*
X93395000Y-87100000D02*
X93095000Y-87100000D01*
G75*
G02*
X92945000Y-86950000I0J150000D01*
G01*
X92945000Y-85300000D01*
G75*
G02*
X93095000Y-85150000I150000J0D01*
G01*
X93395000Y-85150000D01*
G75*
G02*
X93545000Y-85300000I0J-150000D01*
G01*
X93545000Y-86950000D01*
G75*
G02*
X93395000Y-87100000I-150000J0D01*
G01*
G37*
G36*
G01*
X94665000Y-87100000D02*
X94365000Y-87100000D01*
G75*
G02*
X94215000Y-86950000I0J150000D01*
G01*
X94215000Y-85300000D01*
G75*
G02*
X94365000Y-85150000I150000J0D01*
G01*
X94665000Y-85150000D01*
G75*
G02*
X94815000Y-85300000I0J-150000D01*
G01*
X94815000Y-86950000D01*
G75*
G02*
X94665000Y-87100000I-150000J0D01*
G01*
G37*
G36*
G01*
X95935000Y-87100000D02*
X95635000Y-87100000D01*
G75*
G02*
X95485000Y-86950000I0J150000D01*
G01*
X95485000Y-85300000D01*
G75*
G02*
X95635000Y-85150000I150000J0D01*
G01*
X95935000Y-85150000D01*
G75*
G02*
X96085000Y-85300000I0J-150000D01*
G01*
X96085000Y-86950000D01*
G75*
G02*
X95935000Y-87100000I-150000J0D01*
G01*
G37*
G36*
G01*
X97205000Y-87100000D02*
X96905000Y-87100000D01*
G75*
G02*
X96755000Y-86950000I0J150000D01*
G01*
X96755000Y-85300000D01*
G75*
G02*
X96905000Y-85150000I150000J0D01*
G01*
X97205000Y-85150000D01*
G75*
G02*
X97355000Y-85300000I0J-150000D01*
G01*
X97355000Y-86950000D01*
G75*
G02*
X97205000Y-87100000I-150000J0D01*
G01*
G37*
G36*
G01*
X97205000Y-82150000D02*
X96905000Y-82150000D01*
G75*
G02*
X96755000Y-82000000I0J150000D01*
G01*
X96755000Y-80350000D01*
G75*
G02*
X96905000Y-80200000I150000J0D01*
G01*
X97205000Y-80200000D01*
G75*
G02*
X97355000Y-80350000I0J-150000D01*
G01*
X97355000Y-82000000D01*
G75*
G02*
X97205000Y-82150000I-150000J0D01*
G01*
G37*
G36*
G01*
X95935000Y-82150000D02*
X95635000Y-82150000D01*
G75*
G02*
X95485000Y-82000000I0J150000D01*
G01*
X95485000Y-80350000D01*
G75*
G02*
X95635000Y-80200000I150000J0D01*
G01*
X95935000Y-80200000D01*
G75*
G02*
X96085000Y-80350000I0J-150000D01*
G01*
X96085000Y-82000000D01*
G75*
G02*
X95935000Y-82150000I-150000J0D01*
G01*
G37*
G36*
G01*
X94665000Y-82150000D02*
X94365000Y-82150000D01*
G75*
G02*
X94215000Y-82000000I0J150000D01*
G01*
X94215000Y-80350000D01*
G75*
G02*
X94365000Y-80200000I150000J0D01*
G01*
X94665000Y-80200000D01*
G75*
G02*
X94815000Y-80350000I0J-150000D01*
G01*
X94815000Y-82000000D01*
G75*
G02*
X94665000Y-82150000I-150000J0D01*
G01*
G37*
G36*
G01*
X93395000Y-82150000D02*
X93095000Y-82150000D01*
G75*
G02*
X92945000Y-82000000I0J150000D01*
G01*
X92945000Y-80350000D01*
G75*
G02*
X93095000Y-80200000I150000J0D01*
G01*
X93395000Y-80200000D01*
G75*
G02*
X93545000Y-80350000I0J-150000D01*
G01*
X93545000Y-82000000D01*
G75*
G02*
X93395000Y-82150000I-150000J0D01*
G01*
G37*
G04 #@! TD*
G04 #@! TO.C,R25*
G36*
G01*
X104100000Y-73610000D02*
X104100000Y-74390000D01*
G75*
G02*
X104030000Y-74460000I-70000J0D01*
G01*
X103470000Y-74460000D01*
G75*
G02*
X103400000Y-74390000I0J70000D01*
G01*
X103400000Y-73610000D01*
G75*
G02*
X103470000Y-73540000I70000J0D01*
G01*
X104030000Y-73540000D01*
G75*
G02*
X104100000Y-73610000I0J-70000D01*
G01*
G37*
G36*
G01*
X102500000Y-73610000D02*
X102500000Y-74390000D01*
G75*
G02*
X102430000Y-74460000I-70000J0D01*
G01*
X101870000Y-74460000D01*
G75*
G02*
X101800000Y-74390000I0J70000D01*
G01*
X101800000Y-73610000D01*
G75*
G02*
X101870000Y-73540000I70000J0D01*
G01*
X102430000Y-73540000D01*
G75*
G02*
X102500000Y-73610000I0J-70000D01*
G01*
G37*
G04 #@! TD*
G04 #@! TO.C,F2*
G36*
G01*
X122600000Y-48144990D02*
X122600000Y-47454990D01*
G75*
G02*
X122830000Y-47224990I230000J0D01*
G01*
X124170000Y-47224990D01*
G75*
G02*
X124400000Y-47454990I0J-230000D01*
G01*
X124400000Y-48144990D01*
G75*
G02*
X124170000Y-48374990I-230000J0D01*
G01*
X122830000Y-48374990D01*
G75*
G02*
X122600000Y-48144990I0J230000D01*
G01*
G37*
G36*
G01*
X122600000Y-51045010D02*
X122600000Y-50355010D01*
G75*
G02*
X122830000Y-50125010I230000J0D01*
G01*
X124170000Y-50125010D01*
G75*
G02*
X124400000Y-50355010I0J-230000D01*
G01*
X124400000Y-51045010D01*
G75*
G02*
X124170000Y-51275010I-230000J0D01*
G01*
X122830000Y-51275010D01*
G75*
G02*
X122600000Y-51045010I0J230000D01*
G01*
G37*
G04 #@! TD*
G04 #@! TO.C,R5*
G36*
G01*
X81685000Y-117520000D02*
X81315000Y-117520000D01*
G75*
G02*
X81180000Y-117385000I0J135000D01*
G01*
X81180000Y-117115000D01*
G75*
G02*
X81315000Y-116980000I135000J0D01*
G01*
X81685000Y-116980000D01*
G75*
G02*
X81820000Y-117115000I0J-135000D01*
G01*
X81820000Y-117385000D01*
G75*
G02*
X81685000Y-117520000I-135000J0D01*
G01*
G37*
G36*
G01*
X81685000Y-116500000D02*
X81315000Y-116500000D01*
G75*
G02*
X81180000Y-116365000I0J135000D01*
G01*
X81180000Y-116095000D01*
G75*
G02*
X81315000Y-115960000I135000J0D01*
G01*
X81685000Y-115960000D01*
G75*
G02*
X81820000Y-116095000I0J-135000D01*
G01*
X81820000Y-116365000D01*
G75*
G02*
X81685000Y-116500000I-135000J0D01*
G01*
G37*
G04 #@! TD*
G04 #@! TO.C,R3*
G36*
G01*
X83300000Y-135390000D02*
X83300000Y-134610000D01*
G75*
G02*
X83370000Y-134540000I70000J0D01*
G01*
X83930000Y-134540000D01*
G75*
G02*
X84000000Y-134610000I0J-70000D01*
G01*
X84000000Y-135390000D01*
G75*
G02*
X83930000Y-135460000I-70000J0D01*
G01*
X83370000Y-135460000D01*
G75*
G02*
X83300000Y-135390000I0J70000D01*
G01*
G37*
G36*
G01*
X84900000Y-135390000D02*
X84900000Y-134610000D01*
G75*
G02*
X84970000Y-134540000I70000J0D01*
G01*
X85530000Y-134540000D01*
G75*
G02*
X85600000Y-134610000I0J-70000D01*
G01*
X85600000Y-135390000D01*
G75*
G02*
X85530000Y-135460000I-70000J0D01*
G01*
X84970000Y-135460000D01*
G75*
G02*
X84900000Y-135390000I0J70000D01*
G01*
G37*
G04 #@! TD*
G04 #@! TO.C,R40*
G36*
G01*
X119950000Y-78340000D02*
X119950000Y-77560000D01*
G75*
G02*
X120020000Y-77490000I70000J0D01*
G01*
X120580000Y-77490000D01*
G75*
G02*
X120650000Y-77560000I0J-70000D01*
G01*
X120650000Y-78340000D01*
G75*
G02*
X120580000Y-78410000I-70000J0D01*
G01*
X120020000Y-78410000D01*
G75*
G02*
X119950000Y-78340000I0J70000D01*
G01*
G37*
G36*
G01*
X121550000Y-78340000D02*
X121550000Y-77560000D01*
G75*
G02*
X121620000Y-77490000I70000J0D01*
G01*
X122180000Y-77490000D01*
G75*
G02*
X122250000Y-77560000I0J-70000D01*
G01*
X122250000Y-78340000D01*
G75*
G02*
X122180000Y-78410000I-70000J0D01*
G01*
X121620000Y-78410000D01*
G75*
G02*
X121550000Y-78340000I0J70000D01*
G01*
G37*
G04 #@! TD*
G04 #@! TO.C,S1*
G36*
G01*
X121520000Y-125299999D02*
X123480000Y-125299999D01*
G75*
G02*
X123600000Y-125419999I0J-120000D01*
G01*
X123600000Y-126379999D01*
G75*
G02*
X123480000Y-126499999I-120000J0D01*
G01*
X121520000Y-126499999D01*
G75*
G02*
X121400000Y-126379999I0J120000D01*
G01*
X121400000Y-125419999D01*
G75*
G02*
X121520000Y-125299999I120000J0D01*
G01*
G37*
G36*
G01*
X121520000Y-129500000D02*
X123480000Y-129500000D01*
G75*
G02*
X123600000Y-129620000I0J-120000D01*
G01*
X123600000Y-130580000D01*
G75*
G02*
X123480000Y-130700000I-120000J0D01*
G01*
X121520000Y-130700000D01*
G75*
G02*
X121400000Y-130580000I0J120000D01*
G01*
X121400000Y-129620000D01*
G75*
G02*
X121520000Y-129500000I120000J0D01*
G01*
G37*
G04 #@! TD*
G04 #@! TO.C,R23*
G36*
G01*
X86375000Y-72487500D02*
X85125000Y-72487500D01*
G75*
G02*
X84875000Y-72237500I0J250000D01*
G01*
X84875000Y-71612500D01*
G75*
G02*
X85125000Y-71362500I250000J0D01*
G01*
X86375000Y-71362500D01*
G75*
G02*
X86625000Y-71612500I0J-250000D01*
G01*
X86625000Y-72237500D01*
G75*
G02*
X86375000Y-72487500I-250000J0D01*
G01*
G37*
G36*
G01*
X86375000Y-69562500D02*
X85125000Y-69562500D01*
G75*
G02*
X84875000Y-69312500I0J250000D01*
G01*
X84875000Y-68687500D01*
G75*
G02*
X85125000Y-68437500I250000J0D01*
G01*
X86375000Y-68437500D01*
G75*
G02*
X86625000Y-68687500I0J-250000D01*
G01*
X86625000Y-69312500D01*
G75*
G02*
X86375000Y-69562500I-250000J0D01*
G01*
G37*
G04 #@! TD*
G04 #@! TO.C,C5*
G36*
G01*
X108407500Y-115530000D02*
X108067500Y-115530000D01*
G75*
G02*
X107927500Y-115390000I0J140000D01*
G01*
X107927500Y-115110000D01*
G75*
G02*
X108067500Y-114970000I140000J0D01*
G01*
X108407500Y-114970000D01*
G75*
G02*
X108547500Y-115110000I0J-140000D01*
G01*
X108547500Y-115390000D01*
G75*
G02*
X108407500Y-115530000I-140000J0D01*
G01*
G37*
G36*
G01*
X108407500Y-114570000D02*
X108067500Y-114570000D01*
G75*
G02*
X107927500Y-114430000I0J140000D01*
G01*
X107927500Y-114150000D01*
G75*
G02*
X108067500Y-114010000I140000J0D01*
G01*
X108407500Y-114010000D01*
G75*
G02*
X108547500Y-114150000I0J-140000D01*
G01*
X108547500Y-114430000D01*
G75*
G02*
X108407500Y-114570000I-140000J0D01*
G01*
G37*
G04 #@! TD*
G04 #@! TO.C,R35*
G36*
G01*
X92450000Y-88540000D02*
X92450000Y-87760000D01*
G75*
G02*
X92520000Y-87690000I70000J0D01*
G01*
X93080000Y-87690000D01*
G75*
G02*
X93150000Y-87760000I0J-70000D01*
G01*
X93150000Y-88540000D01*
G75*
G02*
X93080000Y-88610000I-70000J0D01*
G01*
X92520000Y-88610000D01*
G75*
G02*
X92450000Y-88540000I0J70000D01*
G01*
G37*
G36*
G01*
X94050000Y-88540000D02*
X94050000Y-87760000D01*
G75*
G02*
X94120000Y-87690000I70000J0D01*
G01*
X94680000Y-87690000D01*
G75*
G02*
X94750000Y-87760000I0J-70000D01*
G01*
X94750000Y-88540000D01*
G75*
G02*
X94680000Y-88610000I-70000J0D01*
G01*
X94120000Y-88610000D01*
G75*
G02*
X94050000Y-88540000I0J70000D01*
G01*
G37*
G04 #@! TD*
G04 #@! TO.C,D4*
G36*
G01*
X122740000Y-59900000D02*
X123760000Y-59900000D01*
G75*
G02*
X123850000Y-59990000I0J-90000D01*
G01*
X123850000Y-60710000D01*
G75*
G02*
X123760000Y-60800000I-90000J0D01*
G01*
X122740000Y-60800000D01*
G75*
G02*
X122650000Y-60710000I0J90000D01*
G01*
X122650000Y-59990000D01*
G75*
G02*
X122740000Y-59900000I90000J0D01*
G01*
G37*
G36*
G01*
X122740000Y-63200000D02*
X123760000Y-63200000D01*
G75*
G02*
X123850000Y-63290000I0J-90000D01*
G01*
X123850000Y-64010000D01*
G75*
G02*
X123760000Y-64100000I-90000J0D01*
G01*
X122740000Y-64100000D01*
G75*
G02*
X122650000Y-64010000I0J90000D01*
G01*
X122650000Y-63290000D01*
G75*
G02*
X122740000Y-63200000I90000J0D01*
G01*
G37*
G04 #@! TD*
G04 #@! TO.C,R17*
G36*
G01*
X110350000Y-62110000D02*
X110350000Y-62890000D01*
G75*
G02*
X110280000Y-62960000I-70000J0D01*
G01*
X109720000Y-62960000D01*
G75*
G02*
X109650000Y-62890000I0J70000D01*
G01*
X109650000Y-62110000D01*
G75*
G02*
X109720000Y-62040000I70000J0D01*
G01*
X110280000Y-62040000D01*
G75*
G02*
X110350000Y-62110000I0J-70000D01*
G01*
G37*
G36*
G01*
X108750000Y-62110000D02*
X108750000Y-62890000D01*
G75*
G02*
X108680000Y-62960000I-70000J0D01*
G01*
X108120000Y-62960000D01*
G75*
G02*
X108050000Y-62890000I0J70000D01*
G01*
X108050000Y-62110000D01*
G75*
G02*
X108120000Y-62040000I70000J0D01*
G01*
X108680000Y-62040000D01*
G75*
G02*
X108750000Y-62110000I0J-70000D01*
G01*
G37*
G04 #@! TD*
G04 #@! TO.C,R31*
G36*
G01*
X97750000Y-87760000D02*
X97750000Y-88540000D01*
G75*
G02*
X97680000Y-88610000I-70000J0D01*
G01*
X97120000Y-88610000D01*
G75*
G02*
X97050000Y-88540000I0J70000D01*
G01*
X97050000Y-87760000D01*
G75*
G02*
X97120000Y-87690000I70000J0D01*
G01*
X97680000Y-87690000D01*
G75*
G02*
X97750000Y-87760000I0J-70000D01*
G01*
G37*
G36*
G01*
X96150000Y-87760000D02*
X96150000Y-88540000D01*
G75*
G02*
X96080000Y-88610000I-70000J0D01*
G01*
X95520000Y-88610000D01*
G75*
G02*
X95450000Y-88540000I0J70000D01*
G01*
X95450000Y-87760000D01*
G75*
G02*
X95520000Y-87690000I70000J0D01*
G01*
X96080000Y-87690000D01*
G75*
G02*
X96150000Y-87760000I0J-70000D01*
G01*
G37*
G04 #@! TD*
G04 #@! TO.C,D1*
G36*
G01*
X118010000Y-58850000D02*
X116990000Y-58850000D01*
G75*
G02*
X116900000Y-58760000I0J90000D01*
G01*
X116900000Y-58040000D01*
G75*
G02*
X116990000Y-57950000I90000J0D01*
G01*
X118010000Y-57950000D01*
G75*
G02*
X118100000Y-58040000I0J-90000D01*
G01*
X118100000Y-58760000D01*
G75*
G02*
X118010000Y-58850000I-90000J0D01*
G01*
G37*
G36*
G01*
X118010000Y-55550000D02*
X116990000Y-55550000D01*
G75*
G02*
X116900000Y-55460000I0J90000D01*
G01*
X116900000Y-54740000D01*
G75*
G02*
X116990000Y-54650000I90000J0D01*
G01*
X118010000Y-54650000D01*
G75*
G02*
X118100000Y-54740000I0J-90000D01*
G01*
X118100000Y-55460000D01*
G75*
G02*
X118010000Y-55550000I-90000J0D01*
G01*
G37*
G04 #@! TD*
M02*
