G04 #@! TF.GenerationSoftware,KiCad,Pcbnew,9.0.4*
G04 #@! TF.CreationDate,2025-12-07T20:06:33+10:00*
G04 #@! TF.ProjectId,trove8,74726f76-6538-42e6-9b69-6361645f7063,rev?*
G04 #@! TF.SameCoordinates,Original*
G04 #@! TF.FileFunction,Legend,Top*
G04 #@! TF.FilePolarity,Positive*
%FSLAX46Y46*%
G04 Gerber Fmt 4.6, Leading zero omitted, Abs format (unit mm)*
G04 Created by KiCad (PCBNEW 9.0.4) date 2025-12-07 20:06:33*
%MOMM*%
%LPD*%
G01*
G04 APERTURE LIST*
%ADD10C,0.170000*%
%ADD11C,0.150000*%
%ADD12C,0.127000*%
%ADD13C,0.120000*%
%ADD14C,0.200000*%
%ADD15C,0.203200*%
%ADD16C,0.254000*%
G04 APERTURE END LIST*
D10*
X119870508Y-62605237D02*
X119050508Y-62605237D01*
X119050508Y-62605237D02*
X119050508Y-62409999D01*
X119050508Y-62409999D02*
X119089556Y-62292856D01*
X119089556Y-62292856D02*
X119167651Y-62214761D01*
X119167651Y-62214761D02*
X119245746Y-62175714D01*
X119245746Y-62175714D02*
X119401937Y-62136666D01*
X119401937Y-62136666D02*
X119519080Y-62136666D01*
X119519080Y-62136666D02*
X119675270Y-62175714D01*
X119675270Y-62175714D02*
X119753365Y-62214761D01*
X119753365Y-62214761D02*
X119831461Y-62292856D01*
X119831461Y-62292856D02*
X119870508Y-62409999D01*
X119870508Y-62409999D02*
X119870508Y-62605237D01*
X119128603Y-61824285D02*
X119089556Y-61785237D01*
X119089556Y-61785237D02*
X119050508Y-61707142D01*
X119050508Y-61707142D02*
X119050508Y-61511904D01*
X119050508Y-61511904D02*
X119089556Y-61433809D01*
X119089556Y-61433809D02*
X119128603Y-61394761D01*
X119128603Y-61394761D02*
X119206699Y-61355714D01*
X119206699Y-61355714D02*
X119284794Y-61355714D01*
X119284794Y-61355714D02*
X119401937Y-61394761D01*
X119401937Y-61394761D02*
X119870508Y-61863333D01*
X119870508Y-61863333D02*
X119870508Y-61355714D01*
D11*
X157261905Y-121054819D02*
X157261905Y-120054819D01*
X157261905Y-120054819D02*
X157500000Y-120054819D01*
X157500000Y-120054819D02*
X157642857Y-120102438D01*
X157642857Y-120102438D02*
X157738095Y-120197676D01*
X157738095Y-120197676D02*
X157785714Y-120292914D01*
X157785714Y-120292914D02*
X157833333Y-120483390D01*
X157833333Y-120483390D02*
X157833333Y-120626247D01*
X157833333Y-120626247D02*
X157785714Y-120816723D01*
X157785714Y-120816723D02*
X157738095Y-120911961D01*
X157738095Y-120911961D02*
X157642857Y-121007200D01*
X157642857Y-121007200D02*
X157500000Y-121054819D01*
X157500000Y-121054819D02*
X157261905Y-121054819D01*
X158166667Y-120054819D02*
X158833333Y-120054819D01*
X158833333Y-120054819D02*
X158404762Y-121054819D01*
X79784819Y-117382857D02*
X79308628Y-117716190D01*
X79784819Y-117954285D02*
X78784819Y-117954285D01*
X78784819Y-117954285D02*
X78784819Y-117573333D01*
X78784819Y-117573333D02*
X78832438Y-117478095D01*
X78832438Y-117478095D02*
X78880057Y-117430476D01*
X78880057Y-117430476D02*
X78975295Y-117382857D01*
X78975295Y-117382857D02*
X79118152Y-117382857D01*
X79118152Y-117382857D02*
X79213390Y-117430476D01*
X79213390Y-117430476D02*
X79261009Y-117478095D01*
X79261009Y-117478095D02*
X79308628Y-117573333D01*
X79308628Y-117573333D02*
X79308628Y-117954285D01*
X79784819Y-116430476D02*
X79784819Y-117001904D01*
X79784819Y-116716190D02*
X78784819Y-116716190D01*
X78784819Y-116716190D02*
X78927676Y-116811428D01*
X78927676Y-116811428D02*
X79022914Y-116906666D01*
X79022914Y-116906666D02*
X79070533Y-117001904D01*
X78784819Y-115811428D02*
X78784819Y-115716190D01*
X78784819Y-115716190D02*
X78832438Y-115620952D01*
X78832438Y-115620952D02*
X78880057Y-115573333D01*
X78880057Y-115573333D02*
X78975295Y-115525714D01*
X78975295Y-115525714D02*
X79165771Y-115478095D01*
X79165771Y-115478095D02*
X79403866Y-115478095D01*
X79403866Y-115478095D02*
X79594342Y-115525714D01*
X79594342Y-115525714D02*
X79689580Y-115573333D01*
X79689580Y-115573333D02*
X79737200Y-115620952D01*
X79737200Y-115620952D02*
X79784819Y-115716190D01*
X79784819Y-115716190D02*
X79784819Y-115811428D01*
X79784819Y-115811428D02*
X79737200Y-115906666D01*
X79737200Y-115906666D02*
X79689580Y-115954285D01*
X79689580Y-115954285D02*
X79594342Y-116001904D01*
X79594342Y-116001904D02*
X79403866Y-116049523D01*
X79403866Y-116049523D02*
X79165771Y-116049523D01*
X79165771Y-116049523D02*
X78975295Y-116001904D01*
X78975295Y-116001904D02*
X78880057Y-115954285D01*
X78880057Y-115954285D02*
X78832438Y-115906666D01*
X78832438Y-115906666D02*
X78784819Y-115811428D01*
X112654819Y-74688094D02*
X113464342Y-74688094D01*
X113464342Y-74688094D02*
X113559580Y-74640475D01*
X113559580Y-74640475D02*
X113607200Y-74592856D01*
X113607200Y-74592856D02*
X113654819Y-74497618D01*
X113654819Y-74497618D02*
X113654819Y-74307142D01*
X113654819Y-74307142D02*
X113607200Y-74211904D01*
X113607200Y-74211904D02*
X113559580Y-74164285D01*
X113559580Y-74164285D02*
X113464342Y-74116666D01*
X113464342Y-74116666D02*
X112654819Y-74116666D01*
X113654819Y-73116666D02*
X113654819Y-73688094D01*
X113654819Y-73402380D02*
X112654819Y-73402380D01*
X112654819Y-73402380D02*
X112797676Y-73497618D01*
X112797676Y-73497618D02*
X112892914Y-73592856D01*
X112892914Y-73592856D02*
X112940533Y-73688094D01*
X112654819Y-72497618D02*
X112654819Y-72402380D01*
X112654819Y-72402380D02*
X112702438Y-72307142D01*
X112702438Y-72307142D02*
X112750057Y-72259523D01*
X112750057Y-72259523D02*
X112845295Y-72211904D01*
X112845295Y-72211904D02*
X113035771Y-72164285D01*
X113035771Y-72164285D02*
X113273866Y-72164285D01*
X113273866Y-72164285D02*
X113464342Y-72211904D01*
X113464342Y-72211904D02*
X113559580Y-72259523D01*
X113559580Y-72259523D02*
X113607200Y-72307142D01*
X113607200Y-72307142D02*
X113654819Y-72402380D01*
X113654819Y-72402380D02*
X113654819Y-72497618D01*
X113654819Y-72497618D02*
X113607200Y-72592856D01*
X113607200Y-72592856D02*
X113559580Y-72640475D01*
X113559580Y-72640475D02*
X113464342Y-72688094D01*
X113464342Y-72688094D02*
X113273866Y-72735713D01*
X113273866Y-72735713D02*
X113035771Y-72735713D01*
X113035771Y-72735713D02*
X112845295Y-72688094D01*
X112845295Y-72688094D02*
X112750057Y-72640475D01*
X112750057Y-72640475D02*
X112702438Y-72592856D01*
X112702438Y-72592856D02*
X112654819Y-72497618D01*
X105429580Y-111416666D02*
X105477200Y-111464285D01*
X105477200Y-111464285D02*
X105524819Y-111607142D01*
X105524819Y-111607142D02*
X105524819Y-111702380D01*
X105524819Y-111702380D02*
X105477200Y-111845237D01*
X105477200Y-111845237D02*
X105381961Y-111940475D01*
X105381961Y-111940475D02*
X105286723Y-111988094D01*
X105286723Y-111988094D02*
X105096247Y-112035713D01*
X105096247Y-112035713D02*
X104953390Y-112035713D01*
X104953390Y-112035713D02*
X104762914Y-111988094D01*
X104762914Y-111988094D02*
X104667676Y-111940475D01*
X104667676Y-111940475D02*
X104572438Y-111845237D01*
X104572438Y-111845237D02*
X104524819Y-111702380D01*
X104524819Y-111702380D02*
X104524819Y-111607142D01*
X104524819Y-111607142D02*
X104572438Y-111464285D01*
X104572438Y-111464285D02*
X104620057Y-111416666D01*
X104524819Y-111083332D02*
X104524819Y-110464285D01*
X104524819Y-110464285D02*
X104905771Y-110797618D01*
X104905771Y-110797618D02*
X104905771Y-110654761D01*
X104905771Y-110654761D02*
X104953390Y-110559523D01*
X104953390Y-110559523D02*
X105001009Y-110511904D01*
X105001009Y-110511904D02*
X105096247Y-110464285D01*
X105096247Y-110464285D02*
X105334342Y-110464285D01*
X105334342Y-110464285D02*
X105429580Y-110511904D01*
X105429580Y-110511904D02*
X105477200Y-110559523D01*
X105477200Y-110559523D02*
X105524819Y-110654761D01*
X105524819Y-110654761D02*
X105524819Y-110940475D01*
X105524819Y-110940475D02*
X105477200Y-111035713D01*
X105477200Y-111035713D02*
X105429580Y-111083332D01*
X92874819Y-71105357D02*
X92398628Y-71438690D01*
X92874819Y-71676785D02*
X91874819Y-71676785D01*
X91874819Y-71676785D02*
X91874819Y-71295833D01*
X91874819Y-71295833D02*
X91922438Y-71200595D01*
X91922438Y-71200595D02*
X91970057Y-71152976D01*
X91970057Y-71152976D02*
X92065295Y-71105357D01*
X92065295Y-71105357D02*
X92208152Y-71105357D01*
X92208152Y-71105357D02*
X92303390Y-71152976D01*
X92303390Y-71152976D02*
X92351009Y-71200595D01*
X92351009Y-71200595D02*
X92398628Y-71295833D01*
X92398628Y-71295833D02*
X92398628Y-71676785D01*
X91970057Y-70724404D02*
X91922438Y-70676785D01*
X91922438Y-70676785D02*
X91874819Y-70581547D01*
X91874819Y-70581547D02*
X91874819Y-70343452D01*
X91874819Y-70343452D02*
X91922438Y-70248214D01*
X91922438Y-70248214D02*
X91970057Y-70200595D01*
X91970057Y-70200595D02*
X92065295Y-70152976D01*
X92065295Y-70152976D02*
X92160533Y-70152976D01*
X92160533Y-70152976D02*
X92303390Y-70200595D01*
X92303390Y-70200595D02*
X92874819Y-70772023D01*
X92874819Y-70772023D02*
X92874819Y-70152976D01*
X91970057Y-69772023D02*
X91922438Y-69724404D01*
X91922438Y-69724404D02*
X91874819Y-69629166D01*
X91874819Y-69629166D02*
X91874819Y-69391071D01*
X91874819Y-69391071D02*
X91922438Y-69295833D01*
X91922438Y-69295833D02*
X91970057Y-69248214D01*
X91970057Y-69248214D02*
X92065295Y-69200595D01*
X92065295Y-69200595D02*
X92160533Y-69200595D01*
X92160533Y-69200595D02*
X92303390Y-69248214D01*
X92303390Y-69248214D02*
X92874819Y-69819642D01*
X92874819Y-69819642D02*
X92874819Y-69200595D01*
X76611009Y-114522023D02*
X76611009Y-114855356D01*
X77134819Y-114855356D02*
X76134819Y-114855356D01*
X76134819Y-114855356D02*
X76134819Y-114379166D01*
X77134819Y-113474404D02*
X77134819Y-114045832D01*
X77134819Y-113760118D02*
X76134819Y-113760118D01*
X76134819Y-113760118D02*
X76277676Y-113855356D01*
X76277676Y-113855356D02*
X76372914Y-113950594D01*
X76372914Y-113950594D02*
X76420533Y-114045832D01*
X76134819Y-112855356D02*
X76134819Y-112760118D01*
X76134819Y-112760118D02*
X76182438Y-112664880D01*
X76182438Y-112664880D02*
X76230057Y-112617261D01*
X76230057Y-112617261D02*
X76325295Y-112569642D01*
X76325295Y-112569642D02*
X76515771Y-112522023D01*
X76515771Y-112522023D02*
X76753866Y-112522023D01*
X76753866Y-112522023D02*
X76944342Y-112569642D01*
X76944342Y-112569642D02*
X77039580Y-112617261D01*
X77039580Y-112617261D02*
X77087200Y-112664880D01*
X77087200Y-112664880D02*
X77134819Y-112760118D01*
X77134819Y-112760118D02*
X77134819Y-112855356D01*
X77134819Y-112855356D02*
X77087200Y-112950594D01*
X77087200Y-112950594D02*
X77039580Y-112998213D01*
X77039580Y-112998213D02*
X76944342Y-113045832D01*
X76944342Y-113045832D02*
X76753866Y-113093451D01*
X76753866Y-113093451D02*
X76515771Y-113093451D01*
X76515771Y-113093451D02*
X76325295Y-113045832D01*
X76325295Y-113045832D02*
X76230057Y-112998213D01*
X76230057Y-112998213D02*
X76182438Y-112950594D01*
X76182438Y-112950594D02*
X76134819Y-112855356D01*
D10*
X124309907Y-78713014D02*
X124583240Y-79103490D01*
X124778478Y-78713014D02*
X124778478Y-79533014D01*
X124778478Y-79533014D02*
X124466097Y-79533014D01*
X124466097Y-79533014D02*
X124388002Y-79493966D01*
X124388002Y-79493966D02*
X124348955Y-79454919D01*
X124348955Y-79454919D02*
X124309907Y-79376823D01*
X124309907Y-79376823D02*
X124309907Y-79259681D01*
X124309907Y-79259681D02*
X124348955Y-79181585D01*
X124348955Y-79181585D02*
X124388002Y-79142538D01*
X124388002Y-79142538D02*
X124466097Y-79103490D01*
X124466097Y-79103490D02*
X124778478Y-79103490D01*
X124036574Y-79533014D02*
X123528955Y-79533014D01*
X123528955Y-79533014D02*
X123802288Y-79220633D01*
X123802288Y-79220633D02*
X123685145Y-79220633D01*
X123685145Y-79220633D02*
X123607050Y-79181585D01*
X123607050Y-79181585D02*
X123568002Y-79142538D01*
X123568002Y-79142538D02*
X123528955Y-79064442D01*
X123528955Y-79064442D02*
X123528955Y-78869204D01*
X123528955Y-78869204D02*
X123568002Y-78791109D01*
X123568002Y-78791109D02*
X123607050Y-78752062D01*
X123607050Y-78752062D02*
X123685145Y-78713014D01*
X123685145Y-78713014D02*
X123919431Y-78713014D01*
X123919431Y-78713014D02*
X123997526Y-78752062D01*
X123997526Y-78752062D02*
X124036574Y-78791109D01*
X123060384Y-79181585D02*
X123138479Y-79220633D01*
X123138479Y-79220633D02*
X123177526Y-79259681D01*
X123177526Y-79259681D02*
X123216574Y-79337776D01*
X123216574Y-79337776D02*
X123216574Y-79376823D01*
X123216574Y-79376823D02*
X123177526Y-79454919D01*
X123177526Y-79454919D02*
X123138479Y-79493966D01*
X123138479Y-79493966D02*
X123060384Y-79533014D01*
X123060384Y-79533014D02*
X122904193Y-79533014D01*
X122904193Y-79533014D02*
X122826098Y-79493966D01*
X122826098Y-79493966D02*
X122787050Y-79454919D01*
X122787050Y-79454919D02*
X122748003Y-79376823D01*
X122748003Y-79376823D02*
X122748003Y-79337776D01*
X122748003Y-79337776D02*
X122787050Y-79259681D01*
X122787050Y-79259681D02*
X122826098Y-79220633D01*
X122826098Y-79220633D02*
X122904193Y-79181585D01*
X122904193Y-79181585D02*
X123060384Y-79181585D01*
X123060384Y-79181585D02*
X123138479Y-79142538D01*
X123138479Y-79142538D02*
X123177526Y-79103490D01*
X123177526Y-79103490D02*
X123216574Y-79025395D01*
X123216574Y-79025395D02*
X123216574Y-78869204D01*
X123216574Y-78869204D02*
X123177526Y-78791109D01*
X123177526Y-78791109D02*
X123138479Y-78752062D01*
X123138479Y-78752062D02*
X123060384Y-78713014D01*
X123060384Y-78713014D02*
X122904193Y-78713014D01*
X122904193Y-78713014D02*
X122826098Y-78752062D01*
X122826098Y-78752062D02*
X122787050Y-78791109D01*
X122787050Y-78791109D02*
X122748003Y-78869204D01*
X122748003Y-78869204D02*
X122748003Y-79025395D01*
X122748003Y-79025395D02*
X122787050Y-79103490D01*
X122787050Y-79103490D02*
X122826098Y-79142538D01*
X122826098Y-79142538D02*
X122904193Y-79181585D01*
X85059907Y-88913014D02*
X85333240Y-89303490D01*
X85528478Y-88913014D02*
X85528478Y-89733014D01*
X85528478Y-89733014D02*
X85216097Y-89733014D01*
X85216097Y-89733014D02*
X85138002Y-89693966D01*
X85138002Y-89693966D02*
X85098955Y-89654919D01*
X85098955Y-89654919D02*
X85059907Y-89576823D01*
X85059907Y-89576823D02*
X85059907Y-89459681D01*
X85059907Y-89459681D02*
X85098955Y-89381585D01*
X85098955Y-89381585D02*
X85138002Y-89342538D01*
X85138002Y-89342538D02*
X85216097Y-89303490D01*
X85216097Y-89303490D02*
X85528478Y-89303490D01*
X84747526Y-89654919D02*
X84708478Y-89693966D01*
X84708478Y-89693966D02*
X84630383Y-89733014D01*
X84630383Y-89733014D02*
X84435145Y-89733014D01*
X84435145Y-89733014D02*
X84357050Y-89693966D01*
X84357050Y-89693966D02*
X84318002Y-89654919D01*
X84318002Y-89654919D02*
X84278955Y-89576823D01*
X84278955Y-89576823D02*
X84278955Y-89498728D01*
X84278955Y-89498728D02*
X84318002Y-89381585D01*
X84318002Y-89381585D02*
X84786574Y-88913014D01*
X84786574Y-88913014D02*
X84278955Y-88913014D01*
X83888479Y-88913014D02*
X83732288Y-88913014D01*
X83732288Y-88913014D02*
X83654193Y-88952062D01*
X83654193Y-88952062D02*
X83615145Y-88991109D01*
X83615145Y-88991109D02*
X83537050Y-89108252D01*
X83537050Y-89108252D02*
X83498003Y-89264442D01*
X83498003Y-89264442D02*
X83498003Y-89576823D01*
X83498003Y-89576823D02*
X83537050Y-89654919D01*
X83537050Y-89654919D02*
X83576098Y-89693966D01*
X83576098Y-89693966D02*
X83654193Y-89733014D01*
X83654193Y-89733014D02*
X83810384Y-89733014D01*
X83810384Y-89733014D02*
X83888479Y-89693966D01*
X83888479Y-89693966D02*
X83927526Y-89654919D01*
X83927526Y-89654919D02*
X83966574Y-89576823D01*
X83966574Y-89576823D02*
X83966574Y-89381585D01*
X83966574Y-89381585D02*
X83927526Y-89303490D01*
X83927526Y-89303490D02*
X83888479Y-89264442D01*
X83888479Y-89264442D02*
X83810384Y-89225395D01*
X83810384Y-89225395D02*
X83654193Y-89225395D01*
X83654193Y-89225395D02*
X83576098Y-89264442D01*
X83576098Y-89264442D02*
X83537050Y-89303490D01*
X83537050Y-89303490D02*
X83498003Y-89381585D01*
D11*
X77784819Y-117382857D02*
X77308628Y-117716190D01*
X77784819Y-117954285D02*
X76784819Y-117954285D01*
X76784819Y-117954285D02*
X76784819Y-117573333D01*
X76784819Y-117573333D02*
X76832438Y-117478095D01*
X76832438Y-117478095D02*
X76880057Y-117430476D01*
X76880057Y-117430476D02*
X76975295Y-117382857D01*
X76975295Y-117382857D02*
X77118152Y-117382857D01*
X77118152Y-117382857D02*
X77213390Y-117430476D01*
X77213390Y-117430476D02*
X77261009Y-117478095D01*
X77261009Y-117478095D02*
X77308628Y-117573333D01*
X77308628Y-117573333D02*
X77308628Y-117954285D01*
X77784819Y-116430476D02*
X77784819Y-117001904D01*
X77784819Y-116716190D02*
X76784819Y-116716190D01*
X76784819Y-116716190D02*
X76927676Y-116811428D01*
X76927676Y-116811428D02*
X77022914Y-116906666D01*
X77022914Y-116906666D02*
X77070533Y-117001904D01*
X77784819Y-115478095D02*
X77784819Y-116049523D01*
X77784819Y-115763809D02*
X76784819Y-115763809D01*
X76784819Y-115763809D02*
X76927676Y-115859047D01*
X76927676Y-115859047D02*
X77022914Y-115954285D01*
X77022914Y-115954285D02*
X77070533Y-116049523D01*
X82949580Y-125412857D02*
X82997200Y-125460476D01*
X82997200Y-125460476D02*
X83044819Y-125603333D01*
X83044819Y-125603333D02*
X83044819Y-125698571D01*
X83044819Y-125698571D02*
X82997200Y-125841428D01*
X82997200Y-125841428D02*
X82901961Y-125936666D01*
X82901961Y-125936666D02*
X82806723Y-125984285D01*
X82806723Y-125984285D02*
X82616247Y-126031904D01*
X82616247Y-126031904D02*
X82473390Y-126031904D01*
X82473390Y-126031904D02*
X82282914Y-125984285D01*
X82282914Y-125984285D02*
X82187676Y-125936666D01*
X82187676Y-125936666D02*
X82092438Y-125841428D01*
X82092438Y-125841428D02*
X82044819Y-125698571D01*
X82044819Y-125698571D02*
X82044819Y-125603333D01*
X82044819Y-125603333D02*
X82092438Y-125460476D01*
X82092438Y-125460476D02*
X82140057Y-125412857D01*
X83044819Y-124460476D02*
X83044819Y-125031904D01*
X83044819Y-124746190D02*
X82044819Y-124746190D01*
X82044819Y-124746190D02*
X82187676Y-124841428D01*
X82187676Y-124841428D02*
X82282914Y-124936666D01*
X82282914Y-124936666D02*
X82330533Y-125031904D01*
X82044819Y-123841428D02*
X82044819Y-123746190D01*
X82044819Y-123746190D02*
X82092438Y-123650952D01*
X82092438Y-123650952D02*
X82140057Y-123603333D01*
X82140057Y-123603333D02*
X82235295Y-123555714D01*
X82235295Y-123555714D02*
X82425771Y-123508095D01*
X82425771Y-123508095D02*
X82663866Y-123508095D01*
X82663866Y-123508095D02*
X82854342Y-123555714D01*
X82854342Y-123555714D02*
X82949580Y-123603333D01*
X82949580Y-123603333D02*
X82997200Y-123650952D01*
X82997200Y-123650952D02*
X83044819Y-123746190D01*
X83044819Y-123746190D02*
X83044819Y-123841428D01*
X83044819Y-123841428D02*
X82997200Y-123936666D01*
X82997200Y-123936666D02*
X82949580Y-123984285D01*
X82949580Y-123984285D02*
X82854342Y-124031904D01*
X82854342Y-124031904D02*
X82663866Y-124079523D01*
X82663866Y-124079523D02*
X82425771Y-124079523D01*
X82425771Y-124079523D02*
X82235295Y-124031904D01*
X82235295Y-124031904D02*
X82140057Y-123984285D01*
X82140057Y-123984285D02*
X82092438Y-123936666D01*
X82092438Y-123936666D02*
X82044819Y-123841428D01*
X90374819Y-60180357D02*
X89898628Y-60513690D01*
X90374819Y-60751785D02*
X89374819Y-60751785D01*
X89374819Y-60751785D02*
X89374819Y-60370833D01*
X89374819Y-60370833D02*
X89422438Y-60275595D01*
X89422438Y-60275595D02*
X89470057Y-60227976D01*
X89470057Y-60227976D02*
X89565295Y-60180357D01*
X89565295Y-60180357D02*
X89708152Y-60180357D01*
X89708152Y-60180357D02*
X89803390Y-60227976D01*
X89803390Y-60227976D02*
X89851009Y-60275595D01*
X89851009Y-60275595D02*
X89898628Y-60370833D01*
X89898628Y-60370833D02*
X89898628Y-60751785D01*
X90374819Y-59227976D02*
X90374819Y-59799404D01*
X90374819Y-59513690D02*
X89374819Y-59513690D01*
X89374819Y-59513690D02*
X89517676Y-59608928D01*
X89517676Y-59608928D02*
X89612914Y-59704166D01*
X89612914Y-59704166D02*
X89660533Y-59799404D01*
X89374819Y-58323214D02*
X89374819Y-58799404D01*
X89374819Y-58799404D02*
X89851009Y-58847023D01*
X89851009Y-58847023D02*
X89803390Y-58799404D01*
X89803390Y-58799404D02*
X89755771Y-58704166D01*
X89755771Y-58704166D02*
X89755771Y-58466071D01*
X89755771Y-58466071D02*
X89803390Y-58370833D01*
X89803390Y-58370833D02*
X89851009Y-58323214D01*
X89851009Y-58323214D02*
X89946247Y-58275595D01*
X89946247Y-58275595D02*
X90184342Y-58275595D01*
X90184342Y-58275595D02*
X90279580Y-58323214D01*
X90279580Y-58323214D02*
X90327200Y-58370833D01*
X90327200Y-58370833D02*
X90374819Y-58466071D01*
X90374819Y-58466071D02*
X90374819Y-58704166D01*
X90374819Y-58704166D02*
X90327200Y-58799404D01*
X90327200Y-58799404D02*
X90279580Y-58847023D01*
D10*
X114640092Y-77186985D02*
X114366759Y-76796509D01*
X114171521Y-77186985D02*
X114171521Y-76366985D01*
X114171521Y-76366985D02*
X114483902Y-76366985D01*
X114483902Y-76366985D02*
X114561997Y-76406033D01*
X114561997Y-76406033D02*
X114601044Y-76445080D01*
X114601044Y-76445080D02*
X114640092Y-76523176D01*
X114640092Y-76523176D02*
X114640092Y-76640318D01*
X114640092Y-76640318D02*
X114601044Y-76718414D01*
X114601044Y-76718414D02*
X114561997Y-76757461D01*
X114561997Y-76757461D02*
X114483902Y-76796509D01*
X114483902Y-76796509D02*
X114171521Y-76796509D01*
X114913425Y-76366985D02*
X115421044Y-76366985D01*
X115421044Y-76366985D02*
X115147711Y-76679366D01*
X115147711Y-76679366D02*
X115264854Y-76679366D01*
X115264854Y-76679366D02*
X115342949Y-76718414D01*
X115342949Y-76718414D02*
X115381997Y-76757461D01*
X115381997Y-76757461D02*
X115421044Y-76835557D01*
X115421044Y-76835557D02*
X115421044Y-77030795D01*
X115421044Y-77030795D02*
X115381997Y-77108890D01*
X115381997Y-77108890D02*
X115342949Y-77147938D01*
X115342949Y-77147938D02*
X115264854Y-77186985D01*
X115264854Y-77186985D02*
X115030568Y-77186985D01*
X115030568Y-77186985D02*
X114952473Y-77147938D01*
X114952473Y-77147938D02*
X114913425Y-77108890D01*
X115811520Y-77186985D02*
X115967711Y-77186985D01*
X115967711Y-77186985D02*
X116045806Y-77147938D01*
X116045806Y-77147938D02*
X116084854Y-77108890D01*
X116084854Y-77108890D02*
X116162949Y-76991747D01*
X116162949Y-76991747D02*
X116201996Y-76835557D01*
X116201996Y-76835557D02*
X116201996Y-76523176D01*
X116201996Y-76523176D02*
X116162949Y-76445080D01*
X116162949Y-76445080D02*
X116123901Y-76406033D01*
X116123901Y-76406033D02*
X116045806Y-76366985D01*
X116045806Y-76366985D02*
X115889615Y-76366985D01*
X115889615Y-76366985D02*
X115811520Y-76406033D01*
X115811520Y-76406033D02*
X115772473Y-76445080D01*
X115772473Y-76445080D02*
X115733425Y-76523176D01*
X115733425Y-76523176D02*
X115733425Y-76718414D01*
X115733425Y-76718414D02*
X115772473Y-76796509D01*
X115772473Y-76796509D02*
X115811520Y-76835557D01*
X115811520Y-76835557D02*
X115889615Y-76874604D01*
X115889615Y-76874604D02*
X116045806Y-76874604D01*
X116045806Y-76874604D02*
X116123901Y-76835557D01*
X116123901Y-76835557D02*
X116162949Y-76796509D01*
X116162949Y-76796509D02*
X116201996Y-76718414D01*
D11*
X74784819Y-116906666D02*
X74308628Y-117239999D01*
X74784819Y-117478094D02*
X73784819Y-117478094D01*
X73784819Y-117478094D02*
X73784819Y-117097142D01*
X73784819Y-117097142D02*
X73832438Y-117001904D01*
X73832438Y-117001904D02*
X73880057Y-116954285D01*
X73880057Y-116954285D02*
X73975295Y-116906666D01*
X73975295Y-116906666D02*
X74118152Y-116906666D01*
X74118152Y-116906666D02*
X74213390Y-116954285D01*
X74213390Y-116954285D02*
X74261009Y-117001904D01*
X74261009Y-117001904D02*
X74308628Y-117097142D01*
X74308628Y-117097142D02*
X74308628Y-117478094D01*
X74213390Y-116335237D02*
X74165771Y-116430475D01*
X74165771Y-116430475D02*
X74118152Y-116478094D01*
X74118152Y-116478094D02*
X74022914Y-116525713D01*
X74022914Y-116525713D02*
X73975295Y-116525713D01*
X73975295Y-116525713D02*
X73880057Y-116478094D01*
X73880057Y-116478094D02*
X73832438Y-116430475D01*
X73832438Y-116430475D02*
X73784819Y-116335237D01*
X73784819Y-116335237D02*
X73784819Y-116144761D01*
X73784819Y-116144761D02*
X73832438Y-116049523D01*
X73832438Y-116049523D02*
X73880057Y-116001904D01*
X73880057Y-116001904D02*
X73975295Y-115954285D01*
X73975295Y-115954285D02*
X74022914Y-115954285D01*
X74022914Y-115954285D02*
X74118152Y-116001904D01*
X74118152Y-116001904D02*
X74165771Y-116049523D01*
X74165771Y-116049523D02*
X74213390Y-116144761D01*
X74213390Y-116144761D02*
X74213390Y-116335237D01*
X74213390Y-116335237D02*
X74261009Y-116430475D01*
X74261009Y-116430475D02*
X74308628Y-116478094D01*
X74308628Y-116478094D02*
X74403866Y-116525713D01*
X74403866Y-116525713D02*
X74594342Y-116525713D01*
X74594342Y-116525713D02*
X74689580Y-116478094D01*
X74689580Y-116478094D02*
X74737200Y-116430475D01*
X74737200Y-116430475D02*
X74784819Y-116335237D01*
X74784819Y-116335237D02*
X74784819Y-116144761D01*
X74784819Y-116144761D02*
X74737200Y-116049523D01*
X74737200Y-116049523D02*
X74689580Y-116001904D01*
X74689580Y-116001904D02*
X74594342Y-115954285D01*
X74594342Y-115954285D02*
X74403866Y-115954285D01*
X74403866Y-115954285D02*
X74308628Y-116001904D01*
X74308628Y-116001904D02*
X74261009Y-116049523D01*
X74261009Y-116049523D02*
X74213390Y-116144761D01*
X82861009Y-114045833D02*
X82861009Y-114379166D01*
X83384819Y-114379166D02*
X82384819Y-114379166D01*
X82384819Y-114379166D02*
X82384819Y-113902976D01*
X82384819Y-113617261D02*
X82384819Y-112950595D01*
X82384819Y-112950595D02*
X83384819Y-113379166D01*
X118654819Y-74688094D02*
X119464342Y-74688094D01*
X119464342Y-74688094D02*
X119559580Y-74640475D01*
X119559580Y-74640475D02*
X119607200Y-74592856D01*
X119607200Y-74592856D02*
X119654819Y-74497618D01*
X119654819Y-74497618D02*
X119654819Y-74307142D01*
X119654819Y-74307142D02*
X119607200Y-74211904D01*
X119607200Y-74211904D02*
X119559580Y-74164285D01*
X119559580Y-74164285D02*
X119464342Y-74116666D01*
X119464342Y-74116666D02*
X118654819Y-74116666D01*
X119654819Y-73116666D02*
X119654819Y-73688094D01*
X119654819Y-73402380D02*
X118654819Y-73402380D01*
X118654819Y-73402380D02*
X118797676Y-73497618D01*
X118797676Y-73497618D02*
X118892914Y-73592856D01*
X118892914Y-73592856D02*
X118940533Y-73688094D01*
X119654819Y-72164285D02*
X119654819Y-72735713D01*
X119654819Y-72449999D02*
X118654819Y-72449999D01*
X118654819Y-72449999D02*
X118797676Y-72545237D01*
X118797676Y-72545237D02*
X118892914Y-72640475D01*
X118892914Y-72640475D02*
X118940533Y-72735713D01*
D10*
X121620508Y-57355237D02*
X120800508Y-57355237D01*
X120800508Y-57355237D02*
X120800508Y-57159999D01*
X120800508Y-57159999D02*
X120839556Y-57042856D01*
X120839556Y-57042856D02*
X120917651Y-56964761D01*
X120917651Y-56964761D02*
X120995746Y-56925714D01*
X120995746Y-56925714D02*
X121151937Y-56886666D01*
X121151937Y-56886666D02*
X121269080Y-56886666D01*
X121269080Y-56886666D02*
X121425270Y-56925714D01*
X121425270Y-56925714D02*
X121503365Y-56964761D01*
X121503365Y-56964761D02*
X121581461Y-57042856D01*
X121581461Y-57042856D02*
X121620508Y-57159999D01*
X121620508Y-57159999D02*
X121620508Y-57355237D01*
X120800508Y-56613333D02*
X120800508Y-56105714D01*
X120800508Y-56105714D02*
X121112889Y-56379047D01*
X121112889Y-56379047D02*
X121112889Y-56261904D01*
X121112889Y-56261904D02*
X121151937Y-56183809D01*
X121151937Y-56183809D02*
X121190984Y-56144761D01*
X121190984Y-56144761D02*
X121269080Y-56105714D01*
X121269080Y-56105714D02*
X121464318Y-56105714D01*
X121464318Y-56105714D02*
X121542413Y-56144761D01*
X121542413Y-56144761D02*
X121581461Y-56183809D01*
X121581461Y-56183809D02*
X121620508Y-56261904D01*
X121620508Y-56261904D02*
X121620508Y-56496190D01*
X121620508Y-56496190D02*
X121581461Y-56574285D01*
X121581461Y-56574285D02*
X121542413Y-56613333D01*
X93259907Y-63263014D02*
X93533240Y-63653490D01*
X93728478Y-63263014D02*
X93728478Y-64083014D01*
X93728478Y-64083014D02*
X93416097Y-64083014D01*
X93416097Y-64083014D02*
X93338002Y-64043966D01*
X93338002Y-64043966D02*
X93298955Y-64004919D01*
X93298955Y-64004919D02*
X93259907Y-63926823D01*
X93259907Y-63926823D02*
X93259907Y-63809681D01*
X93259907Y-63809681D02*
X93298955Y-63731585D01*
X93298955Y-63731585D02*
X93338002Y-63692538D01*
X93338002Y-63692538D02*
X93416097Y-63653490D01*
X93416097Y-63653490D02*
X93728478Y-63653490D01*
X92478955Y-63263014D02*
X92947526Y-63263014D01*
X92713240Y-63263014D02*
X92713240Y-64083014D01*
X92713240Y-64083014D02*
X92791336Y-63965871D01*
X92791336Y-63965871D02*
X92869431Y-63887776D01*
X92869431Y-63887776D02*
X92947526Y-63848728D01*
X92088479Y-63263014D02*
X91932288Y-63263014D01*
X91932288Y-63263014D02*
X91854193Y-63302062D01*
X91854193Y-63302062D02*
X91815145Y-63341109D01*
X91815145Y-63341109D02*
X91737050Y-63458252D01*
X91737050Y-63458252D02*
X91698003Y-63614442D01*
X91698003Y-63614442D02*
X91698003Y-63926823D01*
X91698003Y-63926823D02*
X91737050Y-64004919D01*
X91737050Y-64004919D02*
X91776098Y-64043966D01*
X91776098Y-64043966D02*
X91854193Y-64083014D01*
X91854193Y-64083014D02*
X92010384Y-64083014D01*
X92010384Y-64083014D02*
X92088479Y-64043966D01*
X92088479Y-64043966D02*
X92127526Y-64004919D01*
X92127526Y-64004919D02*
X92166574Y-63926823D01*
X92166574Y-63926823D02*
X92166574Y-63731585D01*
X92166574Y-63731585D02*
X92127526Y-63653490D01*
X92127526Y-63653490D02*
X92088479Y-63614442D01*
X92088479Y-63614442D02*
X92010384Y-63575395D01*
X92010384Y-63575395D02*
X91854193Y-63575395D01*
X91854193Y-63575395D02*
X91776098Y-63614442D01*
X91776098Y-63614442D02*
X91737050Y-63653490D01*
X91737050Y-63653490D02*
X91698003Y-63731585D01*
D11*
X146949580Y-123416666D02*
X146997200Y-123464285D01*
X146997200Y-123464285D02*
X147044819Y-123607142D01*
X147044819Y-123607142D02*
X147044819Y-123702380D01*
X147044819Y-123702380D02*
X146997200Y-123845237D01*
X146997200Y-123845237D02*
X146901961Y-123940475D01*
X146901961Y-123940475D02*
X146806723Y-123988094D01*
X146806723Y-123988094D02*
X146616247Y-124035713D01*
X146616247Y-124035713D02*
X146473390Y-124035713D01*
X146473390Y-124035713D02*
X146282914Y-123988094D01*
X146282914Y-123988094D02*
X146187676Y-123940475D01*
X146187676Y-123940475D02*
X146092438Y-123845237D01*
X146092438Y-123845237D02*
X146044819Y-123702380D01*
X146044819Y-123702380D02*
X146044819Y-123607142D01*
X146044819Y-123607142D02*
X146092438Y-123464285D01*
X146092438Y-123464285D02*
X146140057Y-123416666D01*
X147044819Y-122940475D02*
X147044819Y-122749999D01*
X147044819Y-122749999D02*
X146997200Y-122654761D01*
X146997200Y-122654761D02*
X146949580Y-122607142D01*
X146949580Y-122607142D02*
X146806723Y-122511904D01*
X146806723Y-122511904D02*
X146616247Y-122464285D01*
X146616247Y-122464285D02*
X146235295Y-122464285D01*
X146235295Y-122464285D02*
X146140057Y-122511904D01*
X146140057Y-122511904D02*
X146092438Y-122559523D01*
X146092438Y-122559523D02*
X146044819Y-122654761D01*
X146044819Y-122654761D02*
X146044819Y-122845237D01*
X146044819Y-122845237D02*
X146092438Y-122940475D01*
X146092438Y-122940475D02*
X146140057Y-122988094D01*
X146140057Y-122988094D02*
X146235295Y-123035713D01*
X146235295Y-123035713D02*
X146473390Y-123035713D01*
X146473390Y-123035713D02*
X146568628Y-122988094D01*
X146568628Y-122988094D02*
X146616247Y-122940475D01*
X146616247Y-122940475D02*
X146663866Y-122845237D01*
X146663866Y-122845237D02*
X146663866Y-122654761D01*
X146663866Y-122654761D02*
X146616247Y-122559523D01*
X146616247Y-122559523D02*
X146568628Y-122511904D01*
X146568628Y-122511904D02*
X146473390Y-122464285D01*
X100624819Y-71180357D02*
X100148628Y-71513690D01*
X100624819Y-71751785D02*
X99624819Y-71751785D01*
X99624819Y-71751785D02*
X99624819Y-71370833D01*
X99624819Y-71370833D02*
X99672438Y-71275595D01*
X99672438Y-71275595D02*
X99720057Y-71227976D01*
X99720057Y-71227976D02*
X99815295Y-71180357D01*
X99815295Y-71180357D02*
X99958152Y-71180357D01*
X99958152Y-71180357D02*
X100053390Y-71227976D01*
X100053390Y-71227976D02*
X100101009Y-71275595D01*
X100101009Y-71275595D02*
X100148628Y-71370833D01*
X100148628Y-71370833D02*
X100148628Y-71751785D01*
X99720057Y-70799404D02*
X99672438Y-70751785D01*
X99672438Y-70751785D02*
X99624819Y-70656547D01*
X99624819Y-70656547D02*
X99624819Y-70418452D01*
X99624819Y-70418452D02*
X99672438Y-70323214D01*
X99672438Y-70323214D02*
X99720057Y-70275595D01*
X99720057Y-70275595D02*
X99815295Y-70227976D01*
X99815295Y-70227976D02*
X99910533Y-70227976D01*
X99910533Y-70227976D02*
X100053390Y-70275595D01*
X100053390Y-70275595D02*
X100624819Y-70847023D01*
X100624819Y-70847023D02*
X100624819Y-70227976D01*
X100624819Y-69275595D02*
X100624819Y-69847023D01*
X100624819Y-69561309D02*
X99624819Y-69561309D01*
X99624819Y-69561309D02*
X99767676Y-69656547D01*
X99767676Y-69656547D02*
X99862914Y-69751785D01*
X99862914Y-69751785D02*
X99910533Y-69847023D01*
X133666666Y-33454819D02*
X133666666Y-34169104D01*
X133666666Y-34169104D02*
X133619047Y-34311961D01*
X133619047Y-34311961D02*
X133523809Y-34407200D01*
X133523809Y-34407200D02*
X133380952Y-34454819D01*
X133380952Y-34454819D02*
X133285714Y-34454819D01*
X134666666Y-34454819D02*
X134095238Y-34454819D01*
X134380952Y-34454819D02*
X134380952Y-33454819D01*
X134380952Y-33454819D02*
X134285714Y-33597676D01*
X134285714Y-33597676D02*
X134190476Y-33692914D01*
X134190476Y-33692914D02*
X134095238Y-33740533D01*
D10*
X118559907Y-78713014D02*
X118833240Y-79103490D01*
X119028478Y-78713014D02*
X119028478Y-79533014D01*
X119028478Y-79533014D02*
X118716097Y-79533014D01*
X118716097Y-79533014D02*
X118638002Y-79493966D01*
X118638002Y-79493966D02*
X118598955Y-79454919D01*
X118598955Y-79454919D02*
X118559907Y-79376823D01*
X118559907Y-79376823D02*
X118559907Y-79259681D01*
X118559907Y-79259681D02*
X118598955Y-79181585D01*
X118598955Y-79181585D02*
X118638002Y-79142538D01*
X118638002Y-79142538D02*
X118716097Y-79103490D01*
X118716097Y-79103490D02*
X119028478Y-79103490D01*
X118286574Y-79533014D02*
X117778955Y-79533014D01*
X117778955Y-79533014D02*
X118052288Y-79220633D01*
X118052288Y-79220633D02*
X117935145Y-79220633D01*
X117935145Y-79220633D02*
X117857050Y-79181585D01*
X117857050Y-79181585D02*
X117818002Y-79142538D01*
X117818002Y-79142538D02*
X117778955Y-79064442D01*
X117778955Y-79064442D02*
X117778955Y-78869204D01*
X117778955Y-78869204D02*
X117818002Y-78791109D01*
X117818002Y-78791109D02*
X117857050Y-78752062D01*
X117857050Y-78752062D02*
X117935145Y-78713014D01*
X117935145Y-78713014D02*
X118169431Y-78713014D01*
X118169431Y-78713014D02*
X118247526Y-78752062D01*
X118247526Y-78752062D02*
X118286574Y-78791109D01*
X117505622Y-79533014D02*
X116958955Y-79533014D01*
X116958955Y-79533014D02*
X117310384Y-78713014D01*
D11*
X80611009Y-114045833D02*
X80611009Y-114379166D01*
X81134819Y-114379166D02*
X80134819Y-114379166D01*
X80134819Y-114379166D02*
X80134819Y-113902976D01*
X80563390Y-113379166D02*
X80515771Y-113474404D01*
X80515771Y-113474404D02*
X80468152Y-113522023D01*
X80468152Y-113522023D02*
X80372914Y-113569642D01*
X80372914Y-113569642D02*
X80325295Y-113569642D01*
X80325295Y-113569642D02*
X80230057Y-113522023D01*
X80230057Y-113522023D02*
X80182438Y-113474404D01*
X80182438Y-113474404D02*
X80134819Y-113379166D01*
X80134819Y-113379166D02*
X80134819Y-113188690D01*
X80134819Y-113188690D02*
X80182438Y-113093452D01*
X80182438Y-113093452D02*
X80230057Y-113045833D01*
X80230057Y-113045833D02*
X80325295Y-112998214D01*
X80325295Y-112998214D02*
X80372914Y-112998214D01*
X80372914Y-112998214D02*
X80468152Y-113045833D01*
X80468152Y-113045833D02*
X80515771Y-113093452D01*
X80515771Y-113093452D02*
X80563390Y-113188690D01*
X80563390Y-113188690D02*
X80563390Y-113379166D01*
X80563390Y-113379166D02*
X80611009Y-113474404D01*
X80611009Y-113474404D02*
X80658628Y-113522023D01*
X80658628Y-113522023D02*
X80753866Y-113569642D01*
X80753866Y-113569642D02*
X80944342Y-113569642D01*
X80944342Y-113569642D02*
X81039580Y-113522023D01*
X81039580Y-113522023D02*
X81087200Y-113474404D01*
X81087200Y-113474404D02*
X81134819Y-113379166D01*
X81134819Y-113379166D02*
X81134819Y-113188690D01*
X81134819Y-113188690D02*
X81087200Y-113093452D01*
X81087200Y-113093452D02*
X81039580Y-113045833D01*
X81039580Y-113045833D02*
X80944342Y-112998214D01*
X80944342Y-112998214D02*
X80753866Y-112998214D01*
X80753866Y-112998214D02*
X80658628Y-113045833D01*
X80658628Y-113045833D02*
X80611009Y-113093452D01*
X80611009Y-113093452D02*
X80563390Y-113188690D01*
X85204819Y-84411904D02*
X86014342Y-84411904D01*
X86014342Y-84411904D02*
X86109580Y-84364285D01*
X86109580Y-84364285D02*
X86157200Y-84316666D01*
X86157200Y-84316666D02*
X86204819Y-84221428D01*
X86204819Y-84221428D02*
X86204819Y-84030952D01*
X86204819Y-84030952D02*
X86157200Y-83935714D01*
X86157200Y-83935714D02*
X86109580Y-83888095D01*
X86109580Y-83888095D02*
X86014342Y-83840476D01*
X86014342Y-83840476D02*
X85204819Y-83840476D01*
X85204819Y-83459523D02*
X85204819Y-82792857D01*
X85204819Y-82792857D02*
X86204819Y-83221428D01*
D10*
X87009907Y-74763014D02*
X87283240Y-75153490D01*
X87478478Y-74763014D02*
X87478478Y-75583014D01*
X87478478Y-75583014D02*
X87166097Y-75583014D01*
X87166097Y-75583014D02*
X87088002Y-75543966D01*
X87088002Y-75543966D02*
X87048955Y-75504919D01*
X87048955Y-75504919D02*
X87009907Y-75426823D01*
X87009907Y-75426823D02*
X87009907Y-75309681D01*
X87009907Y-75309681D02*
X87048955Y-75231585D01*
X87048955Y-75231585D02*
X87088002Y-75192538D01*
X87088002Y-75192538D02*
X87166097Y-75153490D01*
X87166097Y-75153490D02*
X87478478Y-75153490D01*
X86697526Y-75504919D02*
X86658478Y-75543966D01*
X86658478Y-75543966D02*
X86580383Y-75583014D01*
X86580383Y-75583014D02*
X86385145Y-75583014D01*
X86385145Y-75583014D02*
X86307050Y-75543966D01*
X86307050Y-75543966D02*
X86268002Y-75504919D01*
X86268002Y-75504919D02*
X86228955Y-75426823D01*
X86228955Y-75426823D02*
X86228955Y-75348728D01*
X86228955Y-75348728D02*
X86268002Y-75231585D01*
X86268002Y-75231585D02*
X86736574Y-74763014D01*
X86736574Y-74763014D02*
X86228955Y-74763014D01*
X85955622Y-75583014D02*
X85408955Y-75583014D01*
X85408955Y-75583014D02*
X85760384Y-74763014D01*
D11*
X87524819Y-114091666D02*
X87048628Y-114424999D01*
X87524819Y-114663094D02*
X86524819Y-114663094D01*
X86524819Y-114663094D02*
X86524819Y-114282142D01*
X86524819Y-114282142D02*
X86572438Y-114186904D01*
X86572438Y-114186904D02*
X86620057Y-114139285D01*
X86620057Y-114139285D02*
X86715295Y-114091666D01*
X86715295Y-114091666D02*
X86858152Y-114091666D01*
X86858152Y-114091666D02*
X86953390Y-114139285D01*
X86953390Y-114139285D02*
X87001009Y-114186904D01*
X87001009Y-114186904D02*
X87048628Y-114282142D01*
X87048628Y-114282142D02*
X87048628Y-114663094D01*
X87524819Y-113139285D02*
X87524819Y-113710713D01*
X87524819Y-113424999D02*
X86524819Y-113424999D01*
X86524819Y-113424999D02*
X86667676Y-113520237D01*
X86667676Y-113520237D02*
X86762914Y-113615475D01*
X86762914Y-113615475D02*
X86810533Y-113710713D01*
D10*
X125072582Y-126472467D02*
X125111630Y-126511515D01*
X125111630Y-126511515D02*
X125150677Y-126628658D01*
X125150677Y-126628658D02*
X125150677Y-126706753D01*
X125150677Y-126706753D02*
X125111630Y-126823896D01*
X125111630Y-126823896D02*
X125033534Y-126901992D01*
X125033534Y-126901992D02*
X124955439Y-126941039D01*
X124955439Y-126941039D02*
X124799248Y-126980087D01*
X124799248Y-126980087D02*
X124682105Y-126980087D01*
X124682105Y-126980087D02*
X124525915Y-126941039D01*
X124525915Y-126941039D02*
X124447819Y-126901992D01*
X124447819Y-126901992D02*
X124369724Y-126823896D01*
X124369724Y-126823896D02*
X124330676Y-126706753D01*
X124330676Y-126706753D02*
X124330676Y-126628658D01*
X124330676Y-126628658D02*
X124369724Y-126511515D01*
X124369724Y-126511515D02*
X124408772Y-126472467D01*
X125150677Y-125691514D02*
X125150677Y-126160086D01*
X125150677Y-125925800D02*
X124330676Y-125925800D01*
X124330676Y-125925800D02*
X124447819Y-126003895D01*
X124447819Y-126003895D02*
X124525915Y-126081991D01*
X124525915Y-126081991D02*
X124564962Y-126160086D01*
D11*
X87429580Y-110141666D02*
X87477200Y-110189285D01*
X87477200Y-110189285D02*
X87524819Y-110332142D01*
X87524819Y-110332142D02*
X87524819Y-110427380D01*
X87524819Y-110427380D02*
X87477200Y-110570237D01*
X87477200Y-110570237D02*
X87381961Y-110665475D01*
X87381961Y-110665475D02*
X87286723Y-110713094D01*
X87286723Y-110713094D02*
X87096247Y-110760713D01*
X87096247Y-110760713D02*
X86953390Y-110760713D01*
X86953390Y-110760713D02*
X86762914Y-110713094D01*
X86762914Y-110713094D02*
X86667676Y-110665475D01*
X86667676Y-110665475D02*
X86572438Y-110570237D01*
X86572438Y-110570237D02*
X86524819Y-110427380D01*
X86524819Y-110427380D02*
X86524819Y-110332142D01*
X86524819Y-110332142D02*
X86572438Y-110189285D01*
X86572438Y-110189285D02*
X86620057Y-110141666D01*
X86620057Y-109760713D02*
X86572438Y-109713094D01*
X86572438Y-109713094D02*
X86524819Y-109617856D01*
X86524819Y-109617856D02*
X86524819Y-109379761D01*
X86524819Y-109379761D02*
X86572438Y-109284523D01*
X86572438Y-109284523D02*
X86620057Y-109236904D01*
X86620057Y-109236904D02*
X86715295Y-109189285D01*
X86715295Y-109189285D02*
X86810533Y-109189285D01*
X86810533Y-109189285D02*
X86953390Y-109236904D01*
X86953390Y-109236904D02*
X87524819Y-109808332D01*
X87524819Y-109808332D02*
X87524819Y-109189285D01*
X86397620Y-134464819D02*
X86397620Y-135179104D01*
X86397620Y-135179104D02*
X86350001Y-135321961D01*
X86350001Y-135321961D02*
X86254763Y-135417200D01*
X86254763Y-135417200D02*
X86111906Y-135464819D01*
X86111906Y-135464819D02*
X86016668Y-135464819D01*
X86778573Y-134464819D02*
X87397620Y-134464819D01*
X87397620Y-134464819D02*
X87064287Y-134845771D01*
X87064287Y-134845771D02*
X87207144Y-134845771D01*
X87207144Y-134845771D02*
X87302382Y-134893390D01*
X87302382Y-134893390D02*
X87350001Y-134941009D01*
X87350001Y-134941009D02*
X87397620Y-135036247D01*
X87397620Y-135036247D02*
X87397620Y-135274342D01*
X87397620Y-135274342D02*
X87350001Y-135369580D01*
X87350001Y-135369580D02*
X87302382Y-135417200D01*
X87302382Y-135417200D02*
X87207144Y-135464819D01*
X87207144Y-135464819D02*
X86921430Y-135464819D01*
X86921430Y-135464819D02*
X86826192Y-135417200D01*
X86826192Y-135417200D02*
X86778573Y-135369580D01*
X81784819Y-116906666D02*
X81308628Y-117239999D01*
X81784819Y-117478094D02*
X80784819Y-117478094D01*
X80784819Y-117478094D02*
X80784819Y-117097142D01*
X80784819Y-117097142D02*
X80832438Y-117001904D01*
X80832438Y-117001904D02*
X80880057Y-116954285D01*
X80880057Y-116954285D02*
X80975295Y-116906666D01*
X80975295Y-116906666D02*
X81118152Y-116906666D01*
X81118152Y-116906666D02*
X81213390Y-116954285D01*
X81213390Y-116954285D02*
X81261009Y-117001904D01*
X81261009Y-117001904D02*
X81308628Y-117097142D01*
X81308628Y-117097142D02*
X81308628Y-117478094D01*
X81784819Y-116430475D02*
X81784819Y-116239999D01*
X81784819Y-116239999D02*
X81737200Y-116144761D01*
X81737200Y-116144761D02*
X81689580Y-116097142D01*
X81689580Y-116097142D02*
X81546723Y-116001904D01*
X81546723Y-116001904D02*
X81356247Y-115954285D01*
X81356247Y-115954285D02*
X80975295Y-115954285D01*
X80975295Y-115954285D02*
X80880057Y-116001904D01*
X80880057Y-116001904D02*
X80832438Y-116049523D01*
X80832438Y-116049523D02*
X80784819Y-116144761D01*
X80784819Y-116144761D02*
X80784819Y-116335237D01*
X80784819Y-116335237D02*
X80832438Y-116430475D01*
X80832438Y-116430475D02*
X80880057Y-116478094D01*
X80880057Y-116478094D02*
X80975295Y-116525713D01*
X80975295Y-116525713D02*
X81213390Y-116525713D01*
X81213390Y-116525713D02*
X81308628Y-116478094D01*
X81308628Y-116478094D02*
X81356247Y-116430475D01*
X81356247Y-116430475D02*
X81403866Y-116335237D01*
X81403866Y-116335237D02*
X81403866Y-116144761D01*
X81403866Y-116144761D02*
X81356247Y-116049523D01*
X81356247Y-116049523D02*
X81308628Y-116001904D01*
X81308628Y-116001904D02*
X81213390Y-115954285D01*
X84111009Y-111045833D02*
X84111009Y-111379166D01*
X84634819Y-111379166D02*
X83634819Y-111379166D01*
X83634819Y-111379166D02*
X83634819Y-110902976D01*
X83634819Y-110617261D02*
X83634819Y-109998214D01*
X83634819Y-109998214D02*
X84015771Y-110331547D01*
X84015771Y-110331547D02*
X84015771Y-110188690D01*
X84015771Y-110188690D02*
X84063390Y-110093452D01*
X84063390Y-110093452D02*
X84111009Y-110045833D01*
X84111009Y-110045833D02*
X84206247Y-109998214D01*
X84206247Y-109998214D02*
X84444342Y-109998214D01*
X84444342Y-109998214D02*
X84539580Y-110045833D01*
X84539580Y-110045833D02*
X84587200Y-110093452D01*
X84587200Y-110093452D02*
X84634819Y-110188690D01*
X84634819Y-110188690D02*
X84634819Y-110474404D01*
X84634819Y-110474404D02*
X84587200Y-110569642D01*
X84587200Y-110569642D02*
X84539580Y-110617261D01*
D10*
X99140092Y-87386985D02*
X98866759Y-86996509D01*
X98671521Y-87386985D02*
X98671521Y-86566985D01*
X98671521Y-86566985D02*
X98983902Y-86566985D01*
X98983902Y-86566985D02*
X99061997Y-86606033D01*
X99061997Y-86606033D02*
X99101044Y-86645080D01*
X99101044Y-86645080D02*
X99140092Y-86723176D01*
X99140092Y-86723176D02*
X99140092Y-86840318D01*
X99140092Y-86840318D02*
X99101044Y-86918414D01*
X99101044Y-86918414D02*
X99061997Y-86957461D01*
X99061997Y-86957461D02*
X98983902Y-86996509D01*
X98983902Y-86996509D02*
X98671521Y-86996509D01*
X99413425Y-86566985D02*
X99921044Y-86566985D01*
X99921044Y-86566985D02*
X99647711Y-86879366D01*
X99647711Y-86879366D02*
X99764854Y-86879366D01*
X99764854Y-86879366D02*
X99842949Y-86918414D01*
X99842949Y-86918414D02*
X99881997Y-86957461D01*
X99881997Y-86957461D02*
X99921044Y-87035557D01*
X99921044Y-87035557D02*
X99921044Y-87230795D01*
X99921044Y-87230795D02*
X99881997Y-87308890D01*
X99881997Y-87308890D02*
X99842949Y-87347938D01*
X99842949Y-87347938D02*
X99764854Y-87386985D01*
X99764854Y-87386985D02*
X99530568Y-87386985D01*
X99530568Y-87386985D02*
X99452473Y-87347938D01*
X99452473Y-87347938D02*
X99413425Y-87308890D01*
X100623901Y-86566985D02*
X100467711Y-86566985D01*
X100467711Y-86566985D02*
X100389615Y-86606033D01*
X100389615Y-86606033D02*
X100350568Y-86645080D01*
X100350568Y-86645080D02*
X100272473Y-86762223D01*
X100272473Y-86762223D02*
X100233425Y-86918414D01*
X100233425Y-86918414D02*
X100233425Y-87230795D01*
X100233425Y-87230795D02*
X100272473Y-87308890D01*
X100272473Y-87308890D02*
X100311520Y-87347938D01*
X100311520Y-87347938D02*
X100389615Y-87386985D01*
X100389615Y-87386985D02*
X100545806Y-87386985D01*
X100545806Y-87386985D02*
X100623901Y-87347938D01*
X100623901Y-87347938D02*
X100662949Y-87308890D01*
X100662949Y-87308890D02*
X100701996Y-87230795D01*
X100701996Y-87230795D02*
X100701996Y-87035557D01*
X100701996Y-87035557D02*
X100662949Y-86957461D01*
X100662949Y-86957461D02*
X100623901Y-86918414D01*
X100623901Y-86918414D02*
X100545806Y-86879366D01*
X100545806Y-86879366D02*
X100389615Y-86879366D01*
X100389615Y-86879366D02*
X100311520Y-86918414D01*
X100311520Y-86918414D02*
X100272473Y-86957461D01*
X100272473Y-86957461D02*
X100233425Y-87035557D01*
X81390092Y-87386985D02*
X81116759Y-86996509D01*
X80921521Y-87386985D02*
X80921521Y-86566985D01*
X80921521Y-86566985D02*
X81233902Y-86566985D01*
X81233902Y-86566985D02*
X81311997Y-86606033D01*
X81311997Y-86606033D02*
X81351044Y-86645080D01*
X81351044Y-86645080D02*
X81390092Y-86723176D01*
X81390092Y-86723176D02*
X81390092Y-86840318D01*
X81390092Y-86840318D02*
X81351044Y-86918414D01*
X81351044Y-86918414D02*
X81311997Y-86957461D01*
X81311997Y-86957461D02*
X81233902Y-86996509D01*
X81233902Y-86996509D02*
X80921521Y-86996509D01*
X81663425Y-86566985D02*
X82171044Y-86566985D01*
X82171044Y-86566985D02*
X81897711Y-86879366D01*
X81897711Y-86879366D02*
X82014854Y-86879366D01*
X82014854Y-86879366D02*
X82092949Y-86918414D01*
X82092949Y-86918414D02*
X82131997Y-86957461D01*
X82131997Y-86957461D02*
X82171044Y-87035557D01*
X82171044Y-87035557D02*
X82171044Y-87230795D01*
X82171044Y-87230795D02*
X82131997Y-87308890D01*
X82131997Y-87308890D02*
X82092949Y-87347938D01*
X82092949Y-87347938D02*
X82014854Y-87386985D01*
X82014854Y-87386985D02*
X81780568Y-87386985D01*
X81780568Y-87386985D02*
X81702473Y-87347938D01*
X81702473Y-87347938D02*
X81663425Y-87308890D01*
X82444377Y-86566985D02*
X82951996Y-86566985D01*
X82951996Y-86566985D02*
X82678663Y-86879366D01*
X82678663Y-86879366D02*
X82795806Y-86879366D01*
X82795806Y-86879366D02*
X82873901Y-86918414D01*
X82873901Y-86918414D02*
X82912949Y-86957461D01*
X82912949Y-86957461D02*
X82951996Y-87035557D01*
X82951996Y-87035557D02*
X82951996Y-87230795D01*
X82951996Y-87230795D02*
X82912949Y-87308890D01*
X82912949Y-87308890D02*
X82873901Y-87347938D01*
X82873901Y-87347938D02*
X82795806Y-87386985D01*
X82795806Y-87386985D02*
X82561520Y-87386985D01*
X82561520Y-87386985D02*
X82483425Y-87347938D01*
X82483425Y-87347938D02*
X82444377Y-87308890D01*
X87140092Y-87386985D02*
X86866759Y-86996509D01*
X86671521Y-87386985D02*
X86671521Y-86566985D01*
X86671521Y-86566985D02*
X86983902Y-86566985D01*
X86983902Y-86566985D02*
X87061997Y-86606033D01*
X87061997Y-86606033D02*
X87101044Y-86645080D01*
X87101044Y-86645080D02*
X87140092Y-86723176D01*
X87140092Y-86723176D02*
X87140092Y-86840318D01*
X87140092Y-86840318D02*
X87101044Y-86918414D01*
X87101044Y-86918414D02*
X87061997Y-86957461D01*
X87061997Y-86957461D02*
X86983902Y-86996509D01*
X86983902Y-86996509D02*
X86671521Y-86996509D01*
X87413425Y-86566985D02*
X87921044Y-86566985D01*
X87921044Y-86566985D02*
X87647711Y-86879366D01*
X87647711Y-86879366D02*
X87764854Y-86879366D01*
X87764854Y-86879366D02*
X87842949Y-86918414D01*
X87842949Y-86918414D02*
X87881997Y-86957461D01*
X87881997Y-86957461D02*
X87921044Y-87035557D01*
X87921044Y-87035557D02*
X87921044Y-87230795D01*
X87921044Y-87230795D02*
X87881997Y-87308890D01*
X87881997Y-87308890D02*
X87842949Y-87347938D01*
X87842949Y-87347938D02*
X87764854Y-87386985D01*
X87764854Y-87386985D02*
X87530568Y-87386985D01*
X87530568Y-87386985D02*
X87452473Y-87347938D01*
X87452473Y-87347938D02*
X87413425Y-87308890D01*
X88623901Y-86840318D02*
X88623901Y-87386985D01*
X88428663Y-86527938D02*
X88233425Y-87113652D01*
X88233425Y-87113652D02*
X88741044Y-87113652D01*
D11*
X85778244Y-45183121D02*
X85778244Y-45897406D01*
X85778244Y-45897406D02*
X85730625Y-46040263D01*
X85730625Y-46040263D02*
X85635387Y-46135502D01*
X85635387Y-46135502D02*
X85492530Y-46183121D01*
X85492530Y-46183121D02*
X85397292Y-46183121D01*
X86206816Y-45278359D02*
X86254435Y-45230740D01*
X86254435Y-45230740D02*
X86349673Y-45183121D01*
X86349673Y-45183121D02*
X86587768Y-45183121D01*
X86587768Y-45183121D02*
X86683006Y-45230740D01*
X86683006Y-45230740D02*
X86730625Y-45278359D01*
X86730625Y-45278359D02*
X86778244Y-45373597D01*
X86778244Y-45373597D02*
X86778244Y-45468835D01*
X86778244Y-45468835D02*
X86730625Y-45611692D01*
X86730625Y-45611692D02*
X86159197Y-46183121D01*
X86159197Y-46183121D02*
X86778244Y-46183121D01*
X98083333Y-120295180D02*
X98083333Y-119580895D01*
X98083333Y-119580895D02*
X98130952Y-119438038D01*
X98130952Y-119438038D02*
X98226190Y-119342800D01*
X98226190Y-119342800D02*
X98369047Y-119295180D01*
X98369047Y-119295180D02*
X98464285Y-119295180D01*
X97178571Y-119961847D02*
X97178571Y-119295180D01*
X97416666Y-120342800D02*
X97654761Y-119628514D01*
X97654761Y-119628514D02*
X97035714Y-119628514D01*
D10*
X89759907Y-135763014D02*
X90033240Y-136153490D01*
X90228478Y-135763014D02*
X90228478Y-136583014D01*
X90228478Y-136583014D02*
X89916097Y-136583014D01*
X89916097Y-136583014D02*
X89838002Y-136543966D01*
X89838002Y-136543966D02*
X89798955Y-136504919D01*
X89798955Y-136504919D02*
X89759907Y-136426823D01*
X89759907Y-136426823D02*
X89759907Y-136309681D01*
X89759907Y-136309681D02*
X89798955Y-136231585D01*
X89798955Y-136231585D02*
X89838002Y-136192538D01*
X89838002Y-136192538D02*
X89916097Y-136153490D01*
X89916097Y-136153490D02*
X90228478Y-136153490D01*
X89057050Y-136309681D02*
X89057050Y-135763014D01*
X89252288Y-136622062D02*
X89447526Y-136036347D01*
X89447526Y-136036347D02*
X88939907Y-136036347D01*
X117372772Y-124755029D02*
X117487058Y-124793124D01*
X117487058Y-124793124D02*
X117677534Y-124793124D01*
X117677534Y-124793124D02*
X117753725Y-124755029D01*
X117753725Y-124755029D02*
X117791820Y-124716933D01*
X117791820Y-124716933D02*
X117829915Y-124640743D01*
X117829915Y-124640743D02*
X117829915Y-124564552D01*
X117829915Y-124564552D02*
X117791820Y-124488362D01*
X117791820Y-124488362D02*
X117753725Y-124450266D01*
X117753725Y-124450266D02*
X117677534Y-124412171D01*
X117677534Y-124412171D02*
X117525153Y-124374076D01*
X117525153Y-124374076D02*
X117448962Y-124335980D01*
X117448962Y-124335980D02*
X117410867Y-124297885D01*
X117410867Y-124297885D02*
X117372772Y-124221695D01*
X117372772Y-124221695D02*
X117372772Y-124145504D01*
X117372772Y-124145504D02*
X117410867Y-124069313D01*
X117410867Y-124069313D02*
X117448962Y-124031218D01*
X117448962Y-124031218D02*
X117525153Y-123993123D01*
X117525153Y-123993123D02*
X117715629Y-123993123D01*
X117715629Y-123993123D02*
X117829915Y-124031218D01*
X118134678Y-124069313D02*
X118172773Y-124031218D01*
X118172773Y-124031218D02*
X118248964Y-123993123D01*
X118248964Y-123993123D02*
X118439440Y-123993123D01*
X118439440Y-123993123D02*
X118515631Y-124031218D01*
X118515631Y-124031218D02*
X118553726Y-124069313D01*
X118553726Y-124069313D02*
X118591821Y-124145504D01*
X118591821Y-124145504D02*
X118591821Y-124221695D01*
X118591821Y-124221695D02*
X118553726Y-124335980D01*
X118553726Y-124335980D02*
X118096582Y-124793124D01*
X118096582Y-124793124D02*
X118591821Y-124793124D01*
D11*
X151238095Y-119054819D02*
X151238095Y-119864342D01*
X151238095Y-119864342D02*
X151285714Y-119959580D01*
X151285714Y-119959580D02*
X151333333Y-120007200D01*
X151333333Y-120007200D02*
X151428571Y-120054819D01*
X151428571Y-120054819D02*
X151619047Y-120054819D01*
X151619047Y-120054819D02*
X151714285Y-120007200D01*
X151714285Y-120007200D02*
X151761904Y-119959580D01*
X151761904Y-119959580D02*
X151809523Y-119864342D01*
X151809523Y-119864342D02*
X151809523Y-119054819D01*
X152714285Y-119388152D02*
X152714285Y-120054819D01*
X152476190Y-119007200D02*
X152238095Y-119721485D01*
X152238095Y-119721485D02*
X152857142Y-119721485D01*
D10*
X117620508Y-62605237D02*
X116800508Y-62605237D01*
X116800508Y-62605237D02*
X116800508Y-62409999D01*
X116800508Y-62409999D02*
X116839556Y-62292856D01*
X116839556Y-62292856D02*
X116917651Y-62214761D01*
X116917651Y-62214761D02*
X116995746Y-62175714D01*
X116995746Y-62175714D02*
X117151937Y-62136666D01*
X117151937Y-62136666D02*
X117269080Y-62136666D01*
X117269080Y-62136666D02*
X117425270Y-62175714D01*
X117425270Y-62175714D02*
X117503365Y-62214761D01*
X117503365Y-62214761D02*
X117581461Y-62292856D01*
X117581461Y-62292856D02*
X117620508Y-62409999D01*
X117620508Y-62409999D02*
X117620508Y-62605237D01*
X117620508Y-61746190D02*
X117620508Y-61589999D01*
X117620508Y-61589999D02*
X117581461Y-61511904D01*
X117581461Y-61511904D02*
X117542413Y-61472856D01*
X117542413Y-61472856D02*
X117425270Y-61394761D01*
X117425270Y-61394761D02*
X117269080Y-61355714D01*
X117269080Y-61355714D02*
X116956699Y-61355714D01*
X116956699Y-61355714D02*
X116878603Y-61394761D01*
X116878603Y-61394761D02*
X116839556Y-61433809D01*
X116839556Y-61433809D02*
X116800508Y-61511904D01*
X116800508Y-61511904D02*
X116800508Y-61668095D01*
X116800508Y-61668095D02*
X116839556Y-61746190D01*
X116839556Y-61746190D02*
X116878603Y-61785237D01*
X116878603Y-61785237D02*
X116956699Y-61824285D01*
X116956699Y-61824285D02*
X117151937Y-61824285D01*
X117151937Y-61824285D02*
X117230032Y-61785237D01*
X117230032Y-61785237D02*
X117269080Y-61746190D01*
X117269080Y-61746190D02*
X117308127Y-61668095D01*
X117308127Y-61668095D02*
X117308127Y-61511904D01*
X117308127Y-61511904D02*
X117269080Y-61433809D01*
X117269080Y-61433809D02*
X117230032Y-61394761D01*
X117230032Y-61394761D02*
X117151937Y-61355714D01*
X112594907Y-78738014D02*
X112868240Y-79128490D01*
X113063478Y-78738014D02*
X113063478Y-79558014D01*
X113063478Y-79558014D02*
X112751097Y-79558014D01*
X112751097Y-79558014D02*
X112673002Y-79518966D01*
X112673002Y-79518966D02*
X112633955Y-79479919D01*
X112633955Y-79479919D02*
X112594907Y-79401823D01*
X112594907Y-79401823D02*
X112594907Y-79284681D01*
X112594907Y-79284681D02*
X112633955Y-79206585D01*
X112633955Y-79206585D02*
X112673002Y-79167538D01*
X112673002Y-79167538D02*
X112751097Y-79128490D01*
X112751097Y-79128490D02*
X113063478Y-79128490D01*
X111892050Y-79284681D02*
X111892050Y-78738014D01*
X112087288Y-79597062D02*
X112282526Y-79011347D01*
X112282526Y-79011347D02*
X111774907Y-79011347D01*
X111072050Y-79558014D02*
X111462526Y-79558014D01*
X111462526Y-79558014D02*
X111501574Y-79167538D01*
X111501574Y-79167538D02*
X111462526Y-79206585D01*
X111462526Y-79206585D02*
X111384431Y-79245633D01*
X111384431Y-79245633D02*
X111189193Y-79245633D01*
X111189193Y-79245633D02*
X111111098Y-79206585D01*
X111111098Y-79206585D02*
X111072050Y-79167538D01*
X111072050Y-79167538D02*
X111033003Y-79089442D01*
X111033003Y-79089442D02*
X111033003Y-78894204D01*
X111033003Y-78894204D02*
X111072050Y-78816109D01*
X111072050Y-78816109D02*
X111111098Y-78777062D01*
X111111098Y-78777062D02*
X111189193Y-78738014D01*
X111189193Y-78738014D02*
X111384431Y-78738014D01*
X111384431Y-78738014D02*
X111462526Y-78777062D01*
X111462526Y-78777062D02*
X111501574Y-78816109D01*
D11*
X82949580Y-119412857D02*
X82997200Y-119460476D01*
X82997200Y-119460476D02*
X83044819Y-119603333D01*
X83044819Y-119603333D02*
X83044819Y-119698571D01*
X83044819Y-119698571D02*
X82997200Y-119841428D01*
X82997200Y-119841428D02*
X82901961Y-119936666D01*
X82901961Y-119936666D02*
X82806723Y-119984285D01*
X82806723Y-119984285D02*
X82616247Y-120031904D01*
X82616247Y-120031904D02*
X82473390Y-120031904D01*
X82473390Y-120031904D02*
X82282914Y-119984285D01*
X82282914Y-119984285D02*
X82187676Y-119936666D01*
X82187676Y-119936666D02*
X82092438Y-119841428D01*
X82092438Y-119841428D02*
X82044819Y-119698571D01*
X82044819Y-119698571D02*
X82044819Y-119603333D01*
X82044819Y-119603333D02*
X82092438Y-119460476D01*
X82092438Y-119460476D02*
X82140057Y-119412857D01*
X83044819Y-118460476D02*
X83044819Y-119031904D01*
X83044819Y-118746190D02*
X82044819Y-118746190D01*
X82044819Y-118746190D02*
X82187676Y-118841428D01*
X82187676Y-118841428D02*
X82282914Y-118936666D01*
X82282914Y-118936666D02*
X82330533Y-119031904D01*
X83044819Y-117508095D02*
X83044819Y-118079523D01*
X83044819Y-117793809D02*
X82044819Y-117793809D01*
X82044819Y-117793809D02*
X82187676Y-117889047D01*
X82187676Y-117889047D02*
X82282914Y-117984285D01*
X82282914Y-117984285D02*
X82330533Y-118079523D01*
X82124819Y-60180357D02*
X81648628Y-60513690D01*
X82124819Y-60751785D02*
X81124819Y-60751785D01*
X81124819Y-60751785D02*
X81124819Y-60370833D01*
X81124819Y-60370833D02*
X81172438Y-60275595D01*
X81172438Y-60275595D02*
X81220057Y-60227976D01*
X81220057Y-60227976D02*
X81315295Y-60180357D01*
X81315295Y-60180357D02*
X81458152Y-60180357D01*
X81458152Y-60180357D02*
X81553390Y-60227976D01*
X81553390Y-60227976D02*
X81601009Y-60275595D01*
X81601009Y-60275595D02*
X81648628Y-60370833D01*
X81648628Y-60370833D02*
X81648628Y-60751785D01*
X82124819Y-59227976D02*
X82124819Y-59799404D01*
X82124819Y-59513690D02*
X81124819Y-59513690D01*
X81124819Y-59513690D02*
X81267676Y-59608928D01*
X81267676Y-59608928D02*
X81362914Y-59704166D01*
X81362914Y-59704166D02*
X81410533Y-59799404D01*
X81124819Y-58370833D02*
X81124819Y-58561309D01*
X81124819Y-58561309D02*
X81172438Y-58656547D01*
X81172438Y-58656547D02*
X81220057Y-58704166D01*
X81220057Y-58704166D02*
X81362914Y-58799404D01*
X81362914Y-58799404D02*
X81553390Y-58847023D01*
X81553390Y-58847023D02*
X81934342Y-58847023D01*
X81934342Y-58847023D02*
X82029580Y-58799404D01*
X82029580Y-58799404D02*
X82077200Y-58751785D01*
X82077200Y-58751785D02*
X82124819Y-58656547D01*
X82124819Y-58656547D02*
X82124819Y-58466071D01*
X82124819Y-58466071D02*
X82077200Y-58370833D01*
X82077200Y-58370833D02*
X82029580Y-58323214D01*
X82029580Y-58323214D02*
X81934342Y-58275595D01*
X81934342Y-58275595D02*
X81696247Y-58275595D01*
X81696247Y-58275595D02*
X81601009Y-58323214D01*
X81601009Y-58323214D02*
X81553390Y-58370833D01*
X81553390Y-58370833D02*
X81505771Y-58466071D01*
X81505771Y-58466071D02*
X81505771Y-58656547D01*
X81505771Y-58656547D02*
X81553390Y-58751785D01*
X81553390Y-58751785D02*
X81601009Y-58799404D01*
X81601009Y-58799404D02*
X81696247Y-58847023D01*
X79239819Y-84386904D02*
X80049342Y-84386904D01*
X80049342Y-84386904D02*
X80144580Y-84339285D01*
X80144580Y-84339285D02*
X80192200Y-84291666D01*
X80192200Y-84291666D02*
X80239819Y-84196428D01*
X80239819Y-84196428D02*
X80239819Y-84005952D01*
X80239819Y-84005952D02*
X80192200Y-83910714D01*
X80192200Y-83910714D02*
X80144580Y-83863095D01*
X80144580Y-83863095D02*
X80049342Y-83815476D01*
X80049342Y-83815476D02*
X79239819Y-83815476D01*
X79239819Y-82910714D02*
X79239819Y-83101190D01*
X79239819Y-83101190D02*
X79287438Y-83196428D01*
X79287438Y-83196428D02*
X79335057Y-83244047D01*
X79335057Y-83244047D02*
X79477914Y-83339285D01*
X79477914Y-83339285D02*
X79668390Y-83386904D01*
X79668390Y-83386904D02*
X80049342Y-83386904D01*
X80049342Y-83386904D02*
X80144580Y-83339285D01*
X80144580Y-83339285D02*
X80192200Y-83291666D01*
X80192200Y-83291666D02*
X80239819Y-83196428D01*
X80239819Y-83196428D02*
X80239819Y-83005952D01*
X80239819Y-83005952D02*
X80192200Y-82910714D01*
X80192200Y-82910714D02*
X80144580Y-82863095D01*
X80144580Y-82863095D02*
X80049342Y-82815476D01*
X80049342Y-82815476D02*
X79811247Y-82815476D01*
X79811247Y-82815476D02*
X79716009Y-82863095D01*
X79716009Y-82863095D02*
X79668390Y-82910714D01*
X79668390Y-82910714D02*
X79620771Y-83005952D01*
X79620771Y-83005952D02*
X79620771Y-83196428D01*
X79620771Y-83196428D02*
X79668390Y-83291666D01*
X79668390Y-83291666D02*
X79716009Y-83339285D01*
X79716009Y-83339285D02*
X79811247Y-83386904D01*
D10*
X91059907Y-88913014D02*
X91333240Y-89303490D01*
X91528478Y-88913014D02*
X91528478Y-89733014D01*
X91528478Y-89733014D02*
X91216097Y-89733014D01*
X91216097Y-89733014D02*
X91138002Y-89693966D01*
X91138002Y-89693966D02*
X91098955Y-89654919D01*
X91098955Y-89654919D02*
X91059907Y-89576823D01*
X91059907Y-89576823D02*
X91059907Y-89459681D01*
X91059907Y-89459681D02*
X91098955Y-89381585D01*
X91098955Y-89381585D02*
X91138002Y-89342538D01*
X91138002Y-89342538D02*
X91216097Y-89303490D01*
X91216097Y-89303490D02*
X91528478Y-89303490D01*
X90786574Y-89733014D02*
X90278955Y-89733014D01*
X90278955Y-89733014D02*
X90552288Y-89420633D01*
X90552288Y-89420633D02*
X90435145Y-89420633D01*
X90435145Y-89420633D02*
X90357050Y-89381585D01*
X90357050Y-89381585D02*
X90318002Y-89342538D01*
X90318002Y-89342538D02*
X90278955Y-89264442D01*
X90278955Y-89264442D02*
X90278955Y-89069204D01*
X90278955Y-89069204D02*
X90318002Y-88991109D01*
X90318002Y-88991109D02*
X90357050Y-88952062D01*
X90357050Y-88952062D02*
X90435145Y-88913014D01*
X90435145Y-88913014D02*
X90669431Y-88913014D01*
X90669431Y-88913014D02*
X90747526Y-88952062D01*
X90747526Y-88952062D02*
X90786574Y-88991109D01*
X89771336Y-89733014D02*
X89693241Y-89733014D01*
X89693241Y-89733014D02*
X89615145Y-89693966D01*
X89615145Y-89693966D02*
X89576098Y-89654919D01*
X89576098Y-89654919D02*
X89537050Y-89576823D01*
X89537050Y-89576823D02*
X89498003Y-89420633D01*
X89498003Y-89420633D02*
X89498003Y-89225395D01*
X89498003Y-89225395D02*
X89537050Y-89069204D01*
X89537050Y-89069204D02*
X89576098Y-88991109D01*
X89576098Y-88991109D02*
X89615145Y-88952062D01*
X89615145Y-88952062D02*
X89693241Y-88913014D01*
X89693241Y-88913014D02*
X89771336Y-88913014D01*
X89771336Y-88913014D02*
X89849431Y-88952062D01*
X89849431Y-88952062D02*
X89888479Y-88991109D01*
X89888479Y-88991109D02*
X89927526Y-89069204D01*
X89927526Y-89069204D02*
X89966574Y-89225395D01*
X89966574Y-89225395D02*
X89966574Y-89420633D01*
X89966574Y-89420633D02*
X89927526Y-89576823D01*
X89927526Y-89576823D02*
X89888479Y-89654919D01*
X89888479Y-89654919D02*
X89849431Y-89693966D01*
X89849431Y-89693966D02*
X89771336Y-89733014D01*
X95509907Y-74763014D02*
X95783240Y-75153490D01*
X95978478Y-74763014D02*
X95978478Y-75583014D01*
X95978478Y-75583014D02*
X95666097Y-75583014D01*
X95666097Y-75583014D02*
X95588002Y-75543966D01*
X95588002Y-75543966D02*
X95548955Y-75504919D01*
X95548955Y-75504919D02*
X95509907Y-75426823D01*
X95509907Y-75426823D02*
X95509907Y-75309681D01*
X95509907Y-75309681D02*
X95548955Y-75231585D01*
X95548955Y-75231585D02*
X95588002Y-75192538D01*
X95588002Y-75192538D02*
X95666097Y-75153490D01*
X95666097Y-75153490D02*
X95978478Y-75153490D01*
X95197526Y-75504919D02*
X95158478Y-75543966D01*
X95158478Y-75543966D02*
X95080383Y-75583014D01*
X95080383Y-75583014D02*
X94885145Y-75583014D01*
X94885145Y-75583014D02*
X94807050Y-75543966D01*
X94807050Y-75543966D02*
X94768002Y-75504919D01*
X94768002Y-75504919D02*
X94728955Y-75426823D01*
X94728955Y-75426823D02*
X94728955Y-75348728D01*
X94728955Y-75348728D02*
X94768002Y-75231585D01*
X94768002Y-75231585D02*
X95236574Y-74763014D01*
X95236574Y-74763014D02*
X94728955Y-74763014D01*
X94026098Y-75583014D02*
X94182288Y-75583014D01*
X94182288Y-75583014D02*
X94260384Y-75543966D01*
X94260384Y-75543966D02*
X94299431Y-75504919D01*
X94299431Y-75504919D02*
X94377526Y-75387776D01*
X94377526Y-75387776D02*
X94416574Y-75231585D01*
X94416574Y-75231585D02*
X94416574Y-74919204D01*
X94416574Y-74919204D02*
X94377526Y-74841109D01*
X94377526Y-74841109D02*
X94338479Y-74802062D01*
X94338479Y-74802062D02*
X94260384Y-74763014D01*
X94260384Y-74763014D02*
X94104193Y-74763014D01*
X94104193Y-74763014D02*
X94026098Y-74802062D01*
X94026098Y-74802062D02*
X93987050Y-74841109D01*
X93987050Y-74841109D02*
X93948003Y-74919204D01*
X93948003Y-74919204D02*
X93948003Y-75114442D01*
X93948003Y-75114442D02*
X93987050Y-75192538D01*
X93987050Y-75192538D02*
X94026098Y-75231585D01*
X94026098Y-75231585D02*
X94104193Y-75270633D01*
X94104193Y-75270633D02*
X94260384Y-75270633D01*
X94260384Y-75270633D02*
X94338479Y-75231585D01*
X94338479Y-75231585D02*
X94377526Y-75192538D01*
X94377526Y-75192538D02*
X94416574Y-75114442D01*
X113620508Y-57355237D02*
X112800508Y-57355237D01*
X112800508Y-57355237D02*
X112800508Y-57159999D01*
X112800508Y-57159999D02*
X112839556Y-57042856D01*
X112839556Y-57042856D02*
X112917651Y-56964761D01*
X112917651Y-56964761D02*
X112995746Y-56925714D01*
X112995746Y-56925714D02*
X113151937Y-56886666D01*
X113151937Y-56886666D02*
X113269080Y-56886666D01*
X113269080Y-56886666D02*
X113425270Y-56925714D01*
X113425270Y-56925714D02*
X113503365Y-56964761D01*
X113503365Y-56964761D02*
X113581461Y-57042856D01*
X113581461Y-57042856D02*
X113620508Y-57159999D01*
X113620508Y-57159999D02*
X113620508Y-57355237D01*
X113151937Y-56418095D02*
X113112889Y-56496190D01*
X113112889Y-56496190D02*
X113073841Y-56535237D01*
X113073841Y-56535237D02*
X112995746Y-56574285D01*
X112995746Y-56574285D02*
X112956699Y-56574285D01*
X112956699Y-56574285D02*
X112878603Y-56535237D01*
X112878603Y-56535237D02*
X112839556Y-56496190D01*
X112839556Y-56496190D02*
X112800508Y-56418095D01*
X112800508Y-56418095D02*
X112800508Y-56261904D01*
X112800508Y-56261904D02*
X112839556Y-56183809D01*
X112839556Y-56183809D02*
X112878603Y-56144761D01*
X112878603Y-56144761D02*
X112956699Y-56105714D01*
X112956699Y-56105714D02*
X112995746Y-56105714D01*
X112995746Y-56105714D02*
X113073841Y-56144761D01*
X113073841Y-56144761D02*
X113112889Y-56183809D01*
X113112889Y-56183809D02*
X113151937Y-56261904D01*
X113151937Y-56261904D02*
X113151937Y-56418095D01*
X113151937Y-56418095D02*
X113190984Y-56496190D01*
X113190984Y-56496190D02*
X113230032Y-56535237D01*
X113230032Y-56535237D02*
X113308127Y-56574285D01*
X113308127Y-56574285D02*
X113464318Y-56574285D01*
X113464318Y-56574285D02*
X113542413Y-56535237D01*
X113542413Y-56535237D02*
X113581461Y-56496190D01*
X113581461Y-56496190D02*
X113620508Y-56418095D01*
X113620508Y-56418095D02*
X113620508Y-56261904D01*
X113620508Y-56261904D02*
X113581461Y-56183809D01*
X113581461Y-56183809D02*
X113542413Y-56144761D01*
X113542413Y-56144761D02*
X113464318Y-56105714D01*
X113464318Y-56105714D02*
X113308127Y-56105714D01*
X113308127Y-56105714D02*
X113230032Y-56144761D01*
X113230032Y-56144761D02*
X113190984Y-56183809D01*
X113190984Y-56183809D02*
X113151937Y-56261904D01*
D11*
X75784819Y-117382857D02*
X75308628Y-117716190D01*
X75784819Y-117954285D02*
X74784819Y-117954285D01*
X74784819Y-117954285D02*
X74784819Y-117573333D01*
X74784819Y-117573333D02*
X74832438Y-117478095D01*
X74832438Y-117478095D02*
X74880057Y-117430476D01*
X74880057Y-117430476D02*
X74975295Y-117382857D01*
X74975295Y-117382857D02*
X75118152Y-117382857D01*
X75118152Y-117382857D02*
X75213390Y-117430476D01*
X75213390Y-117430476D02*
X75261009Y-117478095D01*
X75261009Y-117478095D02*
X75308628Y-117573333D01*
X75308628Y-117573333D02*
X75308628Y-117954285D01*
X75784819Y-116430476D02*
X75784819Y-117001904D01*
X75784819Y-116716190D02*
X74784819Y-116716190D01*
X74784819Y-116716190D02*
X74927676Y-116811428D01*
X74927676Y-116811428D02*
X75022914Y-116906666D01*
X75022914Y-116906666D02*
X75070533Y-117001904D01*
X74880057Y-116049523D02*
X74832438Y-116001904D01*
X74832438Y-116001904D02*
X74784819Y-115906666D01*
X74784819Y-115906666D02*
X74784819Y-115668571D01*
X74784819Y-115668571D02*
X74832438Y-115573333D01*
X74832438Y-115573333D02*
X74880057Y-115525714D01*
X74880057Y-115525714D02*
X74975295Y-115478095D01*
X74975295Y-115478095D02*
X75070533Y-115478095D01*
X75070533Y-115478095D02*
X75213390Y-115525714D01*
X75213390Y-115525714D02*
X75784819Y-116097142D01*
X75784819Y-116097142D02*
X75784819Y-115478095D01*
X78784819Y-116906666D02*
X78308628Y-117239999D01*
X78784819Y-117478094D02*
X77784819Y-117478094D01*
X77784819Y-117478094D02*
X77784819Y-117097142D01*
X77784819Y-117097142D02*
X77832438Y-117001904D01*
X77832438Y-117001904D02*
X77880057Y-116954285D01*
X77880057Y-116954285D02*
X77975295Y-116906666D01*
X77975295Y-116906666D02*
X78118152Y-116906666D01*
X78118152Y-116906666D02*
X78213390Y-116954285D01*
X78213390Y-116954285D02*
X78261009Y-117001904D01*
X78261009Y-117001904D02*
X78308628Y-117097142D01*
X78308628Y-117097142D02*
X78308628Y-117478094D01*
X77784819Y-116049523D02*
X77784819Y-116239999D01*
X77784819Y-116239999D02*
X77832438Y-116335237D01*
X77832438Y-116335237D02*
X77880057Y-116382856D01*
X77880057Y-116382856D02*
X78022914Y-116478094D01*
X78022914Y-116478094D02*
X78213390Y-116525713D01*
X78213390Y-116525713D02*
X78594342Y-116525713D01*
X78594342Y-116525713D02*
X78689580Y-116478094D01*
X78689580Y-116478094D02*
X78737200Y-116430475D01*
X78737200Y-116430475D02*
X78784819Y-116335237D01*
X78784819Y-116335237D02*
X78784819Y-116144761D01*
X78784819Y-116144761D02*
X78737200Y-116049523D01*
X78737200Y-116049523D02*
X78689580Y-116001904D01*
X78689580Y-116001904D02*
X78594342Y-115954285D01*
X78594342Y-115954285D02*
X78356247Y-115954285D01*
X78356247Y-115954285D02*
X78261009Y-116001904D01*
X78261009Y-116001904D02*
X78213390Y-116049523D01*
X78213390Y-116049523D02*
X78165771Y-116144761D01*
X78165771Y-116144761D02*
X78165771Y-116335237D01*
X78165771Y-116335237D02*
X78213390Y-116430475D01*
X78213390Y-116430475D02*
X78261009Y-116478094D01*
X78261009Y-116478094D02*
X78356247Y-116525713D01*
D10*
X103059907Y-88913014D02*
X103333240Y-89303490D01*
X103528478Y-88913014D02*
X103528478Y-89733014D01*
X103528478Y-89733014D02*
X103216097Y-89733014D01*
X103216097Y-89733014D02*
X103138002Y-89693966D01*
X103138002Y-89693966D02*
X103098955Y-89654919D01*
X103098955Y-89654919D02*
X103059907Y-89576823D01*
X103059907Y-89576823D02*
X103059907Y-89459681D01*
X103059907Y-89459681D02*
X103098955Y-89381585D01*
X103098955Y-89381585D02*
X103138002Y-89342538D01*
X103138002Y-89342538D02*
X103216097Y-89303490D01*
X103216097Y-89303490D02*
X103528478Y-89303490D01*
X102786574Y-89733014D02*
X102278955Y-89733014D01*
X102278955Y-89733014D02*
X102552288Y-89420633D01*
X102552288Y-89420633D02*
X102435145Y-89420633D01*
X102435145Y-89420633D02*
X102357050Y-89381585D01*
X102357050Y-89381585D02*
X102318002Y-89342538D01*
X102318002Y-89342538D02*
X102278955Y-89264442D01*
X102278955Y-89264442D02*
X102278955Y-89069204D01*
X102278955Y-89069204D02*
X102318002Y-88991109D01*
X102318002Y-88991109D02*
X102357050Y-88952062D01*
X102357050Y-88952062D02*
X102435145Y-88913014D01*
X102435145Y-88913014D02*
X102669431Y-88913014D01*
X102669431Y-88913014D02*
X102747526Y-88952062D01*
X102747526Y-88952062D02*
X102786574Y-88991109D01*
X101966574Y-89654919D02*
X101927526Y-89693966D01*
X101927526Y-89693966D02*
X101849431Y-89733014D01*
X101849431Y-89733014D02*
X101654193Y-89733014D01*
X101654193Y-89733014D02*
X101576098Y-89693966D01*
X101576098Y-89693966D02*
X101537050Y-89654919D01*
X101537050Y-89654919D02*
X101498003Y-89576823D01*
X101498003Y-89576823D02*
X101498003Y-89498728D01*
X101498003Y-89498728D02*
X101537050Y-89381585D01*
X101537050Y-89381585D02*
X102005622Y-88913014D01*
X102005622Y-88913014D02*
X101498003Y-88913014D01*
D11*
X106639819Y-74663094D02*
X107449342Y-74663094D01*
X107449342Y-74663094D02*
X107544580Y-74615475D01*
X107544580Y-74615475D02*
X107592200Y-74567856D01*
X107592200Y-74567856D02*
X107639819Y-74472618D01*
X107639819Y-74472618D02*
X107639819Y-74282142D01*
X107639819Y-74282142D02*
X107592200Y-74186904D01*
X107592200Y-74186904D02*
X107544580Y-74139285D01*
X107544580Y-74139285D02*
X107449342Y-74091666D01*
X107449342Y-74091666D02*
X106639819Y-74091666D01*
X107639819Y-73091666D02*
X107639819Y-73663094D01*
X107639819Y-73377380D02*
X106639819Y-73377380D01*
X106639819Y-73377380D02*
X106782676Y-73472618D01*
X106782676Y-73472618D02*
X106877914Y-73567856D01*
X106877914Y-73567856D02*
X106925533Y-73663094D01*
X106973152Y-72234523D02*
X107639819Y-72234523D01*
X106592200Y-72472618D02*
X107306485Y-72710713D01*
X107306485Y-72710713D02*
X107306485Y-72091666D01*
X156833333Y-124449580D02*
X156785714Y-124497200D01*
X156785714Y-124497200D02*
X156642857Y-124544819D01*
X156642857Y-124544819D02*
X156547619Y-124544819D01*
X156547619Y-124544819D02*
X156404762Y-124497200D01*
X156404762Y-124497200D02*
X156309524Y-124401961D01*
X156309524Y-124401961D02*
X156261905Y-124306723D01*
X156261905Y-124306723D02*
X156214286Y-124116247D01*
X156214286Y-124116247D02*
X156214286Y-123973390D01*
X156214286Y-123973390D02*
X156261905Y-123782914D01*
X156261905Y-123782914D02*
X156309524Y-123687676D01*
X156309524Y-123687676D02*
X156404762Y-123592438D01*
X156404762Y-123592438D02*
X156547619Y-123544819D01*
X156547619Y-123544819D02*
X156642857Y-123544819D01*
X156642857Y-123544819D02*
X156785714Y-123592438D01*
X156785714Y-123592438D02*
X156833333Y-123640057D01*
X157166667Y-123544819D02*
X157833333Y-123544819D01*
X157833333Y-123544819D02*
X157404762Y-124544819D01*
D10*
X78539907Y-74763014D02*
X78813240Y-75153490D01*
X79008478Y-74763014D02*
X79008478Y-75583014D01*
X79008478Y-75583014D02*
X78696097Y-75583014D01*
X78696097Y-75583014D02*
X78618002Y-75543966D01*
X78618002Y-75543966D02*
X78578955Y-75504919D01*
X78578955Y-75504919D02*
X78539907Y-75426823D01*
X78539907Y-75426823D02*
X78539907Y-75309681D01*
X78539907Y-75309681D02*
X78578955Y-75231585D01*
X78578955Y-75231585D02*
X78618002Y-75192538D01*
X78618002Y-75192538D02*
X78696097Y-75153490D01*
X78696097Y-75153490D02*
X79008478Y-75153490D01*
X78227526Y-75504919D02*
X78188478Y-75543966D01*
X78188478Y-75543966D02*
X78110383Y-75583014D01*
X78110383Y-75583014D02*
X77915145Y-75583014D01*
X77915145Y-75583014D02*
X77837050Y-75543966D01*
X77837050Y-75543966D02*
X77798002Y-75504919D01*
X77798002Y-75504919D02*
X77758955Y-75426823D01*
X77758955Y-75426823D02*
X77758955Y-75348728D01*
X77758955Y-75348728D02*
X77798002Y-75231585D01*
X77798002Y-75231585D02*
X78266574Y-74763014D01*
X78266574Y-74763014D02*
X77758955Y-74763014D01*
X77290384Y-75231585D02*
X77368479Y-75270633D01*
X77368479Y-75270633D02*
X77407526Y-75309681D01*
X77407526Y-75309681D02*
X77446574Y-75387776D01*
X77446574Y-75387776D02*
X77446574Y-75426823D01*
X77446574Y-75426823D02*
X77407526Y-75504919D01*
X77407526Y-75504919D02*
X77368479Y-75543966D01*
X77368479Y-75543966D02*
X77290384Y-75583014D01*
X77290384Y-75583014D02*
X77134193Y-75583014D01*
X77134193Y-75583014D02*
X77056098Y-75543966D01*
X77056098Y-75543966D02*
X77017050Y-75504919D01*
X77017050Y-75504919D02*
X76978003Y-75426823D01*
X76978003Y-75426823D02*
X76978003Y-75387776D01*
X76978003Y-75387776D02*
X77017050Y-75309681D01*
X77017050Y-75309681D02*
X77056098Y-75270633D01*
X77056098Y-75270633D02*
X77134193Y-75231585D01*
X77134193Y-75231585D02*
X77290384Y-75231585D01*
X77290384Y-75231585D02*
X77368479Y-75192538D01*
X77368479Y-75192538D02*
X77407526Y-75153490D01*
X77407526Y-75153490D02*
X77446574Y-75075395D01*
X77446574Y-75075395D02*
X77446574Y-74919204D01*
X77446574Y-74919204D02*
X77407526Y-74841109D01*
X77407526Y-74841109D02*
X77368479Y-74802062D01*
X77368479Y-74802062D02*
X77290384Y-74763014D01*
X77290384Y-74763014D02*
X77134193Y-74763014D01*
X77134193Y-74763014D02*
X77056098Y-74802062D01*
X77056098Y-74802062D02*
X77017050Y-74841109D01*
X77017050Y-74841109D02*
X76978003Y-74919204D01*
X76978003Y-74919204D02*
X76978003Y-75075395D01*
X76978003Y-75075395D02*
X77017050Y-75153490D01*
X77017050Y-75153490D02*
X77056098Y-75192538D01*
X77056098Y-75192538D02*
X77134193Y-75231585D01*
D11*
X77611009Y-111045833D02*
X77611009Y-111379166D01*
X78134819Y-111379166D02*
X77134819Y-111379166D01*
X77134819Y-111379166D02*
X77134819Y-110902976D01*
X77134819Y-110093452D02*
X77134819Y-110283928D01*
X77134819Y-110283928D02*
X77182438Y-110379166D01*
X77182438Y-110379166D02*
X77230057Y-110426785D01*
X77230057Y-110426785D02*
X77372914Y-110522023D01*
X77372914Y-110522023D02*
X77563390Y-110569642D01*
X77563390Y-110569642D02*
X77944342Y-110569642D01*
X77944342Y-110569642D02*
X78039580Y-110522023D01*
X78039580Y-110522023D02*
X78087200Y-110474404D01*
X78087200Y-110474404D02*
X78134819Y-110379166D01*
X78134819Y-110379166D02*
X78134819Y-110188690D01*
X78134819Y-110188690D02*
X78087200Y-110093452D01*
X78087200Y-110093452D02*
X78039580Y-110045833D01*
X78039580Y-110045833D02*
X77944342Y-109998214D01*
X77944342Y-109998214D02*
X77706247Y-109998214D01*
X77706247Y-109998214D02*
X77611009Y-110045833D01*
X77611009Y-110045833D02*
X77563390Y-110093452D01*
X77563390Y-110093452D02*
X77515771Y-110188690D01*
X77515771Y-110188690D02*
X77515771Y-110379166D01*
X77515771Y-110379166D02*
X77563390Y-110474404D01*
X77563390Y-110474404D02*
X77611009Y-110522023D01*
X77611009Y-110522023D02*
X77706247Y-110569642D01*
X124254819Y-122394078D02*
X125064342Y-122394078D01*
X125064342Y-122394078D02*
X125159580Y-122346459D01*
X125159580Y-122346459D02*
X125207200Y-122298840D01*
X125207200Y-122298840D02*
X125254819Y-122203602D01*
X125254819Y-122203602D02*
X125254819Y-122013126D01*
X125254819Y-122013126D02*
X125207200Y-121917888D01*
X125207200Y-121917888D02*
X125159580Y-121870269D01*
X125159580Y-121870269D02*
X125064342Y-121822650D01*
X125064342Y-121822650D02*
X124254819Y-121822650D01*
X124254819Y-121441697D02*
X124254819Y-120822650D01*
X124254819Y-120822650D02*
X124635771Y-121155983D01*
X124635771Y-121155983D02*
X124635771Y-121013126D01*
X124635771Y-121013126D02*
X124683390Y-120917888D01*
X124683390Y-120917888D02*
X124731009Y-120870269D01*
X124731009Y-120870269D02*
X124826247Y-120822650D01*
X124826247Y-120822650D02*
X125064342Y-120822650D01*
X125064342Y-120822650D02*
X125159580Y-120870269D01*
X125159580Y-120870269D02*
X125207200Y-120917888D01*
X125207200Y-120917888D02*
X125254819Y-121013126D01*
X125254819Y-121013126D02*
X125254819Y-121298840D01*
X125254819Y-121298840D02*
X125207200Y-121394078D01*
X125207200Y-121394078D02*
X125159580Y-121441697D01*
X98874819Y-60180357D02*
X98398628Y-60513690D01*
X98874819Y-60751785D02*
X97874819Y-60751785D01*
X97874819Y-60751785D02*
X97874819Y-60370833D01*
X97874819Y-60370833D02*
X97922438Y-60275595D01*
X97922438Y-60275595D02*
X97970057Y-60227976D01*
X97970057Y-60227976D02*
X98065295Y-60180357D01*
X98065295Y-60180357D02*
X98208152Y-60180357D01*
X98208152Y-60180357D02*
X98303390Y-60227976D01*
X98303390Y-60227976D02*
X98351009Y-60275595D01*
X98351009Y-60275595D02*
X98398628Y-60370833D01*
X98398628Y-60370833D02*
X98398628Y-60751785D01*
X98874819Y-59227976D02*
X98874819Y-59799404D01*
X98874819Y-59513690D02*
X97874819Y-59513690D01*
X97874819Y-59513690D02*
X98017676Y-59608928D01*
X98017676Y-59608928D02*
X98112914Y-59704166D01*
X98112914Y-59704166D02*
X98160533Y-59799404D01*
X98208152Y-58370833D02*
X98874819Y-58370833D01*
X97827200Y-58608928D02*
X98541485Y-58847023D01*
X98541485Y-58847023D02*
X98541485Y-58227976D01*
X79611009Y-111045833D02*
X79611009Y-111379166D01*
X80134819Y-111379166D02*
X79134819Y-111379166D01*
X79134819Y-111379166D02*
X79134819Y-110902976D01*
X79134819Y-110045833D02*
X79134819Y-110522023D01*
X79134819Y-110522023D02*
X79611009Y-110569642D01*
X79611009Y-110569642D02*
X79563390Y-110522023D01*
X79563390Y-110522023D02*
X79515771Y-110426785D01*
X79515771Y-110426785D02*
X79515771Y-110188690D01*
X79515771Y-110188690D02*
X79563390Y-110093452D01*
X79563390Y-110093452D02*
X79611009Y-110045833D01*
X79611009Y-110045833D02*
X79706247Y-109998214D01*
X79706247Y-109998214D02*
X79944342Y-109998214D01*
X79944342Y-109998214D02*
X80039580Y-110045833D01*
X80039580Y-110045833D02*
X80087200Y-110093452D01*
X80087200Y-110093452D02*
X80134819Y-110188690D01*
X80134819Y-110188690D02*
X80134819Y-110426785D01*
X80134819Y-110426785D02*
X80087200Y-110522023D01*
X80087200Y-110522023D02*
X80039580Y-110569642D01*
X109475595Y-116054819D02*
X109475595Y-116864342D01*
X109475595Y-116864342D02*
X109523214Y-116959580D01*
X109523214Y-116959580D02*
X109570833Y-117007200D01*
X109570833Y-117007200D02*
X109666071Y-117054819D01*
X109666071Y-117054819D02*
X109856547Y-117054819D01*
X109856547Y-117054819D02*
X109951785Y-117007200D01*
X109951785Y-117007200D02*
X109999404Y-116959580D01*
X109999404Y-116959580D02*
X110047023Y-116864342D01*
X110047023Y-116864342D02*
X110047023Y-116054819D01*
X111047023Y-117054819D02*
X110475595Y-117054819D01*
X110761309Y-117054819D02*
X110761309Y-116054819D01*
X110761309Y-116054819D02*
X110666071Y-116197676D01*
X110666071Y-116197676D02*
X110570833Y-116292914D01*
X110570833Y-116292914D02*
X110475595Y-116340533D01*
D10*
X85009907Y-63263014D02*
X85283240Y-63653490D01*
X85478478Y-63263014D02*
X85478478Y-64083014D01*
X85478478Y-64083014D02*
X85166097Y-64083014D01*
X85166097Y-64083014D02*
X85088002Y-64043966D01*
X85088002Y-64043966D02*
X85048955Y-64004919D01*
X85048955Y-64004919D02*
X85009907Y-63926823D01*
X85009907Y-63926823D02*
X85009907Y-63809681D01*
X85009907Y-63809681D02*
X85048955Y-63731585D01*
X85048955Y-63731585D02*
X85088002Y-63692538D01*
X85088002Y-63692538D02*
X85166097Y-63653490D01*
X85166097Y-63653490D02*
X85478478Y-63653490D01*
X84697526Y-64004919D02*
X84658478Y-64043966D01*
X84658478Y-64043966D02*
X84580383Y-64083014D01*
X84580383Y-64083014D02*
X84385145Y-64083014D01*
X84385145Y-64083014D02*
X84307050Y-64043966D01*
X84307050Y-64043966D02*
X84268002Y-64004919D01*
X84268002Y-64004919D02*
X84228955Y-63926823D01*
X84228955Y-63926823D02*
X84228955Y-63848728D01*
X84228955Y-63848728D02*
X84268002Y-63731585D01*
X84268002Y-63731585D02*
X84736574Y-63263014D01*
X84736574Y-63263014D02*
X84228955Y-63263014D01*
X83721336Y-64083014D02*
X83643241Y-64083014D01*
X83643241Y-64083014D02*
X83565145Y-64043966D01*
X83565145Y-64043966D02*
X83526098Y-64004919D01*
X83526098Y-64004919D02*
X83487050Y-63926823D01*
X83487050Y-63926823D02*
X83448003Y-63770633D01*
X83448003Y-63770633D02*
X83448003Y-63575395D01*
X83448003Y-63575395D02*
X83487050Y-63419204D01*
X83487050Y-63419204D02*
X83526098Y-63341109D01*
X83526098Y-63341109D02*
X83565145Y-63302062D01*
X83565145Y-63302062D02*
X83643241Y-63263014D01*
X83643241Y-63263014D02*
X83721336Y-63263014D01*
X83721336Y-63263014D02*
X83799431Y-63302062D01*
X83799431Y-63302062D02*
X83838479Y-63341109D01*
X83838479Y-63341109D02*
X83877526Y-63419204D01*
X83877526Y-63419204D02*
X83916574Y-63575395D01*
X83916574Y-63575395D02*
X83916574Y-63770633D01*
X83916574Y-63770633D02*
X83877526Y-63926823D01*
X83877526Y-63926823D02*
X83838479Y-64004919D01*
X83838479Y-64004919D02*
X83799431Y-64043966D01*
X83799431Y-64043966D02*
X83721336Y-64083014D01*
D11*
X81861009Y-111045833D02*
X81861009Y-111379166D01*
X82384819Y-111379166D02*
X81384819Y-111379166D01*
X81384819Y-111379166D02*
X81384819Y-110902976D01*
X81718152Y-110093452D02*
X82384819Y-110093452D01*
X81337200Y-110331547D02*
X82051485Y-110569642D01*
X82051485Y-110569642D02*
X82051485Y-109950595D01*
X100604819Y-84411904D02*
X101414342Y-84411904D01*
X101414342Y-84411904D02*
X101509580Y-84364285D01*
X101509580Y-84364285D02*
X101557200Y-84316666D01*
X101557200Y-84316666D02*
X101604819Y-84221428D01*
X101604819Y-84221428D02*
X101604819Y-84030952D01*
X101604819Y-84030952D02*
X101557200Y-83935714D01*
X101557200Y-83935714D02*
X101509580Y-83888095D01*
X101509580Y-83888095D02*
X101414342Y-83840476D01*
X101414342Y-83840476D02*
X100604819Y-83840476D01*
X101604819Y-83316666D02*
X101604819Y-83126190D01*
X101604819Y-83126190D02*
X101557200Y-83030952D01*
X101557200Y-83030952D02*
X101509580Y-82983333D01*
X101509580Y-82983333D02*
X101366723Y-82888095D01*
X101366723Y-82888095D02*
X101176247Y-82840476D01*
X101176247Y-82840476D02*
X100795295Y-82840476D01*
X100795295Y-82840476D02*
X100700057Y-82888095D01*
X100700057Y-82888095D02*
X100652438Y-82935714D01*
X100652438Y-82935714D02*
X100604819Y-83030952D01*
X100604819Y-83030952D02*
X100604819Y-83221428D01*
X100604819Y-83221428D02*
X100652438Y-83316666D01*
X100652438Y-83316666D02*
X100700057Y-83364285D01*
X100700057Y-83364285D02*
X100795295Y-83411904D01*
X100795295Y-83411904D02*
X101033390Y-83411904D01*
X101033390Y-83411904D02*
X101128628Y-83364285D01*
X101128628Y-83364285D02*
X101176247Y-83316666D01*
X101176247Y-83316666D02*
X101223866Y-83221428D01*
X101223866Y-83221428D02*
X101223866Y-83030952D01*
X101223866Y-83030952D02*
X101176247Y-82935714D01*
X101176247Y-82935714D02*
X101128628Y-82888095D01*
X101128628Y-82888095D02*
X101033390Y-82840476D01*
X123937080Y-121798840D02*
X123984700Y-121846459D01*
X123984700Y-121846459D02*
X124032319Y-121989316D01*
X124032319Y-121989316D02*
X124032319Y-122084554D01*
X124032319Y-122084554D02*
X123984700Y-122227411D01*
X123984700Y-122227411D02*
X123889461Y-122322649D01*
X123889461Y-122322649D02*
X123794223Y-122370268D01*
X123794223Y-122370268D02*
X123603747Y-122417887D01*
X123603747Y-122417887D02*
X123460890Y-122417887D01*
X123460890Y-122417887D02*
X123270414Y-122370268D01*
X123270414Y-122370268D02*
X123175176Y-122322649D01*
X123175176Y-122322649D02*
X123079938Y-122227411D01*
X123079938Y-122227411D02*
X123032319Y-122084554D01*
X123032319Y-122084554D02*
X123032319Y-121989316D01*
X123032319Y-121989316D02*
X123079938Y-121846459D01*
X123079938Y-121846459D02*
X123127557Y-121798840D01*
X123460890Y-121227411D02*
X123413271Y-121322649D01*
X123413271Y-121322649D02*
X123365652Y-121370268D01*
X123365652Y-121370268D02*
X123270414Y-121417887D01*
X123270414Y-121417887D02*
X123222795Y-121417887D01*
X123222795Y-121417887D02*
X123127557Y-121370268D01*
X123127557Y-121370268D02*
X123079938Y-121322649D01*
X123079938Y-121322649D02*
X123032319Y-121227411D01*
X123032319Y-121227411D02*
X123032319Y-121036935D01*
X123032319Y-121036935D02*
X123079938Y-120941697D01*
X123079938Y-120941697D02*
X123127557Y-120894078D01*
X123127557Y-120894078D02*
X123222795Y-120846459D01*
X123222795Y-120846459D02*
X123270414Y-120846459D01*
X123270414Y-120846459D02*
X123365652Y-120894078D01*
X123365652Y-120894078D02*
X123413271Y-120941697D01*
X123413271Y-120941697D02*
X123460890Y-121036935D01*
X123460890Y-121036935D02*
X123460890Y-121227411D01*
X123460890Y-121227411D02*
X123508509Y-121322649D01*
X123508509Y-121322649D02*
X123556128Y-121370268D01*
X123556128Y-121370268D02*
X123651366Y-121417887D01*
X123651366Y-121417887D02*
X123841842Y-121417887D01*
X123841842Y-121417887D02*
X123937080Y-121370268D01*
X123937080Y-121370268D02*
X123984700Y-121322649D01*
X123984700Y-121322649D02*
X124032319Y-121227411D01*
X124032319Y-121227411D02*
X124032319Y-121036935D01*
X124032319Y-121036935D02*
X123984700Y-120941697D01*
X123984700Y-120941697D02*
X123937080Y-120894078D01*
X123937080Y-120894078D02*
X123841842Y-120846459D01*
X123841842Y-120846459D02*
X123651366Y-120846459D01*
X123651366Y-120846459D02*
X123556128Y-120894078D01*
X123556128Y-120894078D02*
X123508509Y-120941697D01*
X123508509Y-120941697D02*
X123460890Y-121036935D01*
X76784819Y-116906666D02*
X76308628Y-117239999D01*
X76784819Y-117478094D02*
X75784819Y-117478094D01*
X75784819Y-117478094D02*
X75784819Y-117097142D01*
X75784819Y-117097142D02*
X75832438Y-117001904D01*
X75832438Y-117001904D02*
X75880057Y-116954285D01*
X75880057Y-116954285D02*
X75975295Y-116906666D01*
X75975295Y-116906666D02*
X76118152Y-116906666D01*
X76118152Y-116906666D02*
X76213390Y-116954285D01*
X76213390Y-116954285D02*
X76261009Y-117001904D01*
X76261009Y-117001904D02*
X76308628Y-117097142D01*
X76308628Y-117097142D02*
X76308628Y-117478094D01*
X75784819Y-116573332D02*
X75784819Y-115906666D01*
X75784819Y-115906666D02*
X76784819Y-116335237D01*
X78611009Y-114045833D02*
X78611009Y-114379166D01*
X79134819Y-114379166D02*
X78134819Y-114379166D01*
X78134819Y-114379166D02*
X78134819Y-113902976D01*
X79134819Y-113474404D02*
X79134819Y-113283928D01*
X79134819Y-113283928D02*
X79087200Y-113188690D01*
X79087200Y-113188690D02*
X79039580Y-113141071D01*
X79039580Y-113141071D02*
X78896723Y-113045833D01*
X78896723Y-113045833D02*
X78706247Y-112998214D01*
X78706247Y-112998214D02*
X78325295Y-112998214D01*
X78325295Y-112998214D02*
X78230057Y-113045833D01*
X78230057Y-113045833D02*
X78182438Y-113093452D01*
X78182438Y-113093452D02*
X78134819Y-113188690D01*
X78134819Y-113188690D02*
X78134819Y-113379166D01*
X78134819Y-113379166D02*
X78182438Y-113474404D01*
X78182438Y-113474404D02*
X78230057Y-113522023D01*
X78230057Y-113522023D02*
X78325295Y-113569642D01*
X78325295Y-113569642D02*
X78563390Y-113569642D01*
X78563390Y-113569642D02*
X78658628Y-113522023D01*
X78658628Y-113522023D02*
X78706247Y-113474404D01*
X78706247Y-113474404D02*
X78753866Y-113379166D01*
X78753866Y-113379166D02*
X78753866Y-113188690D01*
X78753866Y-113188690D02*
X78706247Y-113093452D01*
X78706247Y-113093452D02*
X78658628Y-113045833D01*
X78658628Y-113045833D02*
X78563390Y-112998214D01*
D10*
X108625092Y-77211985D02*
X108351759Y-76821509D01*
X108156521Y-77211985D02*
X108156521Y-76391985D01*
X108156521Y-76391985D02*
X108468902Y-76391985D01*
X108468902Y-76391985D02*
X108546997Y-76431033D01*
X108546997Y-76431033D02*
X108586044Y-76470080D01*
X108586044Y-76470080D02*
X108625092Y-76548176D01*
X108625092Y-76548176D02*
X108625092Y-76665318D01*
X108625092Y-76665318D02*
X108586044Y-76743414D01*
X108586044Y-76743414D02*
X108546997Y-76782461D01*
X108546997Y-76782461D02*
X108468902Y-76821509D01*
X108468902Y-76821509D02*
X108156521Y-76821509D01*
X109327949Y-76665318D02*
X109327949Y-77211985D01*
X109132711Y-76352938D02*
X108937473Y-76938652D01*
X108937473Y-76938652D02*
X109445092Y-76938652D01*
X110108901Y-76391985D02*
X109952711Y-76391985D01*
X109952711Y-76391985D02*
X109874615Y-76431033D01*
X109874615Y-76431033D02*
X109835568Y-76470080D01*
X109835568Y-76470080D02*
X109757473Y-76587223D01*
X109757473Y-76587223D02*
X109718425Y-76743414D01*
X109718425Y-76743414D02*
X109718425Y-77055795D01*
X109718425Y-77055795D02*
X109757473Y-77133890D01*
X109757473Y-77133890D02*
X109796520Y-77172938D01*
X109796520Y-77172938D02*
X109874615Y-77211985D01*
X109874615Y-77211985D02*
X110030806Y-77211985D01*
X110030806Y-77211985D02*
X110108901Y-77172938D01*
X110108901Y-77172938D02*
X110147949Y-77133890D01*
X110147949Y-77133890D02*
X110186996Y-77055795D01*
X110186996Y-77055795D02*
X110186996Y-76860557D01*
X110186996Y-76860557D02*
X110147949Y-76782461D01*
X110147949Y-76782461D02*
X110108901Y-76743414D01*
X110108901Y-76743414D02*
X110030806Y-76704366D01*
X110030806Y-76704366D02*
X109874615Y-76704366D01*
X109874615Y-76704366D02*
X109796520Y-76743414D01*
X109796520Y-76743414D02*
X109757473Y-76782461D01*
X109757473Y-76782461D02*
X109718425Y-76860557D01*
X101509907Y-63263014D02*
X101783240Y-63653490D01*
X101978478Y-63263014D02*
X101978478Y-64083014D01*
X101978478Y-64083014D02*
X101666097Y-64083014D01*
X101666097Y-64083014D02*
X101588002Y-64043966D01*
X101588002Y-64043966D02*
X101548955Y-64004919D01*
X101548955Y-64004919D02*
X101509907Y-63926823D01*
X101509907Y-63926823D02*
X101509907Y-63809681D01*
X101509907Y-63809681D02*
X101548955Y-63731585D01*
X101548955Y-63731585D02*
X101588002Y-63692538D01*
X101588002Y-63692538D02*
X101666097Y-63653490D01*
X101666097Y-63653490D02*
X101978478Y-63653490D01*
X100728955Y-63263014D02*
X101197526Y-63263014D01*
X100963240Y-63263014D02*
X100963240Y-64083014D01*
X100963240Y-64083014D02*
X101041336Y-63965871D01*
X101041336Y-63965871D02*
X101119431Y-63887776D01*
X101119431Y-63887776D02*
X101197526Y-63848728D01*
X100260384Y-63731585D02*
X100338479Y-63770633D01*
X100338479Y-63770633D02*
X100377526Y-63809681D01*
X100377526Y-63809681D02*
X100416574Y-63887776D01*
X100416574Y-63887776D02*
X100416574Y-63926823D01*
X100416574Y-63926823D02*
X100377526Y-64004919D01*
X100377526Y-64004919D02*
X100338479Y-64043966D01*
X100338479Y-64043966D02*
X100260384Y-64083014D01*
X100260384Y-64083014D02*
X100104193Y-64083014D01*
X100104193Y-64083014D02*
X100026098Y-64043966D01*
X100026098Y-64043966D02*
X99987050Y-64004919D01*
X99987050Y-64004919D02*
X99948003Y-63926823D01*
X99948003Y-63926823D02*
X99948003Y-63887776D01*
X99948003Y-63887776D02*
X99987050Y-63809681D01*
X99987050Y-63809681D02*
X100026098Y-63770633D01*
X100026098Y-63770633D02*
X100104193Y-63731585D01*
X100104193Y-63731585D02*
X100260384Y-63731585D01*
X100260384Y-63731585D02*
X100338479Y-63692538D01*
X100338479Y-63692538D02*
X100377526Y-63653490D01*
X100377526Y-63653490D02*
X100416574Y-63575395D01*
X100416574Y-63575395D02*
X100416574Y-63419204D01*
X100416574Y-63419204D02*
X100377526Y-63341109D01*
X100377526Y-63341109D02*
X100338479Y-63302062D01*
X100338479Y-63302062D02*
X100260384Y-63263014D01*
X100260384Y-63263014D02*
X100104193Y-63263014D01*
X100104193Y-63263014D02*
X100026098Y-63302062D01*
X100026098Y-63302062D02*
X99987050Y-63341109D01*
X99987050Y-63341109D02*
X99948003Y-63419204D01*
X99948003Y-63419204D02*
X99948003Y-63575395D01*
X99948003Y-63575395D02*
X99987050Y-63653490D01*
X99987050Y-63653490D02*
X100026098Y-63692538D01*
X100026098Y-63692538D02*
X100104193Y-63731585D01*
D11*
X75904819Y-71065357D02*
X75428628Y-71398690D01*
X75904819Y-71636785D02*
X74904819Y-71636785D01*
X74904819Y-71636785D02*
X74904819Y-71255833D01*
X74904819Y-71255833D02*
X74952438Y-71160595D01*
X74952438Y-71160595D02*
X75000057Y-71112976D01*
X75000057Y-71112976D02*
X75095295Y-71065357D01*
X75095295Y-71065357D02*
X75238152Y-71065357D01*
X75238152Y-71065357D02*
X75333390Y-71112976D01*
X75333390Y-71112976D02*
X75381009Y-71160595D01*
X75381009Y-71160595D02*
X75428628Y-71255833D01*
X75428628Y-71255833D02*
X75428628Y-71636785D01*
X75000057Y-70684404D02*
X74952438Y-70636785D01*
X74952438Y-70636785D02*
X74904819Y-70541547D01*
X74904819Y-70541547D02*
X74904819Y-70303452D01*
X74904819Y-70303452D02*
X74952438Y-70208214D01*
X74952438Y-70208214D02*
X75000057Y-70160595D01*
X75000057Y-70160595D02*
X75095295Y-70112976D01*
X75095295Y-70112976D02*
X75190533Y-70112976D01*
X75190533Y-70112976D02*
X75333390Y-70160595D01*
X75333390Y-70160595D02*
X75904819Y-70732023D01*
X75904819Y-70732023D02*
X75904819Y-70112976D01*
X75238152Y-69255833D02*
X75904819Y-69255833D01*
X74857200Y-69493928D02*
X75571485Y-69732023D01*
X75571485Y-69732023D02*
X75571485Y-69112976D01*
X83304819Y-123011904D02*
X84114342Y-123011904D01*
X84114342Y-123011904D02*
X84209580Y-122964285D01*
X84209580Y-122964285D02*
X84257200Y-122916666D01*
X84257200Y-122916666D02*
X84304819Y-122821428D01*
X84304819Y-122821428D02*
X84304819Y-122630952D01*
X84304819Y-122630952D02*
X84257200Y-122535714D01*
X84257200Y-122535714D02*
X84209580Y-122488095D01*
X84209580Y-122488095D02*
X84114342Y-122440476D01*
X84114342Y-122440476D02*
X83304819Y-122440476D01*
X83304819Y-121488095D02*
X83304819Y-121964285D01*
X83304819Y-121964285D02*
X83781009Y-122011904D01*
X83781009Y-122011904D02*
X83733390Y-121964285D01*
X83733390Y-121964285D02*
X83685771Y-121869047D01*
X83685771Y-121869047D02*
X83685771Y-121630952D01*
X83685771Y-121630952D02*
X83733390Y-121535714D01*
X83733390Y-121535714D02*
X83781009Y-121488095D01*
X83781009Y-121488095D02*
X83876247Y-121440476D01*
X83876247Y-121440476D02*
X84114342Y-121440476D01*
X84114342Y-121440476D02*
X84209580Y-121488095D01*
X84209580Y-121488095D02*
X84257200Y-121535714D01*
X84257200Y-121535714D02*
X84304819Y-121630952D01*
X84304819Y-121630952D02*
X84304819Y-121869047D01*
X84304819Y-121869047D02*
X84257200Y-121964285D01*
X84257200Y-121964285D02*
X84209580Y-122011904D01*
X106874819Y-60180357D02*
X106398628Y-60513690D01*
X106874819Y-60751785D02*
X105874819Y-60751785D01*
X105874819Y-60751785D02*
X105874819Y-60370833D01*
X105874819Y-60370833D02*
X105922438Y-60275595D01*
X105922438Y-60275595D02*
X105970057Y-60227976D01*
X105970057Y-60227976D02*
X106065295Y-60180357D01*
X106065295Y-60180357D02*
X106208152Y-60180357D01*
X106208152Y-60180357D02*
X106303390Y-60227976D01*
X106303390Y-60227976D02*
X106351009Y-60275595D01*
X106351009Y-60275595D02*
X106398628Y-60370833D01*
X106398628Y-60370833D02*
X106398628Y-60751785D01*
X106874819Y-59227976D02*
X106874819Y-59799404D01*
X106874819Y-59513690D02*
X105874819Y-59513690D01*
X105874819Y-59513690D02*
X106017676Y-59608928D01*
X106017676Y-59608928D02*
X106112914Y-59704166D01*
X106112914Y-59704166D02*
X106160533Y-59799404D01*
X105874819Y-58894642D02*
X105874819Y-58275595D01*
X105874819Y-58275595D02*
X106255771Y-58608928D01*
X106255771Y-58608928D02*
X106255771Y-58466071D01*
X106255771Y-58466071D02*
X106303390Y-58370833D01*
X106303390Y-58370833D02*
X106351009Y-58323214D01*
X106351009Y-58323214D02*
X106446247Y-58275595D01*
X106446247Y-58275595D02*
X106684342Y-58275595D01*
X106684342Y-58275595D02*
X106779580Y-58323214D01*
X106779580Y-58323214D02*
X106827200Y-58370833D01*
X106827200Y-58370833D02*
X106874819Y-58466071D01*
X106874819Y-58466071D02*
X106874819Y-58751785D01*
X106874819Y-58751785D02*
X106827200Y-58847023D01*
X106827200Y-58847023D02*
X106779580Y-58894642D01*
X91204819Y-84411904D02*
X92014342Y-84411904D01*
X92014342Y-84411904D02*
X92109580Y-84364285D01*
X92109580Y-84364285D02*
X92157200Y-84316666D01*
X92157200Y-84316666D02*
X92204819Y-84221428D01*
X92204819Y-84221428D02*
X92204819Y-84030952D01*
X92204819Y-84030952D02*
X92157200Y-83935714D01*
X92157200Y-83935714D02*
X92109580Y-83888095D01*
X92109580Y-83888095D02*
X92014342Y-83840476D01*
X92014342Y-83840476D02*
X91204819Y-83840476D01*
X91633390Y-83221428D02*
X91585771Y-83316666D01*
X91585771Y-83316666D02*
X91538152Y-83364285D01*
X91538152Y-83364285D02*
X91442914Y-83411904D01*
X91442914Y-83411904D02*
X91395295Y-83411904D01*
X91395295Y-83411904D02*
X91300057Y-83364285D01*
X91300057Y-83364285D02*
X91252438Y-83316666D01*
X91252438Y-83316666D02*
X91204819Y-83221428D01*
X91204819Y-83221428D02*
X91204819Y-83030952D01*
X91204819Y-83030952D02*
X91252438Y-82935714D01*
X91252438Y-82935714D02*
X91300057Y-82888095D01*
X91300057Y-82888095D02*
X91395295Y-82840476D01*
X91395295Y-82840476D02*
X91442914Y-82840476D01*
X91442914Y-82840476D02*
X91538152Y-82888095D01*
X91538152Y-82888095D02*
X91585771Y-82935714D01*
X91585771Y-82935714D02*
X91633390Y-83030952D01*
X91633390Y-83030952D02*
X91633390Y-83221428D01*
X91633390Y-83221428D02*
X91681009Y-83316666D01*
X91681009Y-83316666D02*
X91728628Y-83364285D01*
X91728628Y-83364285D02*
X91823866Y-83411904D01*
X91823866Y-83411904D02*
X92014342Y-83411904D01*
X92014342Y-83411904D02*
X92109580Y-83364285D01*
X92109580Y-83364285D02*
X92157200Y-83316666D01*
X92157200Y-83316666D02*
X92204819Y-83221428D01*
X92204819Y-83221428D02*
X92204819Y-83030952D01*
X92204819Y-83030952D02*
X92157200Y-82935714D01*
X92157200Y-82935714D02*
X92109580Y-82888095D01*
X92109580Y-82888095D02*
X92014342Y-82840476D01*
X92014342Y-82840476D02*
X91823866Y-82840476D01*
X91823866Y-82840476D02*
X91728628Y-82888095D01*
X91728628Y-82888095D02*
X91681009Y-82935714D01*
X91681009Y-82935714D02*
X91633390Y-83030952D01*
D10*
X103409907Y-74763014D02*
X103683240Y-75153490D01*
X103878478Y-74763014D02*
X103878478Y-75583014D01*
X103878478Y-75583014D02*
X103566097Y-75583014D01*
X103566097Y-75583014D02*
X103488002Y-75543966D01*
X103488002Y-75543966D02*
X103448955Y-75504919D01*
X103448955Y-75504919D02*
X103409907Y-75426823D01*
X103409907Y-75426823D02*
X103409907Y-75309681D01*
X103409907Y-75309681D02*
X103448955Y-75231585D01*
X103448955Y-75231585D02*
X103488002Y-75192538D01*
X103488002Y-75192538D02*
X103566097Y-75153490D01*
X103566097Y-75153490D02*
X103878478Y-75153490D01*
X103097526Y-75504919D02*
X103058478Y-75543966D01*
X103058478Y-75543966D02*
X102980383Y-75583014D01*
X102980383Y-75583014D02*
X102785145Y-75583014D01*
X102785145Y-75583014D02*
X102707050Y-75543966D01*
X102707050Y-75543966D02*
X102668002Y-75504919D01*
X102668002Y-75504919D02*
X102628955Y-75426823D01*
X102628955Y-75426823D02*
X102628955Y-75348728D01*
X102628955Y-75348728D02*
X102668002Y-75231585D01*
X102668002Y-75231585D02*
X103136574Y-74763014D01*
X103136574Y-74763014D02*
X102628955Y-74763014D01*
X101887050Y-75583014D02*
X102277526Y-75583014D01*
X102277526Y-75583014D02*
X102316574Y-75192538D01*
X102316574Y-75192538D02*
X102277526Y-75231585D01*
X102277526Y-75231585D02*
X102199431Y-75270633D01*
X102199431Y-75270633D02*
X102004193Y-75270633D01*
X102004193Y-75270633D02*
X101926098Y-75231585D01*
X101926098Y-75231585D02*
X101887050Y-75192538D01*
X101887050Y-75192538D02*
X101848003Y-75114442D01*
X101848003Y-75114442D02*
X101848003Y-74919204D01*
X101848003Y-74919204D02*
X101887050Y-74841109D01*
X101887050Y-74841109D02*
X101926098Y-74802062D01*
X101926098Y-74802062D02*
X102004193Y-74763014D01*
X102004193Y-74763014D02*
X102199431Y-74763014D01*
X102199431Y-74763014D02*
X102277526Y-74802062D01*
X102277526Y-74802062D02*
X102316574Y-74841109D01*
D12*
X123246000Y-45196768D02*
X122992000Y-45196768D01*
X122992000Y-45595911D02*
X122992000Y-44833911D01*
X122992000Y-44833911D02*
X123354857Y-44833911D01*
X123608857Y-44906483D02*
X123645143Y-44870197D01*
X123645143Y-44870197D02*
X123717715Y-44833911D01*
X123717715Y-44833911D02*
X123899143Y-44833911D01*
X123899143Y-44833911D02*
X123971715Y-44870197D01*
X123971715Y-44870197D02*
X124008000Y-44906483D01*
X124008000Y-44906483D02*
X124044286Y-44979054D01*
X124044286Y-44979054D02*
X124044286Y-45051626D01*
X124044286Y-45051626D02*
X124008000Y-45160483D01*
X124008000Y-45160483D02*
X123572572Y-45595911D01*
X123572572Y-45595911D02*
X124044286Y-45595911D01*
D11*
X80784819Y-116906666D02*
X80308628Y-117239999D01*
X80784819Y-117478094D02*
X79784819Y-117478094D01*
X79784819Y-117478094D02*
X79784819Y-117097142D01*
X79784819Y-117097142D02*
X79832438Y-117001904D01*
X79832438Y-117001904D02*
X79880057Y-116954285D01*
X79880057Y-116954285D02*
X79975295Y-116906666D01*
X79975295Y-116906666D02*
X80118152Y-116906666D01*
X80118152Y-116906666D02*
X80213390Y-116954285D01*
X80213390Y-116954285D02*
X80261009Y-117001904D01*
X80261009Y-117001904D02*
X80308628Y-117097142D01*
X80308628Y-117097142D02*
X80308628Y-117478094D01*
X79784819Y-116001904D02*
X79784819Y-116478094D01*
X79784819Y-116478094D02*
X80261009Y-116525713D01*
X80261009Y-116525713D02*
X80213390Y-116478094D01*
X80213390Y-116478094D02*
X80165771Y-116382856D01*
X80165771Y-116382856D02*
X80165771Y-116144761D01*
X80165771Y-116144761D02*
X80213390Y-116049523D01*
X80213390Y-116049523D02*
X80261009Y-116001904D01*
X80261009Y-116001904D02*
X80356247Y-115954285D01*
X80356247Y-115954285D02*
X80594342Y-115954285D01*
X80594342Y-115954285D02*
X80689580Y-116001904D01*
X80689580Y-116001904D02*
X80737200Y-116049523D01*
X80737200Y-116049523D02*
X80784819Y-116144761D01*
X80784819Y-116144761D02*
X80784819Y-116382856D01*
X80784819Y-116382856D02*
X80737200Y-116478094D01*
X80737200Y-116478094D02*
X80689580Y-116525713D01*
D10*
X83990092Y-134236985D02*
X83716759Y-133846509D01*
X83521521Y-134236985D02*
X83521521Y-133416985D01*
X83521521Y-133416985D02*
X83833902Y-133416985D01*
X83833902Y-133416985D02*
X83911997Y-133456033D01*
X83911997Y-133456033D02*
X83951044Y-133495080D01*
X83951044Y-133495080D02*
X83990092Y-133573176D01*
X83990092Y-133573176D02*
X83990092Y-133690318D01*
X83990092Y-133690318D02*
X83951044Y-133768414D01*
X83951044Y-133768414D02*
X83911997Y-133807461D01*
X83911997Y-133807461D02*
X83833902Y-133846509D01*
X83833902Y-133846509D02*
X83521521Y-133846509D01*
X84263425Y-133416985D02*
X84771044Y-133416985D01*
X84771044Y-133416985D02*
X84497711Y-133729366D01*
X84497711Y-133729366D02*
X84614854Y-133729366D01*
X84614854Y-133729366D02*
X84692949Y-133768414D01*
X84692949Y-133768414D02*
X84731997Y-133807461D01*
X84731997Y-133807461D02*
X84771044Y-133885557D01*
X84771044Y-133885557D02*
X84771044Y-134080795D01*
X84771044Y-134080795D02*
X84731997Y-134158890D01*
X84731997Y-134158890D02*
X84692949Y-134197938D01*
X84692949Y-134197938D02*
X84614854Y-134236985D01*
X84614854Y-134236985D02*
X84380568Y-134236985D01*
X84380568Y-134236985D02*
X84302473Y-134197938D01*
X84302473Y-134197938D02*
X84263425Y-134158890D01*
X120640092Y-77186985D02*
X120366759Y-76796509D01*
X120171521Y-77186985D02*
X120171521Y-76366985D01*
X120171521Y-76366985D02*
X120483902Y-76366985D01*
X120483902Y-76366985D02*
X120561997Y-76406033D01*
X120561997Y-76406033D02*
X120601044Y-76445080D01*
X120601044Y-76445080D02*
X120640092Y-76523176D01*
X120640092Y-76523176D02*
X120640092Y-76640318D01*
X120640092Y-76640318D02*
X120601044Y-76718414D01*
X120601044Y-76718414D02*
X120561997Y-76757461D01*
X120561997Y-76757461D02*
X120483902Y-76796509D01*
X120483902Y-76796509D02*
X120171521Y-76796509D01*
X121342949Y-76640318D02*
X121342949Y-77186985D01*
X121147711Y-76327938D02*
X120952473Y-76913652D01*
X120952473Y-76913652D02*
X121460092Y-76913652D01*
X121928663Y-76366985D02*
X122006758Y-76366985D01*
X122006758Y-76366985D02*
X122084854Y-76406033D01*
X122084854Y-76406033D02*
X122123901Y-76445080D01*
X122123901Y-76445080D02*
X122162949Y-76523176D01*
X122162949Y-76523176D02*
X122201996Y-76679366D01*
X122201996Y-76679366D02*
X122201996Y-76874604D01*
X122201996Y-76874604D02*
X122162949Y-77030795D01*
X122162949Y-77030795D02*
X122123901Y-77108890D01*
X122123901Y-77108890D02*
X122084854Y-77147938D01*
X122084854Y-77147938D02*
X122006758Y-77186985D01*
X122006758Y-77186985D02*
X121928663Y-77186985D01*
X121928663Y-77186985D02*
X121850568Y-77147938D01*
X121850568Y-77147938D02*
X121811520Y-77108890D01*
X121811520Y-77108890D02*
X121772473Y-77030795D01*
X121772473Y-77030795D02*
X121733425Y-76874604D01*
X121733425Y-76874604D02*
X121733425Y-76679366D01*
X121733425Y-76679366D02*
X121772473Y-76523176D01*
X121772473Y-76523176D02*
X121811520Y-76445080D01*
X121811520Y-76445080D02*
X121850568Y-76406033D01*
X121850568Y-76406033D02*
X121928663Y-76366985D01*
X121872772Y-124755029D02*
X121987058Y-124793124D01*
X121987058Y-124793124D02*
X122177534Y-124793124D01*
X122177534Y-124793124D02*
X122253725Y-124755029D01*
X122253725Y-124755029D02*
X122291820Y-124716933D01*
X122291820Y-124716933D02*
X122329915Y-124640743D01*
X122329915Y-124640743D02*
X122329915Y-124564552D01*
X122329915Y-124564552D02*
X122291820Y-124488362D01*
X122291820Y-124488362D02*
X122253725Y-124450266D01*
X122253725Y-124450266D02*
X122177534Y-124412171D01*
X122177534Y-124412171D02*
X122025153Y-124374076D01*
X122025153Y-124374076D02*
X121948962Y-124335980D01*
X121948962Y-124335980D02*
X121910867Y-124297885D01*
X121910867Y-124297885D02*
X121872772Y-124221695D01*
X121872772Y-124221695D02*
X121872772Y-124145504D01*
X121872772Y-124145504D02*
X121910867Y-124069313D01*
X121910867Y-124069313D02*
X121948962Y-124031218D01*
X121948962Y-124031218D02*
X122025153Y-123993123D01*
X122025153Y-123993123D02*
X122215629Y-123993123D01*
X122215629Y-123993123D02*
X122329915Y-124031218D01*
X123091821Y-124793124D02*
X122634678Y-124793124D01*
X122863249Y-124793124D02*
X122863249Y-123993123D01*
X122863249Y-123993123D02*
X122787059Y-124107409D01*
X122787059Y-124107409D02*
X122710868Y-124183599D01*
X122710868Y-124183599D02*
X122634678Y-124221695D01*
D11*
X84374819Y-71105357D02*
X83898628Y-71438690D01*
X84374819Y-71676785D02*
X83374819Y-71676785D01*
X83374819Y-71676785D02*
X83374819Y-71295833D01*
X83374819Y-71295833D02*
X83422438Y-71200595D01*
X83422438Y-71200595D02*
X83470057Y-71152976D01*
X83470057Y-71152976D02*
X83565295Y-71105357D01*
X83565295Y-71105357D02*
X83708152Y-71105357D01*
X83708152Y-71105357D02*
X83803390Y-71152976D01*
X83803390Y-71152976D02*
X83851009Y-71200595D01*
X83851009Y-71200595D02*
X83898628Y-71295833D01*
X83898628Y-71295833D02*
X83898628Y-71676785D01*
X83470057Y-70724404D02*
X83422438Y-70676785D01*
X83422438Y-70676785D02*
X83374819Y-70581547D01*
X83374819Y-70581547D02*
X83374819Y-70343452D01*
X83374819Y-70343452D02*
X83422438Y-70248214D01*
X83422438Y-70248214D02*
X83470057Y-70200595D01*
X83470057Y-70200595D02*
X83565295Y-70152976D01*
X83565295Y-70152976D02*
X83660533Y-70152976D01*
X83660533Y-70152976D02*
X83803390Y-70200595D01*
X83803390Y-70200595D02*
X84374819Y-70772023D01*
X84374819Y-70772023D02*
X84374819Y-70152976D01*
X83374819Y-69819642D02*
X83374819Y-69200595D01*
X83374819Y-69200595D02*
X83755771Y-69533928D01*
X83755771Y-69533928D02*
X83755771Y-69391071D01*
X83755771Y-69391071D02*
X83803390Y-69295833D01*
X83803390Y-69295833D02*
X83851009Y-69248214D01*
X83851009Y-69248214D02*
X83946247Y-69200595D01*
X83946247Y-69200595D02*
X84184342Y-69200595D01*
X84184342Y-69200595D02*
X84279580Y-69248214D01*
X84279580Y-69248214D02*
X84327200Y-69295833D01*
X84327200Y-69295833D02*
X84374819Y-69391071D01*
X84374819Y-69391071D02*
X84374819Y-69676785D01*
X84374819Y-69676785D02*
X84327200Y-69772023D01*
X84327200Y-69772023D02*
X84279580Y-69819642D01*
X107437080Y-114936666D02*
X107484700Y-114984285D01*
X107484700Y-114984285D02*
X107532319Y-115127142D01*
X107532319Y-115127142D02*
X107532319Y-115222380D01*
X107532319Y-115222380D02*
X107484700Y-115365237D01*
X107484700Y-115365237D02*
X107389461Y-115460475D01*
X107389461Y-115460475D02*
X107294223Y-115508094D01*
X107294223Y-115508094D02*
X107103747Y-115555713D01*
X107103747Y-115555713D02*
X106960890Y-115555713D01*
X106960890Y-115555713D02*
X106770414Y-115508094D01*
X106770414Y-115508094D02*
X106675176Y-115460475D01*
X106675176Y-115460475D02*
X106579938Y-115365237D01*
X106579938Y-115365237D02*
X106532319Y-115222380D01*
X106532319Y-115222380D02*
X106532319Y-115127142D01*
X106532319Y-115127142D02*
X106579938Y-114984285D01*
X106579938Y-114984285D02*
X106627557Y-114936666D01*
X106532319Y-114031904D02*
X106532319Y-114508094D01*
X106532319Y-114508094D02*
X107008509Y-114555713D01*
X107008509Y-114555713D02*
X106960890Y-114508094D01*
X106960890Y-114508094D02*
X106913271Y-114412856D01*
X106913271Y-114412856D02*
X106913271Y-114174761D01*
X106913271Y-114174761D02*
X106960890Y-114079523D01*
X106960890Y-114079523D02*
X107008509Y-114031904D01*
X107008509Y-114031904D02*
X107103747Y-113984285D01*
X107103747Y-113984285D02*
X107341842Y-113984285D01*
X107341842Y-113984285D02*
X107437080Y-114031904D01*
X107437080Y-114031904D02*
X107484700Y-114079523D01*
X107484700Y-114079523D02*
X107532319Y-114174761D01*
X107532319Y-114174761D02*
X107532319Y-114412856D01*
X107532319Y-114412856D02*
X107484700Y-114508094D01*
X107484700Y-114508094D02*
X107437080Y-114555713D01*
D10*
X93140092Y-87386985D02*
X92866759Y-86996509D01*
X92671521Y-87386985D02*
X92671521Y-86566985D01*
X92671521Y-86566985D02*
X92983902Y-86566985D01*
X92983902Y-86566985D02*
X93061997Y-86606033D01*
X93061997Y-86606033D02*
X93101044Y-86645080D01*
X93101044Y-86645080D02*
X93140092Y-86723176D01*
X93140092Y-86723176D02*
X93140092Y-86840318D01*
X93140092Y-86840318D02*
X93101044Y-86918414D01*
X93101044Y-86918414D02*
X93061997Y-86957461D01*
X93061997Y-86957461D02*
X92983902Y-86996509D01*
X92983902Y-86996509D02*
X92671521Y-86996509D01*
X93413425Y-86566985D02*
X93921044Y-86566985D01*
X93921044Y-86566985D02*
X93647711Y-86879366D01*
X93647711Y-86879366D02*
X93764854Y-86879366D01*
X93764854Y-86879366D02*
X93842949Y-86918414D01*
X93842949Y-86918414D02*
X93881997Y-86957461D01*
X93881997Y-86957461D02*
X93921044Y-87035557D01*
X93921044Y-87035557D02*
X93921044Y-87230795D01*
X93921044Y-87230795D02*
X93881997Y-87308890D01*
X93881997Y-87308890D02*
X93842949Y-87347938D01*
X93842949Y-87347938D02*
X93764854Y-87386985D01*
X93764854Y-87386985D02*
X93530568Y-87386985D01*
X93530568Y-87386985D02*
X93452473Y-87347938D01*
X93452473Y-87347938D02*
X93413425Y-87308890D01*
X94662949Y-86566985D02*
X94272473Y-86566985D01*
X94272473Y-86566985D02*
X94233425Y-86957461D01*
X94233425Y-86957461D02*
X94272473Y-86918414D01*
X94272473Y-86918414D02*
X94350568Y-86879366D01*
X94350568Y-86879366D02*
X94545806Y-86879366D01*
X94545806Y-86879366D02*
X94623901Y-86918414D01*
X94623901Y-86918414D02*
X94662949Y-86957461D01*
X94662949Y-86957461D02*
X94701996Y-87035557D01*
X94701996Y-87035557D02*
X94701996Y-87230795D01*
X94701996Y-87230795D02*
X94662949Y-87308890D01*
X94662949Y-87308890D02*
X94623901Y-87347938D01*
X94623901Y-87347938D02*
X94545806Y-87386985D01*
X94545806Y-87386985D02*
X94350568Y-87386985D01*
X94350568Y-87386985D02*
X94272473Y-87347938D01*
X94272473Y-87347938D02*
X94233425Y-87308890D01*
X125620508Y-62605237D02*
X124800508Y-62605237D01*
X124800508Y-62605237D02*
X124800508Y-62409999D01*
X124800508Y-62409999D02*
X124839556Y-62292856D01*
X124839556Y-62292856D02*
X124917651Y-62214761D01*
X124917651Y-62214761D02*
X124995746Y-62175714D01*
X124995746Y-62175714D02*
X125151937Y-62136666D01*
X125151937Y-62136666D02*
X125269080Y-62136666D01*
X125269080Y-62136666D02*
X125425270Y-62175714D01*
X125425270Y-62175714D02*
X125503365Y-62214761D01*
X125503365Y-62214761D02*
X125581461Y-62292856D01*
X125581461Y-62292856D02*
X125620508Y-62409999D01*
X125620508Y-62409999D02*
X125620508Y-62605237D01*
X125073841Y-61433809D02*
X125620508Y-61433809D01*
X124761461Y-61629047D02*
X125347175Y-61824285D01*
X125347175Y-61824285D02*
X125347175Y-61316666D01*
X109659907Y-63263014D02*
X109933240Y-63653490D01*
X110128478Y-63263014D02*
X110128478Y-64083014D01*
X110128478Y-64083014D02*
X109816097Y-64083014D01*
X109816097Y-64083014D02*
X109738002Y-64043966D01*
X109738002Y-64043966D02*
X109698955Y-64004919D01*
X109698955Y-64004919D02*
X109659907Y-63926823D01*
X109659907Y-63926823D02*
X109659907Y-63809681D01*
X109659907Y-63809681D02*
X109698955Y-63731585D01*
X109698955Y-63731585D02*
X109738002Y-63692538D01*
X109738002Y-63692538D02*
X109816097Y-63653490D01*
X109816097Y-63653490D02*
X110128478Y-63653490D01*
X108878955Y-63263014D02*
X109347526Y-63263014D01*
X109113240Y-63263014D02*
X109113240Y-64083014D01*
X109113240Y-64083014D02*
X109191336Y-63965871D01*
X109191336Y-63965871D02*
X109269431Y-63887776D01*
X109269431Y-63887776D02*
X109347526Y-63848728D01*
X108605622Y-64083014D02*
X108058955Y-64083014D01*
X108058955Y-64083014D02*
X108410384Y-63263014D01*
X97059907Y-88913014D02*
X97333240Y-89303490D01*
X97528478Y-88913014D02*
X97528478Y-89733014D01*
X97528478Y-89733014D02*
X97216097Y-89733014D01*
X97216097Y-89733014D02*
X97138002Y-89693966D01*
X97138002Y-89693966D02*
X97098955Y-89654919D01*
X97098955Y-89654919D02*
X97059907Y-89576823D01*
X97059907Y-89576823D02*
X97059907Y-89459681D01*
X97059907Y-89459681D02*
X97098955Y-89381585D01*
X97098955Y-89381585D02*
X97138002Y-89342538D01*
X97138002Y-89342538D02*
X97216097Y-89303490D01*
X97216097Y-89303490D02*
X97528478Y-89303490D01*
X96786574Y-89733014D02*
X96278955Y-89733014D01*
X96278955Y-89733014D02*
X96552288Y-89420633D01*
X96552288Y-89420633D02*
X96435145Y-89420633D01*
X96435145Y-89420633D02*
X96357050Y-89381585D01*
X96357050Y-89381585D02*
X96318002Y-89342538D01*
X96318002Y-89342538D02*
X96278955Y-89264442D01*
X96278955Y-89264442D02*
X96278955Y-89069204D01*
X96278955Y-89069204D02*
X96318002Y-88991109D01*
X96318002Y-88991109D02*
X96357050Y-88952062D01*
X96357050Y-88952062D02*
X96435145Y-88913014D01*
X96435145Y-88913014D02*
X96669431Y-88913014D01*
X96669431Y-88913014D02*
X96747526Y-88952062D01*
X96747526Y-88952062D02*
X96786574Y-88991109D01*
X95498003Y-88913014D02*
X95966574Y-88913014D01*
X95732288Y-88913014D02*
X95732288Y-89733014D01*
X95732288Y-89733014D02*
X95810384Y-89615871D01*
X95810384Y-89615871D02*
X95888479Y-89537776D01*
X95888479Y-89537776D02*
X95966574Y-89498728D01*
X115870508Y-57355237D02*
X115050508Y-57355237D01*
X115050508Y-57355237D02*
X115050508Y-57159999D01*
X115050508Y-57159999D02*
X115089556Y-57042856D01*
X115089556Y-57042856D02*
X115167651Y-56964761D01*
X115167651Y-56964761D02*
X115245746Y-56925714D01*
X115245746Y-56925714D02*
X115401937Y-56886666D01*
X115401937Y-56886666D02*
X115519080Y-56886666D01*
X115519080Y-56886666D02*
X115675270Y-56925714D01*
X115675270Y-56925714D02*
X115753365Y-56964761D01*
X115753365Y-56964761D02*
X115831461Y-57042856D01*
X115831461Y-57042856D02*
X115870508Y-57159999D01*
X115870508Y-57159999D02*
X115870508Y-57355237D01*
X115870508Y-56105714D02*
X115870508Y-56574285D01*
X115870508Y-56339999D02*
X115050508Y-56339999D01*
X115050508Y-56339999D02*
X115167651Y-56418095D01*
X115167651Y-56418095D02*
X115245746Y-56496190D01*
X115245746Y-56496190D02*
X115284794Y-56574285D01*
D13*
G04 #@! TO.C,D2*
X116500000Y-59750000D02*
X116500000Y-63650000D01*
D10*
X117150000Y-61650000D02*
X117850000Y-61650000D01*
X117150000Y-62350000D02*
X117850000Y-62350000D01*
X117500000Y-61450000D02*
X117500000Y-61650000D01*
X117500000Y-61650000D02*
X117150000Y-62350000D01*
X117500000Y-61650000D02*
X117850000Y-62350000D01*
X117500000Y-62350000D02*
X117500000Y-62650000D01*
D13*
X118500000Y-59750000D02*
X116500000Y-59750000D01*
X118500000Y-59750000D02*
X118500000Y-63650000D01*
G04 #@! TO.C,D7*
X158000000Y-121440000D02*
X157350000Y-121440000D01*
X158000000Y-121440000D02*
X158650000Y-121440000D01*
X158000000Y-124560000D02*
X157350000Y-124560000D01*
X158000000Y-124560000D02*
X158650000Y-124560000D01*
X156837500Y-121490000D02*
X156597500Y-121160000D01*
X157077500Y-121160000D01*
X156837500Y-121490000D01*
G36*
X156837500Y-121490000D02*
G01*
X156597500Y-121160000D01*
X157077500Y-121160000D01*
X156837500Y-121490000D01*
G37*
D14*
G04 #@! TO.C,M1*
X113250003Y-119115406D02*
X113250001Y-83220585D01*
X113462507Y-119327909D02*
X113250003Y-119115406D01*
X113591689Y-82878897D02*
X113250001Y-83220585D01*
X115000005Y-119327909D02*
X113462507Y-119327909D01*
X115707250Y-120035155D02*
X115000005Y-119327909D01*
X159002744Y-82878897D02*
X113591689Y-82878897D01*
X159064598Y-120035155D02*
X115707250Y-120035155D01*
X159578613Y-83454766D02*
X159002744Y-82878897D01*
X159578615Y-119521138D02*
X159064598Y-120035155D01*
X159578615Y-119521138D02*
X159578613Y-83454766D01*
D13*
G04 #@! TO.C,R10*
X80120000Y-116893641D02*
X80120000Y-116586359D01*
X80880000Y-116893641D02*
X80880000Y-116586359D01*
G04 #@! TO.C,U10*
X114040000Y-73450000D02*
X114040000Y-71500000D01*
X114040000Y-73450000D02*
X114040000Y-75400000D01*
X119160000Y-73450000D02*
X119160000Y-71500000D01*
X119160000Y-73450000D02*
X119160000Y-75400000D01*
X114135000Y-76150000D02*
X113805000Y-76390000D01*
X113805000Y-75910000D01*
X114135000Y-76150000D01*
G36*
X114135000Y-76150000D02*
G01*
X113805000Y-76390000D01*
X113805000Y-75910000D01*
X114135000Y-76150000D01*
G37*
G04 #@! TO.C,C3*
X105990000Y-111390580D02*
X105990000Y-111109420D01*
X107010000Y-111390580D02*
X107010000Y-111109420D01*
G04 #@! TO.C,R22*
X93340000Y-71189564D02*
X93340000Y-69735436D01*
X95160000Y-71189564D02*
X95160000Y-69735436D01*
G04 #@! TO.C,F10*
X74740000Y-113549721D02*
X74740000Y-113875279D01*
X75760000Y-113549721D02*
X75760000Y-113875279D01*
D15*
G04 #@! TO.C,R38*
X124050000Y-78324995D02*
X123650000Y-78324985D01*
X124051056Y-77579160D02*
X123651057Y-77579149D01*
G04 #@! TO.C,R29*
X84800000Y-88524995D02*
X84400000Y-88524985D01*
X84801056Y-87779160D02*
X84401057Y-87779149D01*
D13*
G04 #@! TO.C,R11*
X78120000Y-116893641D02*
X78120000Y-116586359D01*
X78880000Y-116893641D02*
X78880000Y-116586359D01*
G04 #@! TO.C,C10*
X83390000Y-124877836D02*
X83390000Y-124662164D01*
X84110000Y-124877836D02*
X84110000Y-124662164D01*
G04 #@! TO.C,R15*
X90840000Y-60264564D02*
X90840000Y-58810436D01*
X92660000Y-60264564D02*
X92660000Y-58810436D01*
D15*
G04 #@! TO.C,R39*
X114898944Y-78320840D02*
X115298943Y-78320851D01*
X114900000Y-77575005D02*
X115300000Y-77575015D01*
D13*
G04 #@! TO.C,R8*
X75120000Y-116893641D02*
X75120000Y-116586359D01*
X75880000Y-116893641D02*
X75880000Y-116586359D01*
D14*
G04 #@! TO.C,M5*
X98437503Y-135487508D02*
X98437503Y-141412843D01*
X99087509Y-134837502D02*
X98437503Y-135487508D01*
X99612499Y-134837502D02*
X99087509Y-134837502D01*
X100212500Y-134237501D02*
X99612499Y-134837502D01*
X107087498Y-139962506D02*
X104462497Y-139962506D01*
X137862501Y-134237501D02*
X100212500Y-134237501D01*
X137862501Y-134237501D02*
X137862501Y-141487321D01*
X137862501Y-141487321D02*
X98437503Y-141412843D01*
D13*
G04 #@! TO.C,F7*
X80990000Y-113549721D02*
X80990000Y-113875279D01*
X82010000Y-113549721D02*
X82010000Y-113875279D01*
G04 #@! TO.C,U11*
X120040000Y-73450000D02*
X120040000Y-71500000D01*
X120040000Y-73450000D02*
X120040000Y-75400000D01*
X125160000Y-73450000D02*
X125160000Y-71500000D01*
X125160000Y-73450000D02*
X125160000Y-75400000D01*
X120135000Y-76150000D02*
X119805000Y-76390000D01*
X119805000Y-75910000D01*
X120135000Y-76150000D01*
G36*
X120135000Y-76150000D02*
G01*
X119805000Y-76390000D01*
X119805000Y-75910000D01*
X120135000Y-76150000D01*
G37*
D14*
G04 #@! TO.C,M2*
X140450001Y-126149998D02*
X140450001Y-141674999D01*
X149500933Y-126149998D02*
X140450001Y-126149998D01*
X150600001Y-127249067D02*
X149500933Y-126149998D01*
X150600001Y-127249067D02*
X150600001Y-131623670D01*
X151356250Y-132379920D02*
X150600001Y-131623670D01*
X156504922Y-132379920D02*
X151356250Y-132379920D01*
X156625000Y-132499998D02*
X156504922Y-132379920D01*
X156625000Y-132499998D02*
X156625000Y-141674999D01*
X156625000Y-141674999D02*
X140450001Y-141674999D01*
D13*
G04 #@! TO.C,D3*
X122250000Y-59000000D02*
X122250000Y-55100000D01*
X122250000Y-59000000D02*
X124250000Y-59000000D01*
D10*
X123250000Y-56400000D02*
X123250000Y-56100000D01*
X123250000Y-57100000D02*
X122900000Y-56400000D01*
X123250000Y-57100000D02*
X123600000Y-56400000D01*
X123250000Y-57300000D02*
X123250000Y-57100000D01*
X123600000Y-56400000D02*
X122900000Y-56400000D01*
X123600000Y-57100000D02*
X122900000Y-57100000D01*
D13*
X124250000Y-59000000D02*
X124250000Y-55100000D01*
D14*
G04 #@! TO.C,M6*
X128662502Y-68356526D02*
X128662502Y-81406532D01*
X129162502Y-81906532D02*
X128662502Y-81406532D01*
X129587500Y-67431529D02*
X128662502Y-68356526D01*
X157912500Y-67431529D02*
X129582502Y-67431529D01*
X159062495Y-81906535D02*
X129162502Y-81906532D01*
X159462500Y-68981529D02*
X157912500Y-67431529D01*
X159462500Y-68981529D02*
X159462500Y-81506530D01*
X159462500Y-81506530D02*
X159062495Y-81906535D01*
D15*
G04 #@! TO.C,R19*
X93000000Y-62874995D02*
X92600000Y-62874985D01*
X93001056Y-62129160D02*
X92601057Y-62129149D01*
D13*
G04 #@! TO.C,C9*
X147390000Y-123357836D02*
X147390000Y-123142164D01*
X148110000Y-123357836D02*
X148110000Y-123142164D01*
G04 #@! TO.C,R21*
X101090000Y-71264564D02*
X101090000Y-69810436D01*
X102910000Y-71264564D02*
X102910000Y-69810436D01*
D15*
G04 #@! TO.C,R37*
X118300000Y-78324995D02*
X117900000Y-78324985D01*
X118301056Y-77579160D02*
X117901057Y-77579149D01*
D13*
G04 #@! TO.C,F8*
X78740000Y-113549721D02*
X78740000Y-113875279D01*
X79760000Y-113549721D02*
X79760000Y-113875279D01*
G04 #@! TO.C,U7*
X86590000Y-83650000D02*
X86590000Y-81700000D01*
X86590000Y-83650000D02*
X86590000Y-85600000D01*
X91710000Y-83650000D02*
X91710000Y-81700000D01*
X91710000Y-83650000D02*
X91710000Y-85600000D01*
X86685000Y-86350000D02*
X86355000Y-86590000D01*
X86355000Y-86110000D01*
X86685000Y-86350000D01*
G36*
X86685000Y-86350000D02*
G01*
X86355000Y-86590000D01*
X86355000Y-86110000D01*
X86685000Y-86350000D01*
G37*
D15*
G04 #@! TO.C,R27*
X86750000Y-74374995D02*
X86350000Y-74374985D01*
X86751056Y-73629160D02*
X86351057Y-73629149D01*
D13*
G04 #@! TO.C,R1*
X87977500Y-114162258D02*
X87977500Y-113687742D01*
X89022500Y-114162258D02*
X89022500Y-113687742D01*
D14*
G04 #@! TO.C,C1*
X125650014Y-126540001D02*
X126399999Y-126540001D01*
D13*
G04 #@! TO.C,C2*
X87990000Y-110115580D02*
X87990000Y-109834420D01*
X89010000Y-110115580D02*
X89010000Y-109834420D01*
G04 #@! TO.C,J3*
X82150954Y-138875000D02*
X82150954Y-140795000D01*
X82150954Y-144510000D02*
X82150954Y-142805000D01*
X91310954Y-140795000D02*
X91310954Y-138875000D01*
X91310954Y-142805000D02*
X91310954Y-144510000D01*
X91310954Y-144510000D02*
X82150954Y-144510000D01*
G04 #@! TO.C,R9*
X82120000Y-116893641D02*
X82120000Y-116586359D01*
X82880000Y-116893641D02*
X82880000Y-116586359D01*
D14*
G04 #@! TO.C,M3*
X132478415Y-47500003D02*
X132803415Y-47175003D01*
X132478415Y-66310014D02*
X132478415Y-47500003D01*
X132693403Y-66525002D02*
X132478415Y-66310014D01*
X140178417Y-47175003D02*
X132803415Y-47175003D01*
X140403415Y-47400001D02*
X140178417Y-47175003D01*
X140403415Y-66525002D02*
X132693403Y-66525002D01*
X140403415Y-66525002D02*
X140403415Y-47400001D01*
D13*
G04 #@! TO.C,F3*
X82240000Y-110549721D02*
X82240000Y-110875279D01*
X83260000Y-110549721D02*
X83260000Y-110875279D01*
D15*
G04 #@! TO.C,R36*
X99398944Y-88520840D02*
X99798943Y-88520851D01*
X99400000Y-87775005D02*
X99800000Y-87775015D01*
G04 #@! TO.C,R33*
X81648944Y-88520840D02*
X82048943Y-88520851D01*
X81650000Y-87775005D02*
X82050000Y-87775015D01*
G04 #@! TO.C,R34*
X87398944Y-88520840D02*
X87798943Y-88520851D01*
X87400000Y-87775005D02*
X87800000Y-87775015D01*
D13*
G04 #@! TO.C,J4*
X90840000Y-106390000D02*
X90840000Y-103890000D01*
X90840000Y-114690000D02*
X90840000Y-108910000D01*
X90840000Y-118610000D02*
X90840000Y-117210000D01*
X104660000Y-103890000D02*
X90840000Y-103890000D01*
X104660000Y-106390000D02*
X104660000Y-103890000D01*
X104660000Y-108910000D02*
X104660000Y-114690000D01*
X104660000Y-118610000D02*
X90840000Y-118610000D01*
X104660000Y-118610000D02*
X104660000Y-117210000D01*
D15*
G04 #@! TO.C,R4*
X89500000Y-135374995D02*
X89100000Y-135374985D01*
X89501056Y-134629160D02*
X89101057Y-134629149D01*
D14*
G04 #@! TO.C,S2*
X116550001Y-125249997D02*
X116550001Y-125849996D01*
X116550001Y-125249997D02*
X119450000Y-125249997D01*
X116550001Y-130154006D02*
X116550001Y-130754005D01*
X116550001Y-130754005D02*
X119450000Y-130754005D01*
X119450000Y-125249997D02*
X119450000Y-125849996D01*
X119450000Y-130154006D02*
X119450000Y-130754005D01*
D16*
X119090013Y-128000000D02*
G75*
G02*
X116909987Y-128000000I-1090013J0D01*
G01*
X116909987Y-128000000D02*
G75*
G02*
X119090013Y-128000000I1090013J0D01*
G01*
D13*
G04 #@! TO.C,U4*
X152000000Y-120440000D02*
X150050000Y-120440000D01*
X152000000Y-120440000D02*
X153950000Y-120440000D01*
X152000000Y-125560000D02*
X150050000Y-125560000D01*
X152000000Y-125560000D02*
X153950000Y-125560000D01*
X149300000Y-120535000D02*
X149060000Y-120205000D01*
X149540000Y-120205000D01*
X149300000Y-120535000D01*
G36*
X149300000Y-120535000D02*
G01*
X149060000Y-120205000D01*
X149540000Y-120205000D01*
X149300000Y-120535000D01*
G37*
G04 #@! TO.C,D9*
X114250000Y-59750000D02*
X114250000Y-63650000D01*
D10*
X114900000Y-61650000D02*
X115600000Y-61650000D01*
X114900000Y-62350000D02*
X115600000Y-62350000D01*
X115250000Y-61450000D02*
X115250000Y-61650000D01*
X115250000Y-61650000D02*
X114900000Y-62350000D01*
X115250000Y-61650000D02*
X115600000Y-62350000D01*
X115250000Y-62350000D02*
X115250000Y-62650000D01*
D13*
X116250000Y-59750000D02*
X114250000Y-59750000D01*
X116250000Y-59750000D02*
X116250000Y-63650000D01*
D15*
G04 #@! TO.C,R45*
X112335000Y-78349995D02*
X111935000Y-78349985D01*
X112336056Y-77604160D02*
X111936057Y-77604149D01*
D13*
G04 #@! TO.C,C11*
X83390000Y-118877836D02*
X83390000Y-118662164D01*
X84110000Y-118877836D02*
X84110000Y-118662164D01*
G04 #@! TO.C,R16*
X82590000Y-60264564D02*
X82590000Y-58810436D01*
X84410000Y-60264564D02*
X84410000Y-58810436D01*
G04 #@! TO.C,U6*
X80745000Y-83650000D02*
X80745000Y-81700000D01*
X80745000Y-83650000D02*
X80745000Y-85600000D01*
X85865000Y-83650000D02*
X85865000Y-81700000D01*
X85865000Y-83650000D02*
X85865000Y-85600000D01*
X80840000Y-86350000D02*
X80510000Y-86590000D01*
X80510000Y-86110000D01*
X80840000Y-86350000D01*
G36*
X80840000Y-86350000D02*
G01*
X80510000Y-86590000D01*
X80510000Y-86110000D01*
X80840000Y-86350000D01*
G37*
D15*
G04 #@! TO.C,R30*
X90800000Y-88524995D02*
X90400000Y-88524985D01*
X90801056Y-87779160D02*
X90401057Y-87779149D01*
G04 #@! TO.C,R26*
X95250000Y-74374995D02*
X94850000Y-74374985D01*
X95251056Y-73629160D02*
X94851057Y-73629149D01*
D13*
G04 #@! TO.C,D8*
X114250000Y-59000000D02*
X114250000Y-55100000D01*
X114250000Y-59000000D02*
X116250000Y-59000000D01*
D10*
X115250000Y-56400000D02*
X115250000Y-56100000D01*
X115250000Y-57100000D02*
X114900000Y-56400000D01*
X115250000Y-57100000D02*
X115600000Y-56400000D01*
X115250000Y-57300000D02*
X115250000Y-57100000D01*
X115600000Y-56400000D02*
X114900000Y-56400000D01*
X115600000Y-57100000D02*
X114900000Y-57100000D01*
D13*
X116250000Y-59000000D02*
X116250000Y-55100000D01*
G04 #@! TO.C,R12*
X76120000Y-116893641D02*
X76120000Y-116586359D01*
X76880000Y-116893641D02*
X76880000Y-116586359D01*
G04 #@! TO.C,R6*
X79120000Y-116893641D02*
X79120000Y-116586359D01*
X79880000Y-116893641D02*
X79880000Y-116586359D01*
D15*
G04 #@! TO.C,R32*
X102800000Y-88524995D02*
X102400000Y-88524985D01*
X102801056Y-87779160D02*
X102401057Y-87779149D01*
D13*
G04 #@! TO.C,U14*
X108025000Y-73425000D02*
X108025000Y-71475000D01*
X108025000Y-73425000D02*
X108025000Y-75375000D01*
X113145000Y-73425000D02*
X113145000Y-71475000D01*
X113145000Y-73425000D02*
X113145000Y-75375000D01*
X108120000Y-76125000D02*
X107790000Y-76365000D01*
X107790000Y-75885000D01*
X108120000Y-76125000D01*
G36*
X108120000Y-76125000D02*
G01*
X107790000Y-76365000D01*
X107790000Y-75885000D01*
X108120000Y-76125000D01*
G37*
G04 #@! TO.C,C7*
X156892164Y-124890000D02*
X157107836Y-124890000D01*
X156892164Y-125610000D02*
X157107836Y-125610000D01*
D15*
G04 #@! TO.C,R28*
X78280000Y-74374995D02*
X77880000Y-74374985D01*
X78281056Y-73629160D02*
X77881057Y-73629149D01*
D13*
G04 #@! TO.C,F6*
X75740000Y-110549721D02*
X75740000Y-110875279D01*
X76760000Y-110549721D02*
X76760000Y-110875279D01*
G04 #@! TO.C,U3*
X125640000Y-120522174D02*
X126065000Y-120522174D01*
X125640000Y-120697174D02*
X125640000Y-120522174D01*
X126065000Y-122752174D02*
X125870000Y-122752174D01*
X127860000Y-120522174D02*
X127435000Y-120522174D01*
X127860000Y-120697174D02*
X127860000Y-120522174D01*
X127860000Y-122567174D02*
X127860000Y-122742174D01*
X127860000Y-122742174D02*
X127435000Y-122742174D01*
X125630000Y-122752174D02*
X125440000Y-122892174D01*
X125440000Y-122612174D01*
X125630000Y-122752174D01*
G36*
X125630000Y-122752174D02*
G01*
X125440000Y-122892174D01*
X125440000Y-122612174D01*
X125630000Y-122752174D01*
G37*
G04 #@! TO.C,R14*
X99340000Y-60264564D02*
X99340000Y-58810436D01*
X101160000Y-60264564D02*
X101160000Y-58810436D01*
G04 #@! TO.C,F5*
X77740000Y-110549721D02*
X77740000Y-110875279D01*
X78760000Y-110549721D02*
X78760000Y-110875279D01*
G04 #@! TO.C,U1*
X109137500Y-113650000D02*
X109637500Y-113650000D01*
X109137500Y-114150000D02*
X109137500Y-113650000D01*
X109137500Y-115350000D02*
X109137500Y-115350000D01*
X109137500Y-115850000D02*
X109137500Y-115350000D01*
X109637500Y-113650000D02*
X109637500Y-113650000D01*
X109637500Y-115850000D02*
X109137500Y-115850000D01*
X110837500Y-113650000D02*
X111337500Y-113650000D01*
X110837500Y-115850000D02*
X111337500Y-115850000D01*
X111337500Y-113650000D02*
X111337500Y-114150000D01*
X111337500Y-114150000D02*
X111337500Y-114150000D01*
X111337500Y-115850000D02*
X111337500Y-115850000D01*
D15*
G04 #@! TO.C,R20*
X84750000Y-62874995D02*
X84350000Y-62874985D01*
X84751056Y-62129160D02*
X84351057Y-62129149D01*
D13*
G04 #@! TO.C,F4*
X79990000Y-110549721D02*
X79990000Y-110875279D01*
X81010000Y-110549721D02*
X81010000Y-110875279D01*
G04 #@! TO.C,U9*
X98590000Y-83650000D02*
X98590000Y-81700000D01*
X98590000Y-83650000D02*
X98590000Y-85600000D01*
X103710000Y-83650000D02*
X103710000Y-81700000D01*
X103710000Y-83650000D02*
X103710000Y-85600000D01*
X98685000Y-86350000D02*
X98355000Y-86590000D01*
X98355000Y-86110000D01*
X98685000Y-86350000D01*
G36*
X98685000Y-86350000D02*
G01*
X98355000Y-86590000D01*
X98355000Y-86110000D01*
X98685000Y-86350000D01*
G37*
G04 #@! TO.C,C8*
X124377500Y-121740010D02*
X124377500Y-121524338D01*
X125097500Y-121740010D02*
X125097500Y-121524338D01*
G04 #@! TO.C,R7*
X77120000Y-116893641D02*
X77120000Y-116586359D01*
X77880000Y-116893641D02*
X77880000Y-116586359D01*
G04 #@! TO.C,F9*
X76740000Y-113549721D02*
X76740000Y-113875279D01*
X77760000Y-113549721D02*
X77760000Y-113875279D01*
D15*
G04 #@! TO.C,R46*
X108883944Y-78345840D02*
X109283943Y-78345851D01*
X108885000Y-77600005D02*
X109285000Y-77600015D01*
G04 #@! TO.C,R18*
X101250000Y-62874995D02*
X100850000Y-62874985D01*
X101251056Y-62129160D02*
X100851057Y-62129149D01*
D13*
G04 #@! TO.C,R24*
X76370000Y-71149564D02*
X76370000Y-69695436D01*
X78190000Y-71149564D02*
X78190000Y-69695436D01*
G04 #@! TO.C,U5*
X74965000Y-122250000D02*
X74965000Y-120050000D01*
X74965000Y-122250000D02*
X74965000Y-124450000D01*
X83035000Y-122250000D02*
X83035000Y-120050000D01*
X83035000Y-122250000D02*
X83035000Y-124450000D01*
X82575000Y-118390000D02*
X82335000Y-118060000D01*
X82815000Y-118060000D01*
X82575000Y-118390000D01*
G36*
X82575000Y-118390000D02*
G01*
X82335000Y-118060000D01*
X82815000Y-118060000D01*
X82575000Y-118390000D01*
G37*
G04 #@! TO.C,R13*
X107340000Y-60264564D02*
X107340000Y-58810436D01*
X109160000Y-60264564D02*
X109160000Y-58810436D01*
G04 #@! TO.C,U8*
X92590000Y-83650000D02*
X92590000Y-81700000D01*
X92590000Y-83650000D02*
X92590000Y-85600000D01*
X97710000Y-83650000D02*
X97710000Y-81700000D01*
X97710000Y-83650000D02*
X97710000Y-85600000D01*
X92685000Y-86350000D02*
X92355000Y-86590000D01*
X92355000Y-86110000D01*
X92685000Y-86350000D01*
G36*
X92685000Y-86350000D02*
G01*
X92355000Y-86590000D01*
X92355000Y-86110000D01*
X92685000Y-86350000D01*
G37*
D15*
G04 #@! TO.C,R25*
X103150000Y-74374995D02*
X102750000Y-74374985D01*
X103151056Y-73629160D02*
X102751057Y-73629149D01*
D13*
G04 #@! TO.C,F2*
X122500000Y-46850000D02*
X122500000Y-51700000D01*
X124500000Y-46850000D02*
X124500000Y-51700000D01*
X122500000Y-46800000D02*
G75*
G02*
X124500000Y-46800000I1000000J0D01*
G01*
X124500000Y-51700000D02*
G75*
G02*
X122500000Y-51700000I-1000000J0D01*
G01*
G04 #@! TO.C,R5*
X81120000Y-116893641D02*
X81120000Y-116586359D01*
X81880000Y-116893641D02*
X81880000Y-116586359D01*
D14*
G04 #@! TO.C,M4*
X126100000Y-47100000D02*
X126100000Y-65375000D01*
X126100000Y-47100000D02*
X129674999Y-47100000D01*
X126100000Y-65375000D02*
X129674999Y-65375000D01*
X129674999Y-47100000D02*
X129674999Y-53849999D01*
X129674999Y-53849999D02*
X130399999Y-54574999D01*
X129674999Y-60900000D02*
X129674999Y-65375000D01*
X130399999Y-54574999D02*
X130399999Y-60175000D01*
X130399999Y-60175000D02*
X129674999Y-60900000D01*
D15*
G04 #@! TO.C,R3*
X84248944Y-135370840D02*
X84648943Y-135370851D01*
X84250000Y-134625005D02*
X84650000Y-134625015D01*
G04 #@! TO.C,R40*
X120898944Y-78320840D02*
X121298943Y-78320851D01*
X120900000Y-77575005D02*
X121300000Y-77575015D01*
D14*
G04 #@! TO.C,S1*
X121050001Y-125249997D02*
X121050001Y-125849996D01*
X121050001Y-125249997D02*
X123950000Y-125249997D01*
X121050001Y-130154006D02*
X121050001Y-130754005D01*
X121050001Y-130754005D02*
X123950000Y-130754005D01*
X123950000Y-125249997D02*
X123950000Y-125849996D01*
X123950000Y-130154006D02*
X123950000Y-130754005D01*
D16*
X123590013Y-128000000D02*
G75*
G02*
X121409987Y-128000000I-1090013J0D01*
G01*
X121409987Y-128000000D02*
G75*
G02*
X123590013Y-128000000I1090013J0D01*
G01*
D13*
G04 #@! TO.C,R23*
X84840000Y-71189564D02*
X84840000Y-69735436D01*
X86660000Y-71189564D02*
X86660000Y-69735436D01*
G04 #@! TO.C,C5*
X107877500Y-114877836D02*
X107877500Y-114662164D01*
X108597500Y-114877836D02*
X108597500Y-114662164D01*
D15*
G04 #@! TO.C,R35*
X93398944Y-88520840D02*
X93798943Y-88520851D01*
X93400000Y-87775005D02*
X93800000Y-87775015D01*
D13*
G04 #@! TO.C,D4*
X122250000Y-59750000D02*
X122250000Y-63650000D01*
D10*
X122900000Y-61650000D02*
X123600000Y-61650000D01*
X122900000Y-62350000D02*
X123600000Y-62350000D01*
X123250000Y-61450000D02*
X123250000Y-61650000D01*
X123250000Y-61650000D02*
X122900000Y-62350000D01*
X123250000Y-61650000D02*
X123600000Y-62350000D01*
X123250000Y-62350000D02*
X123250000Y-62650000D01*
D13*
X124250000Y-59750000D02*
X122250000Y-59750000D01*
X124250000Y-59750000D02*
X124250000Y-63650000D01*
D15*
G04 #@! TO.C,R17*
X109400000Y-62874995D02*
X109000000Y-62874985D01*
X109401056Y-62129160D02*
X109001057Y-62129149D01*
G04 #@! TO.C,R31*
X96800000Y-88524995D02*
X96400000Y-88524985D01*
X96801056Y-87779160D02*
X96401057Y-87779149D01*
D13*
G04 #@! TO.C,D1*
X116500000Y-59000000D02*
X116500000Y-55100000D01*
X116500000Y-59000000D02*
X118500000Y-59000000D01*
D10*
X117500000Y-56400000D02*
X117500000Y-56100000D01*
X117500000Y-57100000D02*
X117150000Y-56400000D01*
X117500000Y-57100000D02*
X117850000Y-56400000D01*
X117500000Y-57300000D02*
X117500000Y-57100000D01*
X117850000Y-56400000D02*
X117150000Y-56400000D01*
X117850000Y-57100000D02*
X117150000Y-57100000D01*
D13*
X118500000Y-59000000D02*
X118500000Y-55100000D01*
G04 #@! TD*
M02*
