M48
; DRILL file {KiCad 9.0.4} date 2025-12-07T20:07:41+1000
; FORMAT={2:4/ absolute / inch / suppress leading zeros}
; #@! TF.CreationDate,2025-12-07T20:07:41+10:00
; #@! TF.GenerationSoftware,Kicad,Pcbnew,9.0.4
; #@! TF.FileFunction,MixedPlating,1,4
FMAT,2
INCH,TZ
; #@! TA.AperFunction,Plated,PTH,ComponentDrill
T1C0.0118
; #@! TA.AperFunction,Plated,PTH,ViaDrill
T2C0.0118
; #@! TA.AperFunction,Plated,PTH,ComponentDrill
T3C0.0197
; #@! TA.AperFunction,Plated,PTH,ComponentDrill
T4C0.0236
; #@! TA.AperFunction,Plated,PTH,ComponentDrill
T5C0.0320
; #@! TA.AperFunction,Plated,PTH,ComponentDrill
T6C0.0512
; #@! TA.AperFunction,Plated,PTH,ComponentDrill
T7C0.1260
; #@! TA.AperFunction,NonPlated,NPTH,ComponentDrill
T8C0.0256
%
G90
G05
T1
X39355Y-55527
X43647Y-55527
X49237Y-55527
X53519Y-54031
X54065Y-55527
X55974Y-55610
X58465Y-52835
X59206Y-53029
X59213Y-55089
X61358Y-52392
T2
X29035Y-39469
X29035Y-42520
X29528Y-44094
X29606Y-47402
X29745Y-49890
X29764Y-48819
X29921Y-29213
X29921Y-42913
X29921Y-47402
X30079Y-49916
X30413Y-49902
X30413Y-29429
X30413Y-44094
X30472Y-26270
X30472Y-26486
X30472Y-26722
X30748Y-49902
X30807Y-42913
X31083Y-49902
X31201Y-44094
X31323Y-29134
X31339Y-24567
X31417Y-49902
X31575Y-34685
X31693Y-42913
X31752Y-49902
X31890Y-48740
X32087Y-44094
X32087Y-49902
X32283Y-47480
X32579Y-42913
X32756Y-49257
X32776Y-24803
X32913Y-21939
X32913Y-22156
X32913Y-22392
X32913Y-48661
X32972Y-33031
X32972Y-39469
X32972Y-42520
X32992Y-46378
X33228Y-29213
X33228Y-49370
X33307Y-47008
X33661Y-29528
X33780Y-26270
X33780Y-26486
X33780Y-26722
X33783Y-24606
X33917Y-34705
X34488Y-33031
X34667Y-29124
X34843Y-43996
X34941Y-45472
X35669Y-24646
X35827Y-33031
X36142Y-21939
X36142Y-22156
X36142Y-22392
X36142Y-24882
X36256Y-34681
X36319Y-42323
X36319Y-45472
X36614Y-29213
X37037Y-24596
X37106Y-26319
X37106Y-26535
X37106Y-26772
X37106Y-29429
X37205Y-44193
X37795Y-33031
X37992Y-45079
X38014Y-29154
X38287Y-54035
X38386Y-54823
X38484Y-44193
X38642Y-34705
X38976Y-24646
X39370Y-24902
X39469Y-45079
X39528Y-22018
X39528Y-22234
X39528Y-22470
X39685Y-29213
X39764Y-44193
X39862Y-41929
X39862Y-43602
X40157Y-26270
X40157Y-26486
X40157Y-26722
X40157Y-29429
X40366Y-24622
X40551Y-33031
X40650Y-42323
X40650Y-45472
X40748Y-37697
X40827Y-34705
X41010Y-29109
X41043Y-50886
X41929Y-44980
X42126Y-39469
X42205Y-24646
X42323Y-30709
X42618Y-25000
X42618Y-44783
X42677Y-21939
X42677Y-22156
X42677Y-22392
X42717Y-40157
X42815Y-26969
X42815Y-27264
X42815Y-27559
X42913Y-37795
X42992Y-33307
X43100Y-45768
X43110Y-48031
X43307Y-28543
X43307Y-29035
X43406Y-38189
X43465Y-33307
X43506Y-24596
X43937Y-44727
X43996Y-35925
X43996Y-36516
X43996Y-37106
X44039Y-38134
X44062Y-45080
X44193Y-33307
X44193Y-41240
X44252Y-35591
X44258Y-45721
X44273Y-36745
X44291Y-28543
X44291Y-29035
X44291Y-36220
X44291Y-39272
X44360Y-44232
X44380Y-37795
X44685Y-30709
X45157Y-26969
X45157Y-27264
X45157Y-27559
X45374Y-21358
X45374Y-47539
X45669Y-23327
X45669Y-28543
X45669Y-29035
X45866Y-47539
X46063Y-23327
X46063Y-31004
X46260Y-21358
X46358Y-47539
X46654Y-28543
X46654Y-29035
X46850Y-47539
X47047Y-30709
X47244Y-48031
X47539Y-26969
X47539Y-27264
X47539Y-27559
X47835Y-31004
X48031Y-28543
X48031Y-29035
X48228Y-32283
X48327Y-31004
X48327Y-47539
X48524Y-21358
X48524Y-23327
X48720Y-32283
X48819Y-48031
X49016Y-28543
X49016Y-29035
X49114Y-47441
X49311Y-18307
X49311Y-18996
X49311Y-19685
X49311Y-21063
X49311Y-21752
X49311Y-22441
X49311Y-23130
X49311Y-23819
X49311Y-24508
X49311Y-25295
X49311Y-26083
X49311Y-26772
X49311Y-27362
X49311Y-30709
X49606Y-50492
X50354Y-26079
X50394Y-28445
X50394Y-29232
X50566Y-47578
X50591Y-48228
X50709Y-47887
X50787Y-26083
X51063Y-47598
X51280Y-16240
X51417Y-24472
X51575Y-26181
X51850Y-47520
X51919Y-22933
X51969Y-23917
X51969Y-26280
X52067Y-25000
X52156Y-21191
X52165Y-18307
X52188Y-47896
X52558Y-26374
X53002Y-51919
X53567Y-26378
X53937Y-26378
X54483Y-53839
X55217Y-50295
X55217Y-51083
X55217Y-51673
X55217Y-52362
X55217Y-53051
X55475Y-24882
X55512Y-26083
X55748Y-25197
X56811Y-48543
X57087Y-25906
X57087Y-47736
X57559Y-25906
X57953Y-47717
X58307Y-48071
X59252Y-24606
X59452Y-24904
X59498Y-25344
X59744Y-47835
X59744Y-48524
X59997Y-26378
X60089Y-25738
X61650Y-32441
X61929Y-48425
X63091Y-33661
X63091Y-35039
X63091Y-36220
X63091Y-37402
X63091Y-38583
X63091Y-39567
X63091Y-40748
X63091Y-41732
X63091Y-42717
X63091Y-43504
X63091Y-44291
T3
X28304Y-20915
X28304Y-53592
X28581Y-20247
X28581Y-21583
X28581Y-52924
X28581Y-54261
X29249Y-19970
X29249Y-21860
X29249Y-52648
X29249Y-54537
X29917Y-20247
X29917Y-21583
X29917Y-52924
X29917Y-54261
X30194Y-20915
X30194Y-53592
X62753Y-20915
X62753Y-53592
X63030Y-20247
X63030Y-21583
X63030Y-52924
X63030Y-54261
X63698Y-19970
X63698Y-21860
X63698Y-52648
X63698Y-54537
X64366Y-20247
X64366Y-21583
X64366Y-52924
X64366Y-54261
X64643Y-20915
X64643Y-53592
T5
X48622Y-18425
X48622Y-20354
T6
X31166Y-14263
X31166Y-15917
X31166Y-17570
X32800Y-14263
X32800Y-15917
X32800Y-17570
X34111Y-14263
X34111Y-15917
X34111Y-17570
X35422Y-14263
X35422Y-15917
X35422Y-17570
X36733Y-14263
X36733Y-15917
X36733Y-17570
X38044Y-14263
X38044Y-15917
X38044Y-17570
X39355Y-14263
X39355Y-15917
X39355Y-17570
X40989Y-14263
X40989Y-15917
X40989Y-17570
X52034Y-14263
X52034Y-15917
X52034Y-17570
X53668Y-14263
X53668Y-15917
X53668Y-17570
X54979Y-14263
X54979Y-15917
X54979Y-17570
X56290Y-14263
X56290Y-15917
X56290Y-17570
X57601Y-14263
X57601Y-15917
X57601Y-17570
X58912Y-14263
X58912Y-15917
X58912Y-17570
X60223Y-14263
X60223Y-15917
X60223Y-17570
X61857Y-14263
X61857Y-15917
X61857Y-17570
T7
X29249Y-20915
X29249Y-53592
X63698Y-20915
X63698Y-53592
T8
X33008Y-54378
X35284Y-54378
T4
G00X32445Y-53965
M15
G01X32445Y-54398
M16
G05
G00X32445Y-55709
M15
G01X32445Y-55945
M16
G05
G00X35847Y-53965
M15
G01X35847Y-54398
M16
G05
G00X35847Y-55709
M15
G01X35847Y-55945
M16
G05
M30
